%TF.GenerationSoftware,KiCad,Pcbnew,9.0.6+1*%
%TF.CreationDate,Date%
%TF.ProjectId,StepUp_module_12to450V,53746570-5570-45f6-9d6f-64756c655f31,+ (Unreleased)*%
%TF.SameCoordinates,Original*%
%TF.FileFunction,Copper,L1,Top*%
%TF.FilePolarity,Positive*%
%FSLAX46Y46*%
G04 Gerber Fmt 4.6, Leading zero omitted, Abs format (unit mm)*
G04 Created by KiCad*
%MOMM*%
%LPD*%
G01*
G04 APERTURE LIST*
G04 Aperture macros list*
%AMRoundRect*
0 Rectangle with rounded corners*
0 $1 Rounding radius*
0 $2 $3 $4 $5 $6 $7 $8 $9 X,Y pos of 4 corners*
0 Add a 4 corners polygon primitive as box body*
4,1,4,$2,$3,$4,$5,$6,$7,$8,$9,$2,$3,0*
0 Add four circle primitives for the rounded corners*
1,1,$1+$1,$2,$3*
1,1,$1+$1,$4,$5*
1,1,$1+$1,$6,$7*
1,1,$1+$1,$8,$9*
0 Add four rect primitives between the rounded corners*
20,1,$1+$1,$2,$3,$4,$5,0*
20,1,$1+$1,$4,$5,$6,$7,0*
20,1,$1+$1,$6,$7,$8,$9,0*
20,1,$1+$1,$8,$9,$2,$3,0*%
G04 Aperture macros list end*
%TA.AperFunction,ComponentPad*%
%ADD10C,1.600000*%
%TD*%
%TA.AperFunction,ComponentPad*%
%ADD11R,1.800000X1.800000*%
%TD*%
%TA.AperFunction,ComponentPad*%
%ADD12C,1.800000*%
%TD*%
%TA.AperFunction,ComponentPad*%
%ADD13RoundRect,0.250001X1.149999X-1.149999X1.149999X1.149999X-1.149999X1.149999X-1.149999X-1.149999X0*%
%TD*%
%TA.AperFunction,ComponentPad*%
%ADD14C,2.800000*%
%TD*%
%TA.AperFunction,ComponentPad*%
%ADD15R,2.000000X2.000000*%
%TD*%
%TA.AperFunction,ComponentPad*%
%ADD16C,2.000000*%
%TD*%
%TA.AperFunction,ComponentPad*%
%ADD17R,1.905000X2.000000*%
%TD*%
%TA.AperFunction,ComponentPad*%
%ADD18O,1.905000X2.000000*%
%TD*%
%TA.AperFunction,ComponentPad*%
%ADD19R,1.500000X1.500000*%
%TD*%
%TA.AperFunction,ComponentPad*%
%ADD20C,1.500000*%
%TD*%
%TA.AperFunction,ComponentPad*%
%ADD21RoundRect,0.250000X0.550000X-0.550000X0.550000X0.550000X-0.550000X0.550000X-0.550000X-0.550000X0*%
%TD*%
%TA.AperFunction,ComponentPad*%
%ADD22RoundRect,0.675000X0.675000X0.675000X-0.675000X0.675000X-0.675000X-0.675000X0.675000X-0.675000X0*%
%TD*%
%TA.AperFunction,ComponentPad*%
%ADD23C,2.700000*%
%TD*%
%TA.AperFunction,ComponentPad*%
%ADD24C,1.440000*%
%TD*%
%TA.AperFunction,ComponentPad*%
%ADD25RoundRect,0.250000X0.650000X-0.650000X0.650000X0.650000X-0.650000X0.650000X-0.650000X-0.650000X0*%
%TD*%
%TA.AperFunction,ComponentPad*%
%ADD26RoundRect,0.250000X-0.650000X-0.650000X0.650000X-0.650000X0.650000X0.650000X-0.650000X0.650000X0*%
%TD*%
%TA.AperFunction,ViaPad*%
%ADD27C,1.500000*%
%TD*%
%TA.AperFunction,Conductor*%
%ADD28C,1.000000*%
%TD*%
G04 APERTURE END LIST*
D10*
%TO.P,C4,1*%
%TO.N,/Block Diagram/Schematic/Isns*%
X118923504Y-76672284D03*
%TO.P,C4,2*%
%TO.N,GND*%
X118923504Y-71672284D03*
%TD*%
%TO.P,R11,1*%
%TO.N,/Block Diagram/Schematic/B*%
X128168400Y-96494600D03*
%TO.P,R11,2*%
%TO.N,Net-(R10-Pad1)*%
X140868400Y-96494600D03*
%TD*%
%TO.P,C1,1*%
%TO.N,/Block Diagram/Schematic/Emm*%
X105588504Y-91952284D03*
%TO.P,C1,2*%
%TO.N,/Block Diagram/Schematic/Vref*%
X100588504Y-91952284D03*
%TD*%
D11*
%TO.P,D3,1,K*%
%TO.N,GND*%
X101143504Y-88142284D03*
D12*
%TO.P,D3,2,A*%
%TO.N,/Block Diagram/Schematic/Emm*%
X103683504Y-88142284D03*
%TD*%
D10*
%TO.P,R10,1*%
%TO.N,Net-(R10-Pad1)*%
X143687800Y-96494600D03*
%TO.P,R10,2*%
%TO.N,/Block Diagram/Schematic/Vout+*%
X156387800Y-96494600D03*
%TD*%
D13*
%TO.P,J1,1,Pin_1*%
%TO.N,/Block Diagram/Schematic/Vout+*%
X171882504Y-82441284D03*
D14*
%TO.P,J1,2,Pin_2*%
%TO.N,GND*%
X171882504Y-77441284D03*
%TO.P,J1,3,Pin_3*%
%TO.N,/Block Diagram/Schematic/Vin+*%
X171882504Y-72441284D03*
%TO.P,J1,4,Pin_4*%
%TO.N,/Block Diagram/Schematic/Vin-*%
X171882504Y-67441284D03*
%TD*%
D10*
%TO.P,R4,1*%
%TO.N,Net-(R4-Pad1)*%
X129083504Y-93222284D03*
%TO.P,R4,2*%
%TO.N,GND*%
X129083504Y-85602284D03*
%TD*%
%TO.P,R5,1*%
%TO.N,/Block Diagram/Schematic/RT_CT*%
X122098504Y-90047284D03*
%TO.P,R5,2*%
%TO.N,/Block Diagram/Schematic/Vref*%
X122098504Y-82427284D03*
%TD*%
%TO.P,C5,1*%
%TO.N,/Block Diagram/Schematic/Vref*%
X116383504Y-76712284D03*
%TO.P,C5,2*%
%TO.N,GND*%
X116383504Y-71712284D03*
%TD*%
%TO.P,C8,1*%
%TO.N,/Block Diagram/Schematic/Vout+*%
X169260827Y-90682284D03*
%TO.P,C8,2*%
%TO.N,GND*%
X174260827Y-90682284D03*
%TD*%
D15*
%TO.P,TR1,1*%
%TO.N,/Block Diagram/Schematic/SW*%
X138100504Y-66933284D03*
D16*
%TO.P,TR1,2*%
X138100504Y-72013284D03*
%TO.P,TR1,3*%
%TO.N,N/C*%
X138100504Y-77093284D03*
%TO.P,TR1,4*%
X138100504Y-82173284D03*
%TO.P,TR1,5*%
%TO.N,/Block Diagram/Schematic/Vin+*%
X138100504Y-87253284D03*
%TO.P,TR1,6*%
%TO.N,N/C*%
X138100504Y-92333284D03*
%TO.P,TR1,7*%
%TO.N,/Block Diagram/Schematic/Out_trafo*%
X163500504Y-92333284D03*
%TO.P,TR1,8*%
%TO.N,N/C*%
X163500504Y-87253284D03*
%TO.P,TR1,9*%
X163500504Y-82173284D03*
%TO.P,TR1,10*%
X163500504Y-77093284D03*
%TO.P,TR1,11*%
X163500504Y-72013284D03*
%TO.P,TR1,12*%
X163500504Y-66933284D03*
%TD*%
D17*
%TO.P,Q1,1,G*%
%TO.N,/Block Diagram/Schematic/G*%
X115748504Y-58992284D03*
D18*
%TO.P,Q1,2,D*%
%TO.N,/Block Diagram/Schematic/SW*%
X118288504Y-58992284D03*
%TO.P,Q1,3,S*%
%TO.N,/Block Diagram/Schematic/Src*%
X120828504Y-58992284D03*
%TD*%
D10*
%TO.P,R9,1*%
%TO.N,/Block Diagram/Schematic/Src*%
X120828504Y-64012284D03*
%TO.P,R9,2*%
%TO.N,GND*%
X105588504Y-64012284D03*
%TD*%
%TO.P,C3,1*%
%TO.N,/Block Diagram/Schematic/RT_CT*%
X125273504Y-90007284D03*
%TO.P,C3,2*%
%TO.N,GND*%
X125273504Y-85007284D03*
%TD*%
%TO.P,C2,1*%
%TO.N,/Block Diagram/Schematic/Comp*%
X108128504Y-90642284D03*
%TO.P,C2,2*%
%TO.N,/Block Diagram/Schematic/Vfb*%
X108128504Y-85642284D03*
%TD*%
D19*
%TO.P,Q3,1,E*%
%TO.N,/Block Diagram/Schematic/Emm*%
X105588504Y-95402284D03*
D20*
%TO.P,Q3,2,B*%
%TO.N,/Block Diagram/Schematic/B*%
X103048504Y-95402284D03*
%TO.P,Q3,3,C*%
%TO.N,/Block Diagram/Schematic/Vin+*%
X100508504Y-95402284D03*
%TD*%
D10*
%TO.P,R3,1*%
%TO.N,/Block Diagram/Schematic/Comp*%
X108763504Y-92587284D03*
%TO.P,R3,2*%
%TO.N,/Block Diagram/Schematic/Vfb*%
X116383504Y-92587284D03*
%TD*%
D21*
%TO.P,U1,1,COMP*%
%TO.N,/Block Diagram/Schematic/Comp*%
X110998000Y-90165000D03*
D10*
%TO.P,U1,2,VFB*%
%TO.N,/Block Diagram/Schematic/Vfb*%
X113538000Y-90165000D03*
%TO.P,U1,3,ISENSE*%
%TO.N,/Block Diagram/Schematic/Isns*%
X116078000Y-90165000D03*
%TO.P,U1,4,RT_CT*%
%TO.N,/Block Diagram/Schematic/RT_CT*%
X118618000Y-90165000D03*
%TO.P,U1,5,GND*%
%TO.N,GND*%
X118618000Y-82545000D03*
%TO.P,U1,6,OUTPUT*%
%TO.N,Net-(D2-K)*%
X116078000Y-82545000D03*
%TO.P,U1,7,VCC*%
%TO.N,/Block Diagram/Schematic/Vin+*%
X113538000Y-82545000D03*
%TO.P,U1,8,VREF*%
%TO.N,/Block Diagram/Schematic/Vref*%
X110998000Y-82545000D03*
%TD*%
%TO.P,C6,1*%
%TO.N,/Block Diagram/Schematic/Vin+*%
X100125853Y-72902284D03*
%TO.P,C6,2*%
%TO.N,GND*%
X103625853Y-72902284D03*
%TD*%
%TO.P,C9,1*%
%TO.N,/Block Diagram/Schematic/Out_trafo*%
X158583000Y-91897200D03*
%TO.P,C9,2*%
%TO.N,/Block Diagram/Schematic/Vout+*%
X153583000Y-91897200D03*
%TD*%
%TO.P,R8,1*%
%TO.N,Net-(D2-K)*%
X110033504Y-76712284D03*
%TO.P,R8,2*%
%TO.N,/Block Diagram/Schematic/G*%
X110033504Y-69092284D03*
%TD*%
%TO.P,R6,1*%
%TO.N,/Block Diagram/Schematic/Isns*%
X122733504Y-77347284D03*
%TO.P,R6,2*%
%TO.N,/Block Diagram/Schematic/Src*%
X122733504Y-64647284D03*
%TD*%
%TO.P,R13,1*%
%TO.N,Net-(Q2-G)*%
X126543504Y-64647284D03*
%TO.P,R13,2*%
%TO.N,GND*%
X126543504Y-72267284D03*
%TD*%
%TO.P,R2,1*%
%TO.N,/Block Diagram/Schematic/Vfb*%
X116383504Y-95127284D03*
%TO.P,R2,2*%
%TO.N,/Block Diagram/Schematic/Emm*%
X108763504Y-95127284D03*
%TD*%
D22*
%TO.P,F1,1*%
%TO.N,/Block Diagram/Schematic/Vin-*%
X170598504Y-61472284D03*
X163838504Y-61472284D03*
D23*
%TO.P,F1,2*%
%TO.N,Net-(Q2-D)*%
X156558504Y-61472284D03*
X149798504Y-61472284D03*
%TD*%
D10*
%TO.P,R12,1*%
%TO.N,/Block Diagram/Schematic/Emm*%
X104953504Y-85602284D03*
%TO.P,R12,2*%
%TO.N,GND*%
X104953504Y-77982284D03*
%TD*%
D24*
%TO.P,VR1,1,1*%
%TO.N,Net-(R4-Pad1)*%
X124638504Y-94487284D03*
%TO.P,VR1,2,2*%
X122098504Y-94487284D03*
%TO.P,VR1,3,3*%
%TO.N,/Block Diagram/Schematic/B*%
X119558504Y-94487284D03*
%TD*%
D17*
%TO.P,Q2,1,G*%
%TO.N,Net-(Q2-G)*%
X135433504Y-58992284D03*
D18*
%TO.P,Q2,2,D*%
%TO.N,Net-(Q2-D)*%
X137973504Y-58992284D03*
%TO.P,Q2,3,S*%
%TO.N,GND*%
X140513504Y-58992284D03*
%TD*%
D10*
%TO.P,R7,1*%
%TO.N,/Block Diagram/Schematic/G*%
X113208504Y-69092284D03*
%TO.P,R7,2*%
%TO.N,GND*%
X113208504Y-76712284D03*
%TD*%
D25*
%TO.P,D2,1,K*%
%TO.N,Net-(D2-K)*%
X107315000Y-76835000D03*
D12*
%TO.P,D2,2,A*%
%TO.N,/Block Diagram/Schematic/G*%
X107315000Y-69215000D03*
%TD*%
D26*
%TO.P,D4,1,K*%
%TO.N,/Block Diagram/Schematic/Vout+*%
X159563504Y-96397284D03*
D12*
%TO.P,D4,2,A*%
%TO.N,/Block Diagram/Schematic/Out_trafo*%
X169723504Y-96397284D03*
%TD*%
D10*
%TO.P,R14,1*%
%TO.N,Net-(Q2-G)*%
X110668504Y-60202284D03*
%TO.P,R14,2*%
%TO.N,/Block Diagram/Schematic/Vin+*%
X103048504Y-60202284D03*
%TD*%
%TO.P,C7,1*%
%TO.N,/Block Diagram/Schematic/Vin+*%
X130048000Y-80984961D03*
%TO.P,C7,2*%
%TO.N,GND*%
X130048000Y-75984961D03*
%TD*%
D27*
%TO.N,GND*%
X102413504Y-84967284D03*
X102413504Y-77982284D03*
%TD*%
D28*
%TO.N,GND*%
X102413504Y-84967284D02*
X102413504Y-77982284D01*
%TD*%
M02*
