%TF.GenerationSoftware,KiCad,Pcbnew,9.0.6+1*%
%TF.CreationDate,Date%
%TF.ProjectId,StepUp_module_12to450V,53746570-5570-45f6-9d6f-64756c655f31,+ (Unreleased)*%
%TF.SameCoordinates,Original*%
%TF.FileFunction,Copper,L2,Bot*%
%TF.FilePolarity,Positive*%
%FSLAX46Y46*%
G04 Gerber Fmt 4.6, Leading zero omitted, Abs format (unit mm)*
G04 Created by KiCad*
%MOMM*%
%LPD*%
G01*
G04 APERTURE LIST*
G04 Aperture macros list*
%AMRoundRect*
0 Rectangle with rounded corners*
0 $1 Rounding radius*
0 $2 $3 $4 $5 $6 $7 $8 $9 X,Y pos of 4 corners*
0 Add a 4 corners polygon primitive as box body*
4,1,4,$2,$3,$4,$5,$6,$7,$8,$9,$2,$3,0*
0 Add four circle primitives for the rounded corners*
1,1,$1+$1,$2,$3*
1,1,$1+$1,$4,$5*
1,1,$1+$1,$6,$7*
1,1,$1+$1,$8,$9*
0 Add four rect primitives between the rounded corners*
20,1,$1+$1,$2,$3,$4,$5,0*
20,1,$1+$1,$4,$5,$6,$7,0*
20,1,$1+$1,$6,$7,$8,$9,0*
20,1,$1+$1,$8,$9,$2,$3,0*%
G04 Aperture macros list end*
%TA.AperFunction,ComponentPad*%
%ADD10C,1.600000*%
%TD*%
%TA.AperFunction,ComponentPad*%
%ADD11R,1.800000X1.800000*%
%TD*%
%TA.AperFunction,ComponentPad*%
%ADD12C,1.800000*%
%TD*%
%TA.AperFunction,ComponentPad*%
%ADD13RoundRect,0.250000X1.050000X-1.050000X1.050000X1.050000X-1.050000X1.050000X-1.050000X-1.050000X0*%
%TD*%
%TA.AperFunction,ComponentPad*%
%ADD14C,2.600000*%
%TD*%
%TA.AperFunction,ComponentPad*%
%ADD15R,2.000000X2.000000*%
%TD*%
%TA.AperFunction,ComponentPad*%
%ADD16C,2.000000*%
%TD*%
%TA.AperFunction,ComponentPad*%
%ADD17R,1.905000X2.000000*%
%TD*%
%TA.AperFunction,ComponentPad*%
%ADD18O,1.905000X2.000000*%
%TD*%
%TA.AperFunction,ComponentPad*%
%ADD19R,1.500000X1.500000*%
%TD*%
%TA.AperFunction,ComponentPad*%
%ADD20C,1.500000*%
%TD*%
%TA.AperFunction,ComponentPad*%
%ADD21RoundRect,0.250000X0.550000X-0.550000X0.550000X0.550000X-0.550000X0.550000X-0.550000X-0.550000X0*%
%TD*%
%TA.AperFunction,ComponentPad*%
%ADD22RoundRect,0.675000X0.675000X0.675000X-0.675000X0.675000X-0.675000X-0.675000X0.675000X-0.675000X0*%
%TD*%
%TA.AperFunction,ComponentPad*%
%ADD23C,2.700000*%
%TD*%
%TA.AperFunction,ComponentPad*%
%ADD24C,1.440000*%
%TD*%
%TA.AperFunction,ComponentPad*%
%ADD25RoundRect,0.250000X0.650000X-0.650000X0.650000X0.650000X-0.650000X0.650000X-0.650000X-0.650000X0*%
%TD*%
%TA.AperFunction,ComponentPad*%
%ADD26RoundRect,0.250000X-0.650000X-0.650000X0.650000X-0.650000X0.650000X0.650000X-0.650000X0.650000X0*%
%TD*%
%TA.AperFunction,ViaPad*%
%ADD27C,1.500000*%
%TD*%
%TA.AperFunction,Conductor*%
%ADD28C,1.000000*%
%TD*%
G04 APERTURE END LIST*
D10*
%TO.P,C4,1*%
%TO.N,/Block Diagram/Schematic/Isns*%
X118923504Y-76672284D03*
%TO.P,C4,2*%
%TO.N,GND*%
X118923504Y-71672284D03*
%TD*%
%TO.P,R11,1*%
%TO.N,/Block Diagram/Schematic/B*%
X128168400Y-96494600D03*
%TO.P,R11,2*%
%TO.N,Net-(R10-Pad1)*%
X140868400Y-96494600D03*
%TD*%
%TO.P,C1,1*%
%TO.N,/Block Diagram/Schematic/Emm*%
X105588504Y-91952284D03*
%TO.P,C1,2*%
%TO.N,/Block Diagram/Schematic/Vref*%
X100588504Y-91952284D03*
%TD*%
D11*
%TO.P,D3,1,K*%
%TO.N,GND*%
X101143504Y-88142284D03*
D12*
%TO.P,D3,2,A*%
%TO.N,/Block Diagram/Schematic/Emm*%
X103683504Y-88142284D03*
%TD*%
D10*
%TO.P,R10,1*%
%TO.N,Net-(R10-Pad1)*%
X143687800Y-96494600D03*
%TO.P,R10,2*%
%TO.N,/Block Diagram/Schematic/Vout+*%
X156387800Y-96494600D03*
%TD*%
D13*
%TO.P,J1,1,Pin_1*%
%TO.N,/Block Diagram/Schematic/Vout+*%
X171882504Y-82441284D03*
D14*
%TO.P,J1,2,Pin_2*%
%TO.N,GND*%
X171882504Y-77441284D03*
%TO.P,J1,3,Pin_3*%
%TO.N,/Block Diagram/Schematic/Vin+*%
X171882504Y-72441284D03*
%TO.P,J1,4,Pin_4*%
%TO.N,/Block Diagram/Schematic/Vin-*%
X171882504Y-67441284D03*
%TD*%
D10*
%TO.P,R4,1*%
%TO.N,Net-(R4-Pad1)*%
X129083504Y-93222284D03*
%TO.P,R4,2*%
%TO.N,GND*%
X129083504Y-85602284D03*
%TD*%
%TO.P,R5,1*%
%TO.N,/Block Diagram/Schematic/RT_CT*%
X122098504Y-90047284D03*
%TO.P,R5,2*%
%TO.N,/Block Diagram/Schematic/Vref*%
X122098504Y-82427284D03*
%TD*%
%TO.P,C5,1*%
%TO.N,/Block Diagram/Schematic/Vref*%
X116383504Y-76712284D03*
%TO.P,C5,2*%
%TO.N,GND*%
X116383504Y-71712284D03*
%TD*%
%TO.P,C8,1*%
%TO.N,/Block Diagram/Schematic/Vout+*%
X169260827Y-90682284D03*
%TO.P,C8,2*%
%TO.N,GND*%
X174260827Y-90682284D03*
%TD*%
D15*
%TO.P,TR1,1*%
%TO.N,/Block Diagram/Schematic/SW*%
X138100504Y-66933284D03*
D16*
%TO.P,TR1,2*%
X138100504Y-72013284D03*
%TO.P,TR1,3*%
%TO.N,N/C*%
X138100504Y-77093284D03*
%TO.P,TR1,4*%
X138100504Y-82173284D03*
%TO.P,TR1,5*%
%TO.N,/Block Diagram/Schematic/Vin+*%
X138100504Y-87253284D03*
%TO.P,TR1,6*%
%TO.N,N/C*%
X138100504Y-92333284D03*
%TO.P,TR1,7*%
%TO.N,/Block Diagram/Schematic/Out_trafo*%
X163500504Y-92333284D03*
%TO.P,TR1,8*%
%TO.N,N/C*%
X163500504Y-87253284D03*
%TO.P,TR1,9*%
X163500504Y-82173284D03*
%TO.P,TR1,10*%
X163500504Y-77093284D03*
%TO.P,TR1,11*%
X163500504Y-72013284D03*
%TO.P,TR1,12*%
X163500504Y-66933284D03*
%TD*%
D17*
%TO.P,Q1,1,G*%
%TO.N,/Block Diagram/Schematic/G*%
X115748504Y-58992284D03*
D18*
%TO.P,Q1,2,D*%
%TO.N,/Block Diagram/Schematic/SW*%
X118288504Y-58992284D03*
%TO.P,Q1,3,S*%
%TO.N,/Block Diagram/Schematic/Src*%
X120828504Y-58992284D03*
%TD*%
D10*
%TO.P,R9,1*%
%TO.N,/Block Diagram/Schematic/Src*%
X120828504Y-64012284D03*
%TO.P,R9,2*%
%TO.N,GND*%
X105588504Y-64012284D03*
%TD*%
%TO.P,C3,1*%
%TO.N,/Block Diagram/Schematic/RT_CT*%
X125273504Y-90007284D03*
%TO.P,C3,2*%
%TO.N,GND*%
X125273504Y-85007284D03*
%TD*%
%TO.P,C2,1*%
%TO.N,/Block Diagram/Schematic/Comp*%
X108128504Y-90642284D03*
%TO.P,C2,2*%
%TO.N,/Block Diagram/Schematic/Vfb*%
X108128504Y-85642284D03*
%TD*%
D19*
%TO.P,Q3,1,E*%
%TO.N,/Block Diagram/Schematic/Emm*%
X105588504Y-95402284D03*
D20*
%TO.P,Q3,2,B*%
%TO.N,/Block Diagram/Schematic/B*%
X103048504Y-95402284D03*
%TO.P,Q3,3,C*%
%TO.N,/Block Diagram/Schematic/Vin+*%
X100508504Y-95402284D03*
%TD*%
D10*
%TO.P,R3,1*%
%TO.N,/Block Diagram/Schematic/Comp*%
X108763504Y-92587284D03*
%TO.P,R3,2*%
%TO.N,/Block Diagram/Schematic/Vfb*%
X116383504Y-92587284D03*
%TD*%
D21*
%TO.P,U1,1,COMP*%
%TO.N,/Block Diagram/Schematic/Comp*%
X110998000Y-90165000D03*
D10*
%TO.P,U1,2,VFB*%
%TO.N,/Block Diagram/Schematic/Vfb*%
X113538000Y-90165000D03*
%TO.P,U1,3,ISENSE*%
%TO.N,/Block Diagram/Schematic/Isns*%
X116078000Y-90165000D03*
%TO.P,U1,4,RT_CT*%
%TO.N,/Block Diagram/Schematic/RT_CT*%
X118618000Y-90165000D03*
%TO.P,U1,5,GND*%
%TO.N,GND*%
X118618000Y-82545000D03*
%TO.P,U1,6,OUTPUT*%
%TO.N,Net-(D2-K)*%
X116078000Y-82545000D03*
%TO.P,U1,7,VCC*%
%TO.N,/Block Diagram/Schematic/Vin+*%
X113538000Y-82545000D03*
%TO.P,U1,8,VREF*%
%TO.N,/Block Diagram/Schematic/Vref*%
X110998000Y-82545000D03*
%TD*%
%TO.P,C6,1*%
%TO.N,/Block Diagram/Schematic/Vin+*%
X100125853Y-72902284D03*
%TO.P,C6,2*%
%TO.N,GND*%
X103625853Y-72902284D03*
%TD*%
%TO.P,C9,1*%
%TO.N,/Block Diagram/Schematic/Out_trafo*%
X158583000Y-91897200D03*
%TO.P,C9,2*%
%TO.N,/Block Diagram/Schematic/Vout+*%
X153583000Y-91897200D03*
%TD*%
%TO.P,R8,1*%
%TO.N,Net-(D2-K)*%
X110033504Y-76712284D03*
%TO.P,R8,2*%
%TO.N,/Block Diagram/Schematic/G*%
X110033504Y-69092284D03*
%TD*%
%TO.P,R6,1*%
%TO.N,/Block Diagram/Schematic/Isns*%
X122733504Y-77347284D03*
%TO.P,R6,2*%
%TO.N,/Block Diagram/Schematic/Src*%
X122733504Y-64647284D03*
%TD*%
%TO.P,R13,1*%
%TO.N,Net-(Q2-G)*%
X126543504Y-64647284D03*
%TO.P,R13,2*%
%TO.N,GND*%
X126543504Y-72267284D03*
%TD*%
%TO.P,R2,1*%
%TO.N,/Block Diagram/Schematic/Vfb*%
X116383504Y-95127284D03*
%TO.P,R2,2*%
%TO.N,/Block Diagram/Schematic/Emm*%
X108763504Y-95127284D03*
%TD*%
D22*
%TO.P,F1,1*%
%TO.N,/Block Diagram/Schematic/Vin-*%
X170598504Y-61472284D03*
X163838504Y-61472284D03*
D23*
%TO.P,F1,2*%
%TO.N,Net-(Q2-D)*%
X156558504Y-61472284D03*
X149798504Y-61472284D03*
%TD*%
D10*
%TO.P,R12,1*%
%TO.N,/Block Diagram/Schematic/Emm*%
X104953504Y-85602284D03*
%TO.P,R12,2*%
%TO.N,GND*%
X104953504Y-77982284D03*
%TD*%
D24*
%TO.P,VR1,1,1*%
%TO.N,Net-(R4-Pad1)*%
X124638504Y-94487284D03*
%TO.P,VR1,2,2*%
X122098504Y-94487284D03*
%TO.P,VR1,3,3*%
%TO.N,/Block Diagram/Schematic/B*%
X119558504Y-94487284D03*
%TD*%
D17*
%TO.P,Q2,1,G*%
%TO.N,Net-(Q2-G)*%
X135433504Y-58992284D03*
D18*
%TO.P,Q2,2,D*%
%TO.N,Net-(Q2-D)*%
X137973504Y-58992284D03*
%TO.P,Q2,3,S*%
%TO.N,GND*%
X140513504Y-58992284D03*
%TD*%
D10*
%TO.P,R7,1*%
%TO.N,/Block Diagram/Schematic/G*%
X113208504Y-69092284D03*
%TO.P,R7,2*%
%TO.N,GND*%
X113208504Y-76712284D03*
%TD*%
D25*
%TO.P,D2,1,K*%
%TO.N,Net-(D2-K)*%
X107315000Y-76835000D03*
D12*
%TO.P,D2,2,A*%
%TO.N,/Block Diagram/Schematic/G*%
X107315000Y-69215000D03*
%TD*%
D26*
%TO.P,D4,1,K*%
%TO.N,/Block Diagram/Schematic/Vout+*%
X159563504Y-96397284D03*
D12*
%TO.P,D4,2,A*%
%TO.N,/Block Diagram/Schematic/Out_trafo*%
X169723504Y-96397284D03*
%TD*%
D10*
%TO.P,R14,1*%
%TO.N,Net-(Q2-G)*%
X110668504Y-60202284D03*
%TO.P,R14,2*%
%TO.N,/Block Diagram/Schematic/Vin+*%
X103048504Y-60202284D03*
%TD*%
%TO.P,C7,1*%
%TO.N,/Block Diagram/Schematic/Vin+*%
X130048000Y-80984961D03*
%TO.P,C7,2*%
%TO.N,GND*%
X130048000Y-75984961D03*
%TD*%
D27*
%TO.N,GND*%
X102413504Y-84967284D03*
X102413504Y-77982284D03*
%TD*%
D28*
%TO.N,/Block Diagram/Schematic/Vin+*%
X97333504Y-80522284D02*
X97333504Y-93857284D01*
X97333504Y-80522284D02*
X97333504Y-72902284D01*
X97333504Y-72902284D02*
X97333504Y-61472284D01*
X98603504Y-60202284D02*
X103048504Y-60202284D01*
X132893504Y-95762284D02*
X132893504Y-84332284D01*
X129083504Y-99572284D02*
X132893504Y-95762284D01*
X97333504Y-93857284D02*
X103048504Y-99572284D01*
X111943504Y-80522284D02*
X97333504Y-80522284D01*
X132893504Y-84332284D02*
X130048000Y-81486780D01*
X130048000Y-81486780D02*
X130048000Y-80984961D01*
X103048504Y-99572284D02*
X129083504Y-99572284D01*
X113843504Y-82422284D02*
X111943504Y-80522284D01*
X97333504Y-61472284D02*
X98603504Y-60202284D01*
X100125853Y-72902284D02*
X97333504Y-72902284D01*
%TO.N,/Block Diagram/Schematic/Vref*%
X111303504Y-82422284D02*
X111303504Y-83062284D01*
X99238504Y-84967284D02*
X101783504Y-82422284D01*
X99238504Y-90682284D02*
X99238504Y-84967284D01*
X111303504Y-83062284D02*
X112573504Y-84332284D01*
X100588504Y-91952284D02*
X100508504Y-91952284D01*
X112573504Y-84332284D02*
X121463504Y-84332284D01*
X122098504Y-82427284D02*
X116383504Y-76712284D01*
X121463504Y-84332284D02*
X122098504Y-83697284D01*
X101783504Y-82422284D02*
X111303504Y-82422284D01*
X100508504Y-91952284D02*
X99238504Y-90682284D01*
X122098504Y-83697284D02*
X122098504Y-82427284D01*
%TO.N,/Block Diagram/Schematic/Comp*%
X109398504Y-91952284D02*
X108763504Y-92587284D01*
X111303504Y-90047284D02*
X109398504Y-91952284D01*
X108128504Y-90642284D02*
X109398504Y-91912284D01*
X109398504Y-91912284D02*
X109398504Y-91952284D01*
X111303504Y-90042284D02*
X111303504Y-90047284D01*
%TO.N,/Block Diagram/Schematic/Vfb*%
X108128504Y-85642284D02*
X112613504Y-85642284D01*
X113843504Y-90042284D02*
X113843504Y-92587284D01*
X112613504Y-85642284D02*
X113843504Y-86872284D01*
X113843504Y-92587284D02*
X115113504Y-93857284D01*
X113843504Y-86872284D02*
X113843504Y-90042284D01*
X116383504Y-92587284D02*
X115113504Y-93857284D01*
X115113504Y-93857284D02*
X116383504Y-95127284D01*
%TO.N,/Block Diagram/Schematic/Vout+*%
X169260827Y-84967284D02*
X169260827Y-90682284D01*
X159563504Y-96397284D02*
X156485116Y-96397284D01*
X156485116Y-96397284D02*
X156387800Y-96494600D01*
X158293504Y-84967284D02*
X169260827Y-84967284D01*
X156387800Y-96396580D02*
X153848504Y-93857284D01*
X153848504Y-89412284D02*
X158293504Y-84967284D01*
X169356504Y-84967284D02*
X171882504Y-82441284D01*
X156387800Y-96494600D02*
X156387800Y-96396580D01*
X153848504Y-93857284D02*
X153848504Y-89412284D01*
X169260827Y-84967284D02*
X169356504Y-84967284D01*
%TO.N,/Block Diagram/Schematic/RT_CT*%
X125273504Y-90007284D02*
X118958504Y-90007284D01*
X118958504Y-90007284D02*
X118923504Y-90042284D01*
%TO.N,/Block Diagram/Schematic/Isns*%
X123368504Y-85602284D02*
X123368504Y-84332284D01*
X123368504Y-84332284D02*
X124003504Y-83697284D01*
X116383504Y-90042284D02*
X116383504Y-88142284D01*
X118288504Y-86237284D02*
X122733504Y-86237284D01*
X124003504Y-83697284D02*
X124003504Y-78617284D01*
X122733504Y-86237284D02*
X123368504Y-85602284D01*
X124003504Y-78617284D02*
X122733504Y-77347284D01*
X116383504Y-88142284D02*
X118288504Y-86237284D01*
X122733504Y-77347284D02*
X119598504Y-77347284D01*
X119598504Y-77347284D02*
X118923504Y-76672284D01*
%TO.N,/Block Diagram/Schematic/Emm*%
X105588504Y-91952284D02*
X105588504Y-88142284D01*
X105588504Y-86237284D02*
X104953504Y-85602284D01*
X108763504Y-95127284D02*
X105863504Y-95127284D01*
X105588504Y-88142284D02*
X105588504Y-86237284D01*
X105588504Y-91952284D02*
X105588504Y-95402284D01*
X103683504Y-88142284D02*
X105588504Y-88142284D01*
X105863504Y-95127284D02*
X105588504Y-95402284D01*
%TO.N,/Block Diagram/Schematic/Out_trafo*%
X163500504Y-92333284D02*
X167564504Y-96397284D01*
X159019084Y-92333284D02*
X158583000Y-91897200D01*
X163500504Y-92333284D02*
X159019084Y-92333284D01*
X167564504Y-96397284D02*
X169723504Y-96397284D01*
%TO.N,/Block Diagram/Schematic/Vin-*%
X170598504Y-61472284D02*
X163838504Y-61472284D01*
X171882504Y-62756284D02*
X171882504Y-67441284D01*
X170598504Y-61472284D02*
X171882504Y-62756284D01*
%TO.N,/Block Diagram/Schematic/Src*%
X120828504Y-58992284D02*
X120828504Y-64012284D01*
X122733504Y-64647284D02*
X121463504Y-64647284D01*
X121463504Y-64647284D02*
X120828504Y-64012284D01*
%TO.N,/Block Diagram/Schematic/G*%
X113208504Y-62107284D02*
X113208504Y-69092284D01*
X110033504Y-69092284D02*
X107437716Y-69092284D01*
X115748504Y-59567284D02*
X113208504Y-62107284D01*
X110033504Y-69092284D02*
X113208504Y-69092284D01*
X115748504Y-58992284D02*
X115748504Y-59567284D01*
X107437716Y-69092284D02*
X107315000Y-69215000D01*
%TO.N,/Block Diagram/Schematic/B*%
X127716188Y-96494600D02*
X127178504Y-97032284D01*
X128168400Y-96494600D02*
X127716188Y-96494600D01*
X119558504Y-97032284D02*
X119558504Y-94487284D01*
X104678504Y-97032284D02*
X103048504Y-95402284D01*
X119558504Y-97032284D02*
X104678504Y-97032284D01*
X127178504Y-97032284D02*
X119558504Y-97032284D01*
%TO.N,GND*%
X123448504Y-71712284D02*
X116383504Y-71712284D01*
X105588504Y-72902284D02*
X113208504Y-72902284D01*
X104953504Y-77982284D02*
X102413504Y-77982284D01*
X125273504Y-76077284D02*
X125273504Y-72267284D01*
X176073504Y-88869607D02*
X176073504Y-59567284D01*
X141843504Y-57662284D02*
X140513504Y-58992284D01*
X102413504Y-84967284D02*
X101143504Y-86237284D01*
X125273504Y-85007284D02*
X125273504Y-76077284D01*
X174260827Y-90682284D02*
X176073504Y-88869607D01*
X118918504Y-82422284D02*
X113208504Y-76712284D01*
X176073504Y-59567284D02*
X174168504Y-57662284D01*
X148133504Y-76077284D02*
X148041181Y-75984961D01*
X118923504Y-82422284D02*
X118918504Y-82422284D01*
X148041181Y-75984961D02*
X130048000Y-75984961D01*
X105588504Y-64012284D02*
X105588504Y-72902284D01*
X130048000Y-75984961D02*
X125365827Y-75984961D01*
X113208504Y-72267284D02*
X113763504Y-71712284D01*
X104953504Y-72902284D02*
X105588504Y-72902284D01*
X101143504Y-86237284D02*
X101143504Y-88142284D01*
X113763504Y-71712284D02*
X116383504Y-71712284D01*
X125365827Y-75984961D02*
X125273504Y-76077284D01*
X160833504Y-63377284D02*
X148133504Y-76077284D01*
X103625853Y-72902284D02*
X104953504Y-72902284D01*
X125868504Y-85602284D02*
X125273504Y-85007284D01*
X113208504Y-72902284D02*
X113208504Y-72267284D01*
X104953504Y-77982284D02*
X104953504Y-72902284D01*
X113208504Y-76712284D02*
X113208504Y-72902284D01*
X160833504Y-57662284D02*
X160833504Y-63377284D01*
X125273504Y-72267284D02*
X126543504Y-72267284D01*
X124003504Y-72267284D02*
X123448504Y-71712284D01*
X129083504Y-85602284D02*
X125868504Y-85602284D01*
X174168504Y-57662284D02*
X160833504Y-57662284D01*
X125273504Y-72267284D02*
X124003504Y-72267284D01*
X160833504Y-57662284D02*
X141843504Y-57662284D01*
%TO.N,Net-(R10-Pad1)*%
X143687800Y-96494600D02*
X143590484Y-96397284D01*
X143590484Y-96397284D02*
X140965716Y-96397284D01*
X140965716Y-96397284D02*
X140868400Y-96494600D01*
%TO.N,Net-(R4-Pad1)*%
X122098504Y-94487284D02*
X126548504Y-94487284D01*
X126548504Y-94487284D02*
X127813504Y-93222284D01*
X127813504Y-93222284D02*
X129083504Y-93222284D01*
%TO.N,Net-(Q2-G)*%
X135433504Y-58992284D02*
X132833504Y-56392284D01*
X126543504Y-56392284D02*
X126543504Y-64647284D01*
X113208504Y-56392284D02*
X126543504Y-56392284D01*
X110668504Y-60202284D02*
X110668504Y-58932284D01*
X110668504Y-58932284D02*
X113208504Y-56392284D01*
X132833504Y-56392284D02*
X126543504Y-56392284D01*
%TO.N,Net-(D2-K)*%
X116383504Y-82422284D02*
X110673504Y-76712284D01*
X107437716Y-76712284D02*
X107315000Y-76835000D01*
X110673504Y-76712284D02*
X110033504Y-76712284D01*
X110033504Y-76712284D02*
X107437716Y-76712284D01*
%TO.N,Net-(Q2-D)*%
X146228504Y-61472284D02*
X156558504Y-61472284D01*
X137973504Y-61472284D02*
X138608504Y-62107284D01*
X138608504Y-62107284D02*
X145593504Y-62107284D01*
X145593504Y-62107284D02*
X146228504Y-61472284D01*
X137973504Y-58992284D02*
X137973504Y-61472284D01*
%TD*%
%TA.AperFunction,NonConductor*%
G36*
X138878181Y-57554969D02*
G01*
X138898823Y-57571603D01*
X139080185Y-57752965D01*
X139113670Y-57814288D01*
X139116504Y-57840646D01*
X139116504Y-58174755D01*
X139096819Y-58241794D01*
X139044015Y-58287549D01*
X138974857Y-58297493D01*
X138911301Y-58268468D01*
X138892186Y-58247641D01*
X138862221Y-58206398D01*
X138852963Y-58193655D01*
X138724633Y-58065325D01*
X138577808Y-57958650D01*
X138574697Y-57957065D01*
X138416099Y-57876255D01*
X138243502Y-57820175D01*
X138109060Y-57798881D01*
X138064247Y-57791784D01*
X137882761Y-57791784D01*
X137823010Y-57801247D01*
X137703507Y-57820175D01*
X137703504Y-57820175D01*
X137530908Y-57876255D01*
X137369199Y-57958650D01*
X137281390Y-58022448D01*
X137269529Y-58026679D01*
X137260015Y-58034924D01*
X137237249Y-58038197D01*
X137215583Y-58045928D01*
X137203318Y-58043076D01*
X137190857Y-58044868D01*
X137169934Y-58035313D01*
X137147529Y-58030103D01*
X137138753Y-58021073D01*
X137127301Y-58015843D01*
X137114865Y-57996493D01*
X137098834Y-57979997D01*
X137095429Y-57966249D01*
X137089527Y-57957065D01*
X137084504Y-57922130D01*
X137084504Y-57840646D01*
X137104189Y-57773607D01*
X137120823Y-57752965D01*
X137302185Y-57571603D01*
X137363508Y-57538118D01*
X137389866Y-57535284D01*
X138811142Y-57535284D01*
X138878181Y-57554969D01*
G37*
%TD.AperFunction*%
%TA.AperFunction,NonConductor*%
G36*
X155873120Y-59823078D02*
G01*
X155879382Y-59821903D01*
X155906241Y-59832804D01*
X155934047Y-59840969D01*
X155938217Y-59845782D01*
X155944123Y-59848179D01*
X155960827Y-59871875D01*
X155979802Y-59893773D01*
X155980708Y-59900077D01*
X155984380Y-59905286D01*
X155985621Y-59934244D01*
X155989746Y-59962931D01*
X155987099Y-59968726D01*
X155987372Y-59975091D01*
X155972762Y-60000120D01*
X155960721Y-60026487D01*
X155954555Y-60031311D01*
X155952150Y-60035433D01*
X155923303Y-60055769D01*
X155745861Y-60146180D01*
X155548427Y-60289623D01*
X155548422Y-60289627D01*
X155375847Y-60462202D01*
X155375843Y-60462207D01*
X155232405Y-60659634D01*
X155232396Y-60659648D01*
X155209759Y-60704078D01*
X155161785Y-60754874D01*
X155099274Y-60771784D01*
X151257734Y-60771784D01*
X151190695Y-60752099D01*
X151147249Y-60704078D01*
X151124610Y-60659645D01*
X151122820Y-60657182D01*
X150981164Y-60462207D01*
X150981160Y-60462202D01*
X150808585Y-60289627D01*
X150808580Y-60289623D01*
X150611146Y-60146180D01*
X150611145Y-60146179D01*
X150611143Y-60146178D01*
X150433705Y-60055769D01*
X150382909Y-60007794D01*
X150366114Y-59939973D01*
X150388651Y-59873839D01*
X150443366Y-59830387D01*
X150490000Y-59821284D01*
X155867008Y-59821284D01*
X155873120Y-59823078D01*
G37*
%TD.AperFunction*%
%TA.AperFunction,NonConductor*%
G36*
X139078924Y-59720888D02*
G01*
X139113281Y-59781726D01*
X139116504Y-59809812D01*
X139116504Y-60075284D01*
X139878504Y-60837284D01*
X144958504Y-60837284D01*
X145938185Y-59857603D01*
X145999508Y-59824118D01*
X146025866Y-59821284D01*
X149107008Y-59821284D01*
X149174047Y-59840969D01*
X149219802Y-59893773D01*
X149229746Y-59962931D01*
X149200721Y-60026487D01*
X149163303Y-60055769D01*
X148985861Y-60146180D01*
X148788427Y-60289623D01*
X148788422Y-60289627D01*
X148615847Y-60462202D01*
X148615843Y-60462207D01*
X148472405Y-60659634D01*
X148472396Y-60659648D01*
X148449759Y-60704078D01*
X148401785Y-60754874D01*
X148339274Y-60771784D01*
X146159508Y-60771784D01*
X146024181Y-60798702D01*
X146024171Y-60798705D01*
X145896696Y-60851506D01*
X145781958Y-60928171D01*
X145781957Y-60928172D01*
X145339666Y-61370465D01*
X145278343Y-61403950D01*
X145251985Y-61406784D01*
X138950023Y-61406784D01*
X138920582Y-61398139D01*
X138890596Y-61391616D01*
X138885580Y-61387861D01*
X138882984Y-61387099D01*
X138862342Y-61370465D01*
X138710323Y-61218446D01*
X138676838Y-61157123D01*
X138674004Y-61130765D01*
X138674004Y-60019208D01*
X138693689Y-59952169D01*
X138721335Y-59922900D01*
X138720920Y-59922415D01*
X138724627Y-59919247D01*
X138724633Y-59919243D01*
X138852963Y-59790913D01*
X138892186Y-59736926D01*
X138947516Y-59694261D01*
X139017129Y-59688282D01*
X139078924Y-59720888D01*
G37*
%TD.AperFunction*%
%TA.AperFunction,NonConductor*%
G36*
X158219701Y-60903354D02*
G01*
X158259113Y-60929893D01*
X158384185Y-61054965D01*
X158417670Y-61116288D01*
X158420504Y-61142646D01*
X158420504Y-63071922D01*
X158400819Y-63138961D01*
X158384185Y-63159603D01*
X155916823Y-65626965D01*
X155855500Y-65660450D01*
X155829142Y-65663284D01*
X139675866Y-65663284D01*
X139608827Y-65643599D01*
X139588185Y-65626965D01*
X137120823Y-63159603D01*
X137087338Y-63098280D01*
X137084504Y-63071922D01*
X137084504Y-61779932D01*
X137104189Y-61712893D01*
X137156993Y-61667138D01*
X137226151Y-61657194D01*
X137289707Y-61686219D01*
X137323065Y-61732480D01*
X137352729Y-61804095D01*
X137403836Y-61880583D01*
X137429391Y-61918829D01*
X138161958Y-62651396D01*
X138276696Y-62728061D01*
X138404171Y-62780862D01*
X138404176Y-62780864D01*
X138404180Y-62780864D01*
X138404181Y-62780865D01*
X138539507Y-62807784D01*
X138539510Y-62807784D01*
X145662500Y-62807784D01*
X145753544Y-62789673D01*
X145797832Y-62780864D01*
X145861573Y-62754461D01*
X145925311Y-62728061D01*
X145925312Y-62728060D01*
X145925315Y-62728059D01*
X146040047Y-62651398D01*
X146482342Y-62209103D01*
X146543665Y-62175618D01*
X146570023Y-62172784D01*
X148339274Y-62172784D01*
X148406313Y-62192469D01*
X148449757Y-62240488D01*
X148472398Y-62284923D01*
X148472402Y-62284929D01*
X148472405Y-62284933D01*
X148615843Y-62482360D01*
X148615847Y-62482365D01*
X148788422Y-62654940D01*
X148788427Y-62654944D01*
X148960640Y-62780063D01*
X148985865Y-62798390D01*
X149203319Y-62909188D01*
X149435428Y-62984605D01*
X149676477Y-63022784D01*
X149676478Y-63022784D01*
X149920530Y-63022784D01*
X149920531Y-63022784D01*
X150161580Y-62984605D01*
X150393689Y-62909188D01*
X150611143Y-62798390D01*
X150808587Y-62654939D01*
X150981159Y-62482367D01*
X151124610Y-62284923D01*
X151147250Y-62240488D01*
X151195223Y-62189694D01*
X151257734Y-62172784D01*
X155099274Y-62172784D01*
X155166313Y-62192469D01*
X155209757Y-62240488D01*
X155232398Y-62284923D01*
X155232402Y-62284929D01*
X155232405Y-62284933D01*
X155375843Y-62482360D01*
X155375847Y-62482365D01*
X155548422Y-62654940D01*
X155548427Y-62654944D01*
X155720640Y-62780063D01*
X155745865Y-62798390D01*
X155963319Y-62909188D01*
X156195428Y-62984605D01*
X156436477Y-63022784D01*
X156436478Y-63022784D01*
X156680530Y-63022784D01*
X156680531Y-63022784D01*
X156921580Y-62984605D01*
X157153689Y-62909188D01*
X157371143Y-62798390D01*
X157568587Y-62654939D01*
X157741159Y-62482367D01*
X157884610Y-62284923D01*
X157995408Y-62067469D01*
X158070825Y-61835360D01*
X158109004Y-61594311D01*
X158109004Y-61350257D01*
X158070825Y-61109208D01*
X158053500Y-61055890D01*
X158051506Y-60986051D01*
X158087586Y-60926218D01*
X158150287Y-60895390D01*
X158219701Y-60903354D01*
G37*
%TD.AperFunction*%
%TA.AperFunction,Conductor*%
%TO.N,GND*%
G36*
X174184181Y-56538969D02*
G01*
X174204823Y-56555603D01*
X177180185Y-59530965D01*
X177213670Y-59592288D01*
X177216504Y-59618646D01*
X177216504Y-93043922D01*
X177196819Y-93110961D01*
X177180185Y-93131603D01*
X176490823Y-93820965D01*
X176429500Y-93854450D01*
X176403142Y-93857284D01*
X173457866Y-93857284D01*
X173390827Y-93837599D01*
X173370185Y-93820965D01*
X172426823Y-92877603D01*
X172393338Y-92816280D01*
X172390504Y-92789922D01*
X172390504Y-88574646D01*
X172410189Y-88507607D01*
X172426823Y-88486965D01*
X173711866Y-87201922D01*
X175184504Y-85729284D01*
X175184504Y-81157284D01*
X173152504Y-79125284D01*
X171171866Y-79125284D01*
X171104827Y-79105599D01*
X171084185Y-79088965D01*
X170394823Y-78399603D01*
X170361338Y-78338280D01*
X170358504Y-78311922D01*
X170358504Y-75874646D01*
X170378189Y-75807607D01*
X170394823Y-75786965D01*
X171338185Y-74843603D01*
X171399508Y-74810118D01*
X171425866Y-74807284D01*
X173914504Y-74807284D01*
X175184504Y-73537284D01*
X175184504Y-60583284D01*
X173660504Y-59059284D01*
X163754503Y-59059284D01*
X162841121Y-59972665D01*
X162808535Y-59996072D01*
X162689208Y-60055253D01*
X162540782Y-60174561D01*
X162540781Y-60174562D01*
X162421473Y-60322988D01*
X162362293Y-60442313D01*
X162338887Y-60474898D01*
X162230504Y-60583282D01*
X162230504Y-64849922D01*
X162210819Y-64916961D01*
X162194185Y-64937603D01*
X148296823Y-78834965D01*
X148235500Y-78868450D01*
X148209142Y-78871284D01*
X127432503Y-78871284D01*
X126416504Y-79887283D01*
X126416504Y-79887284D01*
X126416504Y-82681284D01*
X127940504Y-84205284D01*
X128905142Y-84205284D01*
X128972181Y-84224969D01*
X128992823Y-84241603D01*
X130190185Y-85438965D01*
X130223670Y-85500288D01*
X130226504Y-85526646D01*
X130226504Y-87201922D01*
X130206819Y-87268961D01*
X130190185Y-87289603D01*
X129754823Y-87724965D01*
X129693500Y-87758450D01*
X129667142Y-87761284D01*
X124943866Y-87761284D01*
X124876827Y-87741599D01*
X124856185Y-87724965D01*
X124420823Y-87289603D01*
X124387338Y-87228280D01*
X124384504Y-87201922D01*
X124384504Y-84764646D01*
X124404189Y-84697607D01*
X124420823Y-84676965D01*
X124638504Y-84459284D01*
X124638504Y-84019417D01*
X124647943Y-83971964D01*
X124661626Y-83938930D01*
X124677084Y-83901612D01*
X124704004Y-83766278D01*
X124704004Y-83628290D01*
X124704004Y-78548291D01*
X124704004Y-78548288D01*
X124677085Y-78412961D01*
X124677084Y-78412960D01*
X124677084Y-78412956D01*
X124647943Y-78342602D01*
X124638504Y-78295150D01*
X124638504Y-76998797D01*
X136900004Y-76998797D01*
X136900004Y-77187770D01*
X136929563Y-77374402D01*
X136987958Y-77554120D01*
X137028830Y-77634335D01*
X137073744Y-77722483D01*
X137184814Y-77875357D01*
X137318431Y-78008974D01*
X137471305Y-78120044D01*
X137550851Y-78160574D01*
X137639667Y-78205829D01*
X137639669Y-78205829D01*
X137639672Y-78205831D01*
X137726108Y-78233916D01*
X137819385Y-78264224D01*
X138006018Y-78293784D01*
X138006023Y-78293784D01*
X138194990Y-78293784D01*
X138381622Y-78264224D01*
X138561336Y-78205831D01*
X138729703Y-78120044D01*
X138882577Y-78008974D01*
X139016194Y-77875357D01*
X139127264Y-77722483D01*
X139213051Y-77554116D01*
X139271444Y-77374402D01*
X139278222Y-77331607D01*
X139301004Y-77187770D01*
X139301004Y-76998797D01*
X139271444Y-76812165D01*
X139238086Y-76709502D01*
X139213051Y-76632452D01*
X139213049Y-76632449D01*
X139213049Y-76632447D01*
X139127263Y-76464084D01*
X139016194Y-76311211D01*
X138882577Y-76177594D01*
X138729703Y-76066524D01*
X138561340Y-75980738D01*
X138381622Y-75922343D01*
X138194990Y-75892784D01*
X138194985Y-75892784D01*
X138006023Y-75892784D01*
X138006018Y-75892784D01*
X137819385Y-75922343D01*
X137639667Y-75980738D01*
X137471304Y-76066524D01*
X137424815Y-76100301D01*
X137318431Y-76177594D01*
X137318429Y-76177596D01*
X137318428Y-76177596D01*
X137184816Y-76311208D01*
X137184816Y-76311209D01*
X137184814Y-76311211D01*
X137170230Y-76331284D01*
X137073744Y-76464084D01*
X136987958Y-76632447D01*
X136929563Y-76812165D01*
X136900004Y-76998797D01*
X124638504Y-76998797D01*
X124638504Y-76331284D01*
X123368504Y-75061284D01*
X115240504Y-75061284D01*
X115240503Y-75061284D01*
X114224504Y-76077283D01*
X114224504Y-77295922D01*
X114204819Y-77362961D01*
X114188185Y-77383603D01*
X113752823Y-77818965D01*
X113691500Y-77852450D01*
X113665142Y-77855284D01*
X113259866Y-77855284D01*
X113192827Y-77835599D01*
X113172185Y-77818965D01*
X112482823Y-77129603D01*
X112449338Y-77068280D01*
X112446504Y-77041922D01*
X112446504Y-76077284D01*
X111430504Y-75061284D01*
X106858504Y-75061284D01*
X106858503Y-75061284D01*
X106350504Y-75569283D01*
X106350504Y-75811676D01*
X106330819Y-75878715D01*
X106326274Y-75885309D01*
X106262209Y-75972113D01*
X106262206Y-75972119D01*
X106217353Y-76100298D01*
X106217353Y-76100300D01*
X106214500Y-76130730D01*
X106214500Y-77539269D01*
X106217353Y-77569699D01*
X106217353Y-77569701D01*
X106262206Y-77697880D01*
X106262209Y-77697886D01*
X106326274Y-77784691D01*
X106350245Y-77850320D01*
X106350504Y-77858324D01*
X106350504Y-78819922D01*
X106330819Y-78886961D01*
X106314185Y-78907603D01*
X105878823Y-79342965D01*
X105817500Y-79376450D01*
X105791142Y-79379284D01*
X101829866Y-79379284D01*
X101762827Y-79359599D01*
X101742185Y-79342965D01*
X101306823Y-78907603D01*
X101273338Y-78846280D01*
X101270504Y-78819922D01*
X101270504Y-77398646D01*
X101290189Y-77331607D01*
X101306823Y-77310965D01*
X101618991Y-76998797D01*
X102032504Y-76585284D01*
X102032504Y-69727284D01*
X99274823Y-66969603D01*
X99241338Y-66908280D01*
X99238504Y-66881922D01*
X99238504Y-62920646D01*
X99258189Y-62853607D01*
X99274823Y-62832965D01*
X99710185Y-62397603D01*
X99771508Y-62364118D01*
X99797866Y-62361284D01*
X106299142Y-62361284D01*
X106366181Y-62380969D01*
X106386823Y-62397603D01*
X107330185Y-63340965D01*
X107363670Y-63402288D01*
X107366504Y-63428646D01*
X107366504Y-66119922D01*
X107346819Y-66186961D01*
X107330185Y-66207603D01*
X106096504Y-67441283D01*
X106096504Y-67441284D01*
X106096504Y-70235284D01*
X106858504Y-70997284D01*
X130683142Y-70997284D01*
X130750181Y-71016969D01*
X130770823Y-71033603D01*
X134290504Y-74553284D01*
X139624504Y-74553284D01*
X141402504Y-72775284D01*
X141402504Y-68508646D01*
X141422189Y-68441607D01*
X141438823Y-68420965D01*
X142890185Y-66969603D01*
X142951508Y-66936118D01*
X142977866Y-66933284D01*
X155626504Y-66933284D01*
X158928504Y-63631284D01*
X158928504Y-60329284D01*
X157912504Y-59313284D01*
X145466503Y-59313284D01*
X144486823Y-60292965D01*
X144425500Y-60326450D01*
X144399142Y-60329284D01*
X140183866Y-60329284D01*
X140116827Y-60309599D01*
X140096185Y-60292965D01*
X139406823Y-59603603D01*
X139373338Y-59542280D01*
X139370504Y-59515922D01*
X139370504Y-58094646D01*
X139390189Y-58027607D01*
X139406823Y-58006965D01*
X140858185Y-56555603D01*
X140919508Y-56522118D01*
X140945866Y-56519284D01*
X174117142Y-56519284D01*
X174184181Y-56538969D01*
G37*
%TD.AperFunction*%
%TD*%
%TA.AperFunction,Conductor*%
%TO.N,/Block Diagram/Schematic/Vin+*%
G36*
X164786181Y-64920969D02*
G01*
X164806823Y-64937603D01*
X169596504Y-69727284D01*
X172603171Y-69727284D01*
X172670210Y-69746969D01*
X172677571Y-69752084D01*
X173610904Y-70452084D01*
X173652725Y-70508055D01*
X173660504Y-70551284D01*
X173660504Y-73231922D01*
X173640819Y-73298961D01*
X173624185Y-73319603D01*
X172934823Y-74008965D01*
X172873500Y-74042450D01*
X172847142Y-74045284D01*
X162992503Y-74045284D01*
X142962823Y-94074965D01*
X142901500Y-94108450D01*
X142875142Y-94111284D01*
X135560503Y-94111284D01*
X133056823Y-96614965D01*
X132995500Y-96648450D01*
X132969142Y-96651284D01*
X131801866Y-96651284D01*
X131734827Y-96631599D01*
X131714185Y-96614965D01*
X131278823Y-96179603D01*
X131245338Y-96118280D01*
X131242504Y-96091922D01*
X131242504Y-92238797D01*
X136900004Y-92238797D01*
X136900004Y-92427770D01*
X136929563Y-92614402D01*
X136987958Y-92794120D01*
X137057422Y-92930449D01*
X137073744Y-92962483D01*
X137184814Y-93115357D01*
X137318431Y-93248974D01*
X137471305Y-93360044D01*
X137550851Y-93400574D01*
X137639667Y-93445829D01*
X137639669Y-93445829D01*
X137639672Y-93445831D01*
X137736001Y-93477130D01*
X137819385Y-93504224D01*
X138006018Y-93533784D01*
X138006023Y-93533784D01*
X138194990Y-93533784D01*
X138381622Y-93504224D01*
X138561336Y-93445831D01*
X138729703Y-93360044D01*
X138882577Y-93248974D01*
X139016194Y-93115357D01*
X139127264Y-92962483D01*
X139213051Y-92794116D01*
X139271444Y-92614402D01*
X139276180Y-92584502D01*
X139301004Y-92427770D01*
X139301004Y-92238797D01*
X139271444Y-92052165D01*
X139213049Y-91872447D01*
X139127263Y-91704084D01*
X139016194Y-91551211D01*
X138882577Y-91417594D01*
X138729703Y-91306524D01*
X138561340Y-91220738D01*
X138381622Y-91162343D01*
X138194990Y-91132784D01*
X138194985Y-91132784D01*
X138006023Y-91132784D01*
X138006018Y-91132784D01*
X137819385Y-91162343D01*
X137639667Y-91220738D01*
X137471304Y-91306524D01*
X137384083Y-91369894D01*
X137318431Y-91417594D01*
X137318429Y-91417596D01*
X137318428Y-91417596D01*
X137184816Y-91551208D01*
X137184816Y-91551209D01*
X137184814Y-91551211D01*
X137171951Y-91568916D01*
X137073744Y-91704084D01*
X136987958Y-91872447D01*
X136929563Y-92052165D01*
X136900004Y-92238797D01*
X131242504Y-92238797D01*
X131242504Y-85475284D01*
X127846017Y-82078797D01*
X136900004Y-82078797D01*
X136900004Y-82267770D01*
X136929563Y-82454402D01*
X136987958Y-82634120D01*
X137073744Y-82802483D01*
X137184814Y-82955357D01*
X137318431Y-83088974D01*
X137471305Y-83200044D01*
X137550851Y-83240574D01*
X137639667Y-83285829D01*
X137639669Y-83285829D01*
X137639672Y-83285831D01*
X137736001Y-83317130D01*
X137819385Y-83344224D01*
X138006018Y-83373784D01*
X138006023Y-83373784D01*
X138194990Y-83373784D01*
X138381622Y-83344224D01*
X138561336Y-83285831D01*
X138729703Y-83200044D01*
X138882577Y-83088974D01*
X139016194Y-82955357D01*
X139127264Y-82802483D01*
X139213051Y-82634116D01*
X139271444Y-82454402D01*
X139301004Y-82267770D01*
X139301004Y-82078797D01*
X139271444Y-81892165D01*
X139213049Y-81712447D01*
X139127263Y-81544084D01*
X139016194Y-81391211D01*
X138882577Y-81257594D01*
X138729703Y-81146524D01*
X138561340Y-81060738D01*
X138381622Y-81002343D01*
X138194990Y-80972784D01*
X138194985Y-80972784D01*
X138006023Y-80972784D01*
X138006018Y-80972784D01*
X137819385Y-81002343D01*
X137639667Y-81060738D01*
X137471304Y-81146524D01*
X137384083Y-81209894D01*
X137318431Y-81257594D01*
X137318429Y-81257596D01*
X137318428Y-81257596D01*
X137184816Y-81391208D01*
X137184816Y-81391209D01*
X137184814Y-81391211D01*
X137143843Y-81447603D01*
X137073744Y-81544084D01*
X136987958Y-81712447D01*
X136929563Y-81892165D01*
X136900004Y-82078797D01*
X127846017Y-82078797D01*
X127214823Y-81447603D01*
X127181338Y-81386280D01*
X127178504Y-81359922D01*
X127178504Y-80192646D01*
X127198189Y-80125607D01*
X127214823Y-80104965D01*
X127904185Y-79415603D01*
X127965508Y-79382118D01*
X127991866Y-79379284D01*
X148768503Y-79379284D01*
X148768504Y-79379284D01*
X154008925Y-74045284D01*
X156098106Y-71918797D01*
X162300004Y-71918797D01*
X162300004Y-72107770D01*
X162329563Y-72294402D01*
X162387958Y-72474120D01*
X162431268Y-72559119D01*
X162473744Y-72642483D01*
X162584814Y-72795357D01*
X162718431Y-72928974D01*
X162871305Y-73040044D01*
X162950851Y-73080574D01*
X163039667Y-73125829D01*
X163039669Y-73125829D01*
X163039672Y-73125831D01*
X163126108Y-73153916D01*
X163219385Y-73184224D01*
X163406018Y-73213784D01*
X163406023Y-73213784D01*
X163594990Y-73213784D01*
X163781622Y-73184224D01*
X163961336Y-73125831D01*
X164129703Y-73040044D01*
X164282577Y-72928974D01*
X164416194Y-72795357D01*
X164527264Y-72642483D01*
X164613051Y-72474116D01*
X164671444Y-72294402D01*
X164701004Y-72107770D01*
X164701004Y-71918797D01*
X164671444Y-71732165D01*
X164638086Y-71629502D01*
X164613051Y-71552452D01*
X164613049Y-71552449D01*
X164613049Y-71552447D01*
X164527263Y-71384084D01*
X164416194Y-71231211D01*
X164282577Y-71097594D01*
X164129703Y-70986524D01*
X163961340Y-70900738D01*
X163781622Y-70842343D01*
X163594990Y-70812784D01*
X163594985Y-70812784D01*
X163406023Y-70812784D01*
X163406018Y-70812784D01*
X163219385Y-70842343D01*
X163039667Y-70900738D01*
X162871304Y-70986524D01*
X162784083Y-71049894D01*
X162718431Y-71097594D01*
X162718429Y-71097596D01*
X162718428Y-71097596D01*
X162584816Y-71231208D01*
X162584816Y-71231209D01*
X162584814Y-71231211D01*
X162558969Y-71266784D01*
X162473744Y-71384084D01*
X162387958Y-71552447D01*
X162329563Y-71732165D01*
X162300004Y-71918797D01*
X156098106Y-71918797D01*
X156188264Y-71827029D01*
X161088983Y-66838797D01*
X162300004Y-66838797D01*
X162300004Y-67027770D01*
X162329563Y-67214402D01*
X162387958Y-67394120D01*
X162473744Y-67562483D01*
X162584814Y-67715357D01*
X162718431Y-67848974D01*
X162871305Y-67960044D01*
X162950851Y-68000574D01*
X163039667Y-68045829D01*
X163039669Y-68045829D01*
X163039672Y-68045831D01*
X163136001Y-68077130D01*
X163219385Y-68104224D01*
X163406018Y-68133784D01*
X163406023Y-68133784D01*
X163594990Y-68133784D01*
X163781622Y-68104224D01*
X163813383Y-68093904D01*
X163961336Y-68045831D01*
X164129703Y-67960044D01*
X164282577Y-67848974D01*
X164416194Y-67715357D01*
X164527264Y-67562483D01*
X164613051Y-67394116D01*
X164671444Y-67214402D01*
X164701004Y-67027770D01*
X164701004Y-66838797D01*
X164671444Y-66652165D01*
X164613049Y-66472447D01*
X164527263Y-66304084D01*
X164416194Y-66151211D01*
X164282577Y-66017594D01*
X164129703Y-65906524D01*
X163961340Y-65820738D01*
X163781622Y-65762343D01*
X163594990Y-65732784D01*
X163594985Y-65732784D01*
X163406023Y-65732784D01*
X163406018Y-65732784D01*
X163219385Y-65762343D01*
X163039667Y-65820738D01*
X162871304Y-65906524D01*
X162784083Y-65969894D01*
X162718431Y-66017594D01*
X162718429Y-66017596D01*
X162718428Y-66017596D01*
X162584816Y-66151208D01*
X162584816Y-66151209D01*
X162584814Y-66151211D01*
X162537114Y-66216863D01*
X162473744Y-66304084D01*
X162387958Y-66472447D01*
X162329563Y-66652165D01*
X162300004Y-66838797D01*
X161088983Y-66838797D01*
X161179141Y-66747029D01*
X162956057Y-64938382D01*
X163017082Y-64904356D01*
X163044511Y-64901284D01*
X164719142Y-64901284D01*
X164786181Y-64920969D01*
G37*
%TD.AperFunction*%
%TD*%
%TA.AperFunction,NonConductor*%
G36*
X119939894Y-59833045D02*
G01*
X119954151Y-59830996D01*
X119973458Y-59839813D01*
X119994266Y-59844009D01*
X120014037Y-59858345D01*
X120017707Y-59860021D01*
X120022486Y-59864471D01*
X120022839Y-59864727D01*
X120023505Y-59865373D01*
X120077375Y-59919243D01*
X120084016Y-59924068D01*
X120090339Y-59930201D01*
X120124755Y-59991007D01*
X120128004Y-60019208D01*
X120128004Y-63246500D01*
X120108319Y-63313539D01*
X120091685Y-63334181D01*
X120051367Y-63374498D01*
X120051364Y-63374502D01*
X120039606Y-63392100D01*
X119985994Y-63436905D01*
X119916669Y-63445612D01*
X119853641Y-63415457D01*
X119816922Y-63356014D01*
X119812504Y-63323209D01*
X119812504Y-59953734D01*
X119818484Y-59933367D01*
X119819676Y-59912175D01*
X119828131Y-59900513D01*
X119832189Y-59886695D01*
X119848228Y-59872797D01*
X119860690Y-59855610D01*
X119874109Y-59850370D01*
X119884993Y-59840940D01*
X119906000Y-59837919D01*
X119925775Y-59830199D01*
X119939894Y-59833045D01*
G37*
%TD.AperFunction*%
%TA.AperFunction,NonConductor*%
G36*
X121606181Y-57554969D02*
G01*
X121626823Y-57571603D01*
X124348185Y-60292965D01*
X124381670Y-60354288D01*
X124384504Y-60380646D01*
X124384504Y-65611922D01*
X124364819Y-65678961D01*
X124348185Y-65699603D01*
X123404823Y-66642965D01*
X123343500Y-66676450D01*
X123317142Y-66679284D01*
X121133866Y-66679284D01*
X121066827Y-66659599D01*
X121046185Y-66642965D01*
X119594823Y-65191603D01*
X119561338Y-65130280D01*
X119558504Y-65103922D01*
X119558504Y-63936646D01*
X119567148Y-63907205D01*
X119573672Y-63877219D01*
X119577426Y-63872203D01*
X119578189Y-63869607D01*
X119594823Y-63848965D01*
X119616323Y-63827465D01*
X119677646Y-63793980D01*
X119747338Y-63798964D01*
X119803271Y-63840836D01*
X119827688Y-63906300D01*
X119828004Y-63915146D01*
X119828004Y-64110825D01*
X119828004Y-64110827D01*
X119828003Y-64110827D01*
X119866451Y-64304113D01*
X119866454Y-64304123D01*
X119941868Y-64486191D01*
X119941875Y-64486204D01*
X120051364Y-64650065D01*
X120051367Y-64650069D01*
X120190718Y-64789420D01*
X120190722Y-64789423D01*
X120354583Y-64898912D01*
X120354596Y-64898919D01*
X120536664Y-64974333D01*
X120536669Y-64974335D01*
X120536673Y-64974335D01*
X120536674Y-64974336D01*
X120729960Y-65012784D01*
X120729963Y-65012784D01*
X120786985Y-65012784D01*
X120854024Y-65032469D01*
X120874661Y-65049098D01*
X120946754Y-65121191D01*
X121016960Y-65191397D01*
X121131696Y-65268061D01*
X121259171Y-65320862D01*
X121259176Y-65320864D01*
X121259180Y-65320864D01*
X121259181Y-65320865D01*
X121394507Y-65347784D01*
X121394510Y-65347784D01*
X121394511Y-65347784D01*
X121967721Y-65347784D01*
X122034760Y-65367469D01*
X122055403Y-65384104D01*
X122095718Y-65424420D01*
X122095722Y-65424423D01*
X122259583Y-65533912D01*
X122259596Y-65533919D01*
X122441664Y-65609333D01*
X122441669Y-65609335D01*
X122441673Y-65609335D01*
X122441674Y-65609336D01*
X122634960Y-65647784D01*
X122634963Y-65647784D01*
X122832047Y-65647784D01*
X123012333Y-65611922D01*
X123025339Y-65609335D01*
X123207418Y-65533916D01*
X123371286Y-65424423D01*
X123510643Y-65285066D01*
X123620136Y-65121198D01*
X123695555Y-64939119D01*
X123725332Y-64789423D01*
X123734004Y-64745827D01*
X123734004Y-64548740D01*
X123695556Y-64355454D01*
X123695555Y-64355453D01*
X123695555Y-64355449D01*
X123674291Y-64304113D01*
X123620139Y-64173376D01*
X123620132Y-64173363D01*
X123510643Y-64009502D01*
X123510640Y-64009498D01*
X123371289Y-63870147D01*
X123371285Y-63870144D01*
X123207424Y-63760655D01*
X123207411Y-63760648D01*
X123025343Y-63685234D01*
X123025333Y-63685231D01*
X122832047Y-63646784D01*
X122832045Y-63646784D01*
X122634963Y-63646784D01*
X122634961Y-63646784D01*
X122441674Y-63685231D01*
X122441664Y-63685234D01*
X122259596Y-63760648D01*
X122259583Y-63760655D01*
X122095722Y-63870144D01*
X122095718Y-63870147D01*
X122055403Y-63910464D01*
X122028474Y-63925168D01*
X122002656Y-63941761D01*
X121996456Y-63942652D01*
X121994080Y-63943950D01*
X121967721Y-63946784D01*
X121937340Y-63946784D01*
X121870301Y-63927099D01*
X121824546Y-63874295D01*
X121815723Y-63846975D01*
X121805181Y-63793980D01*
X121790555Y-63720449D01*
X121760042Y-63646784D01*
X121715139Y-63538376D01*
X121715132Y-63538363D01*
X121605643Y-63374502D01*
X121605640Y-63374498D01*
X121565323Y-63334181D01*
X121531838Y-63272858D01*
X121529004Y-63246500D01*
X121529004Y-60019208D01*
X121548689Y-59952169D01*
X121576335Y-59922900D01*
X121575920Y-59922415D01*
X121579627Y-59919247D01*
X121579633Y-59919243D01*
X121707963Y-59790913D01*
X121814638Y-59644088D01*
X121897031Y-59482382D01*
X121953113Y-59309779D01*
X121981504Y-59130527D01*
X121981504Y-58854041D01*
X121953113Y-58674789D01*
X121953112Y-58674785D01*
X121953112Y-58674784D01*
X121897032Y-58502188D01*
X121814637Y-58340479D01*
X121707963Y-58193655D01*
X121579633Y-58065325D01*
X121432808Y-57958650D01*
X121375800Y-57929603D01*
X121271099Y-57876255D01*
X121098502Y-57820175D01*
X120964060Y-57798881D01*
X120919247Y-57791784D01*
X120737761Y-57791784D01*
X120678010Y-57801247D01*
X120558507Y-57820175D01*
X120558504Y-57820175D01*
X120385906Y-57876256D01*
X120385905Y-57876256D01*
X120254944Y-57942984D01*
X120186275Y-57955880D01*
X120121535Y-57929603D01*
X120081278Y-57872497D01*
X120078286Y-57802691D01*
X120110967Y-57744820D01*
X120284185Y-57571603D01*
X120345508Y-57538118D01*
X120371866Y-57535284D01*
X121539142Y-57535284D01*
X121606181Y-57554969D01*
G37*
%TD.AperFunction*%
%TA.AperFunction,Conductor*%
%TO.N,/Block Diagram/Schematic/SW*%
G36*
X119066181Y-57808969D02*
G01*
X119086823Y-57825603D01*
X119522185Y-58260965D01*
X119555670Y-58322288D01*
X119558504Y-58348646D01*
X119558504Y-62817922D01*
X119538819Y-62884961D01*
X119522185Y-62905603D01*
X118542504Y-63885283D01*
X118542504Y-63885284D01*
X118542504Y-65155284D01*
X120320504Y-66933284D01*
X126670504Y-66933284D01*
X128158185Y-65445603D01*
X128219508Y-65412118D01*
X128245866Y-65409284D01*
X138557142Y-65409284D01*
X138624181Y-65428969D01*
X138644823Y-65445603D01*
X140350185Y-67150965D01*
X140383670Y-67212288D01*
X140386504Y-67238646D01*
X140386504Y-72977922D01*
X140366819Y-73044961D01*
X140350185Y-73065603D01*
X139406823Y-74008965D01*
X139345500Y-74042450D01*
X139319142Y-74045284D01*
X134849866Y-74045284D01*
X134782827Y-74025599D01*
X134762185Y-74008965D01*
X131242504Y-70489284D01*
X117069866Y-70489284D01*
X117002827Y-70469599D01*
X116982185Y-70452965D01*
X115276823Y-68747603D01*
X115243338Y-68686280D01*
X115240504Y-68659922D01*
X115240504Y-63174646D01*
X115260189Y-63107607D01*
X115276823Y-63086965D01*
X115545866Y-62817922D01*
X117272504Y-61091284D01*
X117272504Y-58348646D01*
X117292189Y-58281607D01*
X117308823Y-58260965D01*
X117744185Y-57825603D01*
X117805508Y-57792118D01*
X117831866Y-57789284D01*
X118999142Y-57789284D01*
X119066181Y-57808969D01*
G37*
%TD.AperFunction*%
%TD*%
%TA.AperFunction,Conductor*%
%TO.N,/Block Diagram/Schematic/Vin-*%
G36*
X172914181Y-59840969D02*
G01*
X172934823Y-59857603D01*
X173878185Y-60800965D01*
X173911670Y-60862288D01*
X173914504Y-60888646D01*
X173914504Y-67897922D01*
X173894819Y-67964961D01*
X173878185Y-67985603D01*
X172680823Y-69182965D01*
X172619500Y-69216450D01*
X172593142Y-69219284D01*
X171171866Y-69219284D01*
X171104827Y-69199599D01*
X171084185Y-69182965D01*
X166040504Y-64139284D01*
X163805866Y-64139284D01*
X163738827Y-64119599D01*
X163718185Y-64102965D01*
X162520823Y-62905603D01*
X162487338Y-62844280D01*
X162484504Y-62817922D01*
X162484504Y-60888646D01*
X162504189Y-60821607D01*
X162520823Y-60800965D01*
X163464185Y-59857603D01*
X163525508Y-59824118D01*
X163551866Y-59821284D01*
X172847142Y-59821284D01*
X172914181Y-59840969D01*
G37*
%TD.AperFunction*%
%TD*%
M02*
