%TF.GenerationSoftware,KiCad,Pcbnew,9.0.6+1*%
%TF.CreationDate,Date%
%TF.ProjectId,StepUp_module_12to450V,53746570-5570-45f6-9d6f-64756c655f31,+ (Unreleased)*%
%TF.SameCoordinates,Original*%
%TF.FileFunction,Soldermask,Bot*%
%TF.FilePolarity,Negative*%
%FSLAX46Y46*%
G04 Gerber Fmt 4.6, Leading zero omitted, Abs format (unit mm)*
G04 Created by KiCad*
%MOMM*%
%LPD*%
G01*
G04 APERTURE LIST*
G04 Aperture macros list*
%AMRoundRect*
0 Rectangle with rounded corners*
0 $1 Rounding radius*
0 $2 $3 $4 $5 $6 $7 $8 $9 X,Y pos of 4 corners*
0 Add a 4 corners polygon primitive as box body*
4,1,4,$2,$3,$4,$5,$6,$7,$8,$9,$2,$3,0*
0 Add four circle primitives for the rounded corners*
1,1,$1+$1,$2,$3*
1,1,$1+$1,$4,$5*
1,1,$1+$1,$6,$7*
1,1,$1+$1,$8,$9*
0 Add four rect primitives between the rounded corners*
20,1,$1+$1,$2,$3,$4,$5,0*
20,1,$1+$1,$4,$5,$6,$7,0*
20,1,$1+$1,$6,$7,$8,$9,0*
20,1,$1+$1,$8,$9,$2,$3,0*%
G04 Aperture macros list end*
%ADD10C,1.700000*%
%ADD11RoundRect,0.050000X0.900000X0.900000X-0.900000X0.900000X-0.900000X-0.900000X0.900000X-0.900000X0*%
%ADD12C,1.900000*%
%ADD13RoundRect,0.258929X-1.191071X1.191071X-1.191071X-1.191071X1.191071X-1.191071X1.191071X1.191071X0*%
%ADD14C,2.900000*%
%ADD15RoundRect,0.262500X0.787500X0.787500X-0.787500X0.787500X-0.787500X-0.787500X0.787500X-0.787500X0*%
%ADD16C,2.100000*%
%ADD17RoundRect,0.050000X1.000000X-1.000000X1.000000X1.000000X-1.000000X1.000000X-1.000000X-1.000000X0*%
%ADD18RoundRect,0.050000X0.952500X1.000000X-0.952500X1.000000X-0.952500X-1.000000X0.952500X-1.000000X0*%
%ADD19O,2.005000X2.100000*%
%ADD20RoundRect,0.050000X-0.750000X-0.750000X0.750000X-0.750000X0.750000X0.750000X-0.750000X0.750000X0*%
%ADD21C,1.600000*%
%ADD22RoundRect,0.265625X0.584375X0.584375X-0.584375X0.584375X-0.584375X-0.584375X0.584375X-0.584375X0*%
%ADD23RoundRect,0.700000X-0.700000X-0.700000X0.700000X-0.700000X0.700000X0.700000X-0.700000X0.700000X0*%
%ADD24C,2.800000*%
%ADD25C,1.540000*%
%ADD26RoundRect,0.265625X-0.584375X0.584375X-0.584375X-0.584375X0.584375X-0.584375X0.584375X0.584375X0*%
%ADD27RoundRect,0.263889X0.686111X0.686111X-0.686111X0.686111X-0.686111X-0.686111X0.686111X-0.686111X0*%
%ADD28RoundRect,0.262500X-0.787500X0.787500X-0.787500X-0.787500X0.787500X-0.787500X0.787500X0.787500X0*%
G04 APERTURE END LIST*
D10*
%TO.C,C4*%
X155321000Y-107355000D03*
X155321000Y-112355000D03*
%TD*%
%TO.C,R11*%
X146431000Y-87630000D03*
X133731000Y-87630000D03*
%TD*%
%TO.C,C1*%
X168656000Y-92075000D03*
X173656000Y-92075000D03*
%TD*%
D11*
%TO.C,D1*%
X173101000Y-95885000D03*
D12*
X170561000Y-95885000D03*
%TD*%
D10*
%TO.C,R10*%
X130556000Y-87630000D03*
X117856000Y-87630000D03*
%TD*%
D13*
%TO.C,J1*%
X102362000Y-101586000D03*
D14*
X102362000Y-106586000D03*
X102362000Y-111586000D03*
X102362000Y-116586000D03*
%TD*%
D10*
%TO.C,R4*%
X145161000Y-90805000D03*
X145161000Y-98425000D03*
%TD*%
%TO.C,R5*%
X152146000Y-93980000D03*
X152146000Y-101600000D03*
%TD*%
%TO.C,C5*%
X157861000Y-107315000D03*
X157861000Y-112315000D03*
%TD*%
D15*
%TO.C,C8*%
X104983677Y-93345000D03*
D16*
X99983677Y-93345000D03*
%TD*%
D17*
%TO.C,TR2*%
X136144000Y-117094000D03*
D16*
X136144000Y-112014000D03*
X136144000Y-106934000D03*
X136144000Y-101854000D03*
X136144000Y-96774000D03*
X136144000Y-91694000D03*
X110744000Y-91694000D03*
X110744000Y-96774000D03*
X110744000Y-101854000D03*
X110744000Y-106934000D03*
X110744000Y-112014000D03*
X110744000Y-117094000D03*
%TD*%
D18*
%TO.C,Q4*%
X158496000Y-125035000D03*
D19*
X155956000Y-125035000D03*
X153416000Y-125035000D03*
%TD*%
D10*
%TO.C,R9*%
X153416000Y-120015000D03*
X168656000Y-120015000D03*
%TD*%
%TO.C,C3*%
X148971000Y-94020000D03*
X148971000Y-99020000D03*
%TD*%
%TO.C,C2*%
X166116000Y-93385000D03*
X166116000Y-98385000D03*
%TD*%
D20*
%TO.C,Q3*%
X168656000Y-88625000D03*
D21*
X171196000Y-88625000D03*
X173736000Y-88625000D03*
%TD*%
D10*
%TO.C,R3*%
X165481000Y-91440000D03*
X157861000Y-91440000D03*
%TD*%
D22*
%TO.C,C6*%
X174118651Y-111125000D03*
D10*
X170618651Y-111125000D03*
%TD*%
%TO.C,R8*%
X164211000Y-107315000D03*
X164211000Y-114935000D03*
%TD*%
%TO.C,R6*%
X151511000Y-106680000D03*
X151511000Y-119380000D03*
%TD*%
%TO.C,R13*%
X147701000Y-119380000D03*
X147701000Y-111760000D03*
%TD*%
%TO.C,R2*%
X157861000Y-88900000D03*
X165481000Y-88900000D03*
%TD*%
D23*
%TO.C,F1*%
X103646000Y-122555000D03*
X110406000Y-122555000D03*
D24*
X117686000Y-122555000D03*
X124446000Y-122555000D03*
%TD*%
D10*
%TO.C,R12*%
X169291000Y-98425000D03*
X169291000Y-106045000D03*
%TD*%
D25*
%TO.C,RV1*%
X149606000Y-89540000D03*
X152146000Y-89540000D03*
X154686000Y-89540000D03*
%TD*%
D18*
%TO.C,Q2*%
X138811000Y-125035000D03*
D19*
X136271000Y-125035000D03*
X133731000Y-125035000D03*
%TD*%
D26*
%TO.C,U1*%
X162941000Y-93985000D03*
D10*
X160401000Y-93985000D03*
X157861000Y-93985000D03*
X155321000Y-93985000D03*
X155321000Y-101605000D03*
X157861000Y-101605000D03*
X160401000Y-101605000D03*
X162941000Y-101605000D03*
%TD*%
%TO.C,R7*%
X161036000Y-114935000D03*
X161036000Y-107315000D03*
%TD*%
D27*
%TO.C,D2*%
X114681000Y-87630000D03*
D12*
X104521000Y-87630000D03*
%TD*%
D10*
%TO.C,R14*%
X163576000Y-123825000D03*
X171196000Y-123825000D03*
%TD*%
D28*
%TO.C,C7*%
X144526000Y-103042323D03*
D16*
X144526000Y-108042323D03*
%TD*%
M02*
