M48
; DRILL file {KiCad 9.0.6+1} date 2025-12-19T22:43:35+0000
; FORMAT={-:-/ absolute / metric / decimal}
; #@! TF.CreationDate,2025-12-19T22:43:35+00:00
; #@! TF.GenerationSoftware,Kicad,Pcbnew,9.0.6+1
; #@! TF.FileFunction,Plated,1,2,PTH
FMAT,2
METRIC
; #@! TA.AperFunction,Plated,PTH,ViaDrill
T1C0.800
; #@! TA.AperFunction,Plated,PTH,ComponentDrill
T2C0.800
; #@! TA.AperFunction,Plated,PTH,ComponentDrill
T3C0.900
; #@! TA.AperFunction,Plated,PTH,ComponentDrill
T4C1.200
; #@! TA.AperFunction,Plated,PTH,ComponentDrill
T5C1.300
; #@! TA.AperFunction,Plated,PTH,ComponentDrill
T6C1.700
%
G90
G05
T1
X120.635Y-76.505
X120.635Y-83.49
T2
X117.9Y-71.45
X118.73Y-93.925
X118.81Y-90.475
X121.27Y-58.725
X121.27Y-93.925
X121.4Y-71.45
X123.175Y-76.505
X123.175Y-84.125
X123.81Y-62.535
X123.81Y-90.475
X123.81Y-93.925
X126.35Y-84.165
X126.35Y-89.165
X126.985Y-91.11
X126.985Y-93.65
X128.255Y-67.615
X128.255Y-75.235
X128.89Y-58.725
X129.219Y-81.068
X129.219Y-88.688
X131.43Y-67.615
X131.43Y-75.235
X131.759Y-81.068
X131.759Y-88.688
X134.299Y-81.068
X134.299Y-88.688
X134.605Y-70.235
X134.605Y-75.235
X134.605Y-91.11
X134.605Y-93.65
X136.839Y-81.068
X136.839Y-88.688
X137.145Y-70.195
X137.145Y-75.195
X137.78Y-93.01
X139.05Y-62.535
X140.32Y-80.95
X140.32Y-88.57
X140.32Y-93.01
X140.955Y-63.17
X140.955Y-75.87
X142.86Y-93.01
X143.495Y-83.53
X143.495Y-88.53
X144.765Y-63.17
X144.765Y-70.79
X146.39Y-95.017
X147.305Y-84.125
X147.305Y-91.745
X148.269Y-74.508
X148.269Y-79.508
X159.09Y-95.017
X161.909Y-95.017
X171.804Y-90.42
X174.609Y-95.017
X176.804Y-90.42
X187.482Y-89.205
X192.482Y-89.205
T3
X119.365Y-86.665
X121.905Y-86.665
X125.536Y-67.738
X125.536Y-75.358
X156.322Y-65.456
X156.322Y-70.536
X156.322Y-75.616
X156.322Y-80.696
X156.322Y-85.776
X156.322Y-90.856
X177.785Y-94.92
X181.722Y-65.456
X181.722Y-70.536
X181.722Y-75.616
X181.722Y-80.696
X181.722Y-85.776
X181.722Y-90.856
X187.945Y-94.92
T4
X133.97Y-57.515
X136.51Y-57.515
X139.05Y-57.515
X153.655Y-57.515
X156.195Y-57.515
X158.735Y-57.515
T5
X190.104Y-65.964
X190.104Y-70.964
X190.104Y-75.964
X190.104Y-80.964
T6
X168.02Y-59.995
X174.78Y-59.995
X182.06Y-59.995
X188.82Y-59.995
M30
