M48
; DRILL file {KiCad 9.0.6+1} date 2025-12-14T12:00:14+0000
; FORMAT={-:-/ absolute / metric / decimal}
; #@! TF.CreationDate,2025-12-14T12:00:14+00:00
; #@! TF.GenerationSoftware,Kicad,Pcbnew,9.0.6+1
; #@! TF.FileFunction,Plated,1,2,PTH
FMAT,2
METRIC
; #@! TA.AperFunction,Plated,PTH,ViaDrill
T1C0.800
; #@! TA.AperFunction,Plated,PTH,ComponentDrill
T2C0.800
; #@! TA.AperFunction,Plated,PTH,ComponentDrill
T3C0.900
; #@! TA.AperFunction,Plated,PTH,ComponentDrill
T4C1.000
; #@! TA.AperFunction,Plated,PTH,ComponentDrill
T5C1.200
; #@! TA.AperFunction,Plated,PTH,ComponentDrill
T6C1.300
; #@! TA.AperFunction,Plated,PTH,ComponentDrill
T7C1.700
%
G90
G05
T1
X171.831Y-99.06
X171.831Y-106.045
T2
X117.856Y-87.63
X130.556Y-87.63
X133.731Y-87.63
X145.161Y-90.805
X145.161Y-98.425
X146.431Y-87.63
X147.701Y-111.76
X147.701Y-119.38
X148.971Y-94.02
X148.971Y-99.02
X149.606Y-89.54
X151.511Y-106.68
X151.511Y-119.38
X152.146Y-89.54
X152.146Y-93.98
X152.146Y-101.6
X153.416Y-120.015
X154.686Y-89.54
X155.321Y-93.985
X155.321Y-101.605
X155.321Y-107.355
X155.321Y-112.355
X157.861Y-88.9
X157.861Y-91.44
X157.861Y-93.985
X157.861Y-101.605
X157.861Y-107.315
X157.861Y-112.315
X160.401Y-93.985
X160.401Y-101.605
X161.036Y-107.315
X161.036Y-114.935
X162.941Y-93.985
X162.941Y-101.605
X163.576Y-123.825
X164.211Y-107.315
X164.211Y-114.935
X165.481Y-88.9
X165.481Y-91.44
X166.116Y-93.385
X166.116Y-98.385
X168.656Y-88.625
X168.656Y-92.075
X168.656Y-120.015
X169.291Y-98.425
X169.291Y-106.045
X170.619Y-111.125
X171.196Y-88.625
X171.196Y-123.825
X173.656Y-92.075
X173.736Y-88.625
X174.119Y-111.125
T3
X104.521Y-87.63
X110.744Y-91.694
X110.744Y-96.774
X110.744Y-101.854
X110.744Y-106.934
X110.744Y-112.014
X110.744Y-117.094
X114.681Y-87.63
X136.144Y-91.694
X136.144Y-96.774
X136.144Y-101.854
X136.144Y-106.934
X136.144Y-112.014
X136.144Y-117.094
X170.561Y-95.885
X173.101Y-95.885
T4
X99.984Y-93.345
X104.984Y-93.345
X144.526Y-103.042
X144.526Y-108.042
T5
X133.731Y-125.035
X136.271Y-125.035
X138.811Y-125.035
X153.416Y-125.035
X155.956Y-125.035
X158.496Y-125.035
T6
X102.362Y-101.586
X102.362Y-106.586
X102.362Y-111.586
X102.362Y-116.586
T7
X103.646Y-122.555
X110.406Y-122.555
X117.686Y-122.555
X124.446Y-122.555
M30
