%TF.GenerationSoftware,KiCad,Pcbnew,9.0.6+1*%
%TF.CreationDate,Date%
%TF.ProjectId,StepUp_module_12to450V,53746570-5570-45f6-9d6f-64756c655f31,+ (Unreleased)*%
%TF.SameCoordinates,Original*%
%TF.FileFunction,Legend,Bot*%
%TF.FilePolarity,Positive*%
%FSLAX46Y46*%
G04 Gerber Fmt 4.6, Leading zero omitted, Abs format (unit mm)*
G04 Created by KiCad*
%MOMM*%
%LPD*%
G01*
G04 APERTURE LIST*
G04 Aperture macros list*
%AMRoundRect*
0 Rectangle with rounded corners*
0 $1 Rounding radius*
0 $2 $3 $4 $5 $6 $7 $8 $9 X,Y pos of 4 corners*
0 Add a 4 corners polygon primitive as box body*
4,1,4,$2,$3,$4,$5,$6,$7,$8,$9,$2,$3,0*
0 Add four circle primitives for the rounded corners*
1,1,$1+$1,$2,$3*
1,1,$1+$1,$4,$5*
1,1,$1+$1,$6,$7*
1,1,$1+$1,$8,$9*
0 Add four rect primitives between the rounded corners*
20,1,$1+$1,$2,$3,$4,$5,0*
20,1,$1+$1,$4,$5,$6,$7,0*
20,1,$1+$1,$6,$7,$8,$9,0*
20,1,$1+$1,$8,$9,$2,$3,0*%
G04 Aperture macros list end*
%ADD10C,1.700000*%
%ADD11RoundRect,0.050000X-0.900000X-0.900000X0.900000X-0.900000X0.900000X0.900000X-0.900000X0.900000X0*%
%ADD12C,1.900000*%
%ADD13C,2.200000*%
%ADD14RoundRect,0.259616X1.090384X-1.090384X1.090384X1.090384X-1.090384X1.090384X-1.090384X-1.090384X0*%
%ADD15C,2.700000*%
%ADD16RoundRect,0.050000X-1.000000X1.000000X-1.000000X-1.000000X1.000000X-1.000000X1.000000X1.000000X0*%
%ADD17C,2.100000*%
%ADD18RoundRect,0.050000X-0.952500X-1.000000X0.952500X-1.000000X0.952500X1.000000X-0.952500X1.000000X0*%
%ADD19O,2.005000X2.100000*%
%ADD20RoundRect,0.050000X0.750000X0.750000X-0.750000X0.750000X-0.750000X-0.750000X0.750000X-0.750000X0*%
%ADD21C,1.600000*%
%ADD22RoundRect,0.265625X0.584375X-0.584375X0.584375X0.584375X-0.584375X0.584375X-0.584375X-0.584375X0*%
%ADD23RoundRect,0.700000X0.700000X0.700000X-0.700000X0.700000X-0.700000X-0.700000X0.700000X-0.700000X0*%
%ADD24C,2.800000*%
%ADD25C,1.540000*%
%ADD26RoundRect,0.263889X0.686111X-0.686111X0.686111X0.686111X-0.686111X0.686111X-0.686111X-0.686111X0*%
%ADD27RoundRect,0.263889X-0.686111X-0.686111X0.686111X-0.686111X0.686111X0.686111X-0.686111X0.686111X0*%
G04 APERTURE END LIST*
%LPC*%
D10*
%TO.C,C4*%
X118923504Y-76672284D03*
X118923504Y-71672284D03*
%TD*%
%TO.C,R11*%
X128168400Y-96494600D03*
X140868400Y-96494600D03*
%TD*%
%TO.C,C1*%
X105588504Y-91952284D03*
X100588504Y-91952284D03*
%TD*%
D11*
%TO.C,D3*%
X101143504Y-88142284D03*
D12*
X103683504Y-88142284D03*
%TD*%
D13*
%TO.C,H2*%
X175895000Y-56337200D03*
%TD*%
D10*
%TO.C,R10*%
X143687800Y-96494600D03*
X156387800Y-96494600D03*
%TD*%
D14*
%TO.C,J1*%
X171882504Y-82441284D03*
D15*
X171882504Y-77441284D03*
X171882504Y-72441284D03*
X171882504Y-67441284D03*
%TD*%
D10*
%TO.C,R4*%
X129083504Y-93222284D03*
X129083504Y-85602284D03*
%TD*%
%TO.C,R5*%
X122098504Y-90047284D03*
X122098504Y-82427284D03*
%TD*%
%TO.C,C5*%
X116383504Y-76712284D03*
X116383504Y-71712284D03*
%TD*%
%TO.C,C8*%
X169260827Y-90682284D03*
X174260827Y-90682284D03*
%TD*%
D16*
%TO.C,TR1*%
X138100504Y-66933284D03*
D17*
X138100504Y-72013284D03*
X138100504Y-77093284D03*
X138100504Y-82173284D03*
X138100504Y-87253284D03*
X138100504Y-92333284D03*
X163500504Y-92333284D03*
X163500504Y-87253284D03*
X163500504Y-82173284D03*
X163500504Y-77093284D03*
X163500504Y-72013284D03*
X163500504Y-66933284D03*
%TD*%
D18*
%TO.C,Q1*%
X115748504Y-58992284D03*
D19*
X118288504Y-58992284D03*
X120828504Y-58992284D03*
%TD*%
D10*
%TO.C,R9*%
X120828504Y-64012284D03*
X105588504Y-64012284D03*
%TD*%
%TO.C,C3*%
X125273504Y-90007284D03*
X125273504Y-85007284D03*
%TD*%
D13*
%TO.C,H4*%
X175844200Y-99364800D03*
%TD*%
D10*
%TO.C,C2*%
X108128504Y-90642284D03*
X108128504Y-85642284D03*
%TD*%
D20*
%TO.C,Q3*%
X105588504Y-95402284D03*
D21*
X103048504Y-95402284D03*
X100508504Y-95402284D03*
%TD*%
D10*
%TO.C,R3*%
X108763504Y-92587284D03*
X116383504Y-92587284D03*
%TD*%
D22*
%TO.C,U1*%
X110998000Y-90165000D03*
D10*
X113538000Y-90165000D03*
X116078000Y-90165000D03*
X118618000Y-90165000D03*
X118618000Y-82545000D03*
X116078000Y-82545000D03*
X113538000Y-82545000D03*
X110998000Y-82545000D03*
%TD*%
%TO.C,C6*%
X100125853Y-72902284D03*
X103625853Y-72902284D03*
%TD*%
D13*
%TO.C,H3*%
X97917000Y-99237800D03*
%TD*%
D10*
%TO.C,C9*%
X158583000Y-91897200D03*
X153583000Y-91897200D03*
%TD*%
%TO.C,R8*%
X110033504Y-76712284D03*
X110033504Y-69092284D03*
%TD*%
%TO.C,R6*%
X122733504Y-77347284D03*
X122733504Y-64647284D03*
%TD*%
%TO.C,R13*%
X126543504Y-64647284D03*
X126543504Y-72267284D03*
%TD*%
%TO.C,R2*%
X116383504Y-95127284D03*
X108763504Y-95127284D03*
%TD*%
D23*
%TO.C,F1*%
X170598504Y-61472284D03*
X163838504Y-61472284D03*
D24*
X156558504Y-61472284D03*
X149798504Y-61472284D03*
%TD*%
D10*
%TO.C,R12*%
X104953504Y-85602284D03*
X104953504Y-77982284D03*
%TD*%
D25*
%TO.C,VR1*%
X124638504Y-94487284D03*
X122098504Y-94487284D03*
X119558504Y-94487284D03*
%TD*%
D18*
%TO.C,Q2*%
X135433504Y-58992284D03*
D19*
X137973504Y-58992284D03*
X140513504Y-58992284D03*
%TD*%
D10*
%TO.C,R7*%
X113208504Y-69092284D03*
X113208504Y-76712284D03*
%TD*%
D26*
%TO.C,D2*%
X107315000Y-76835000D03*
D12*
X107315000Y-69215000D03*
%TD*%
D13*
%TO.C,H1*%
X97815400Y-56438800D03*
%TD*%
D27*
%TO.C,D4*%
X159563504Y-96397284D03*
D12*
X169723504Y-96397284D03*
%TD*%
D10*
%TO.C,R14*%
X110668504Y-60202284D03*
X103048504Y-60202284D03*
%TD*%
%TO.C,C7*%
X130048000Y-80984961D03*
X130048000Y-75984961D03*
%TD*%
%LPD*%
M02*
