%TF.GenerationSoftware,KiCad,Pcbnew,9.0.6+1*%
%TF.CreationDate,Date%
%TF.ProjectId,StepUp_module_12to450V,53746570-5570-45f6-9d6f-64756c655f31,+ (Unreleased)*%
%TF.SameCoordinates,Original*%
%TF.FileFunction,Legend,Top*%
%TF.FilePolarity,Positive*%
%FSLAX46Y46*%
G04 Gerber Fmt 4.6, Leading zero omitted, Abs format (unit mm)*
G04 Created by KiCad*
%MOMM*%
%LPD*%
G01*
G04 APERTURE LIST*
G04 Aperture macros list*
%AMRoundRect*
0 Rectangle with rounded corners*
0 $1 Rounding radius*
0 $2 $3 $4 $5 $6 $7 $8 $9 X,Y pos of 4 corners*
0 Add a 4 corners polygon primitive as box body*
4,1,4,$2,$3,$4,$5,$6,$7,$8,$9,$2,$3,0*
0 Add four circle primitives for the rounded corners*
1,1,$1+$1,$2,$3*
1,1,$1+$1,$4,$5*
1,1,$1+$1,$6,$7*
1,1,$1+$1,$8,$9*
0 Add four rect primitives between the rounded corners*
20,1,$1+$1,$2,$3,$4,$5,0*
20,1,$1+$1,$4,$5,$6,$7,0*
20,1,$1+$1,$6,$7,$8,$9,0*
20,1,$1+$1,$8,$9,$2,$3,0*%
G04 Aperture macros list end*
%ADD10C,0.150000*%
%ADD11C,0.100000*%
%ADD12C,0.120000*%
%ADD13C,1.700000*%
%ADD14RoundRect,0.050000X-0.900000X-0.900000X0.900000X-0.900000X0.900000X0.900000X-0.900000X0.900000X0*%
%ADD15C,1.900000*%
%ADD16RoundRect,0.258929X1.191071X-1.191071X1.191071X1.191071X-1.191071X1.191071X-1.191071X-1.191071X0*%
%ADD17C,2.900000*%
%ADD18RoundRect,0.262500X-0.787500X-0.787500X0.787500X-0.787500X0.787500X0.787500X-0.787500X0.787500X0*%
%ADD19C,2.100000*%
%ADD20RoundRect,0.050000X-1.000000X1.000000X-1.000000X-1.000000X1.000000X-1.000000X1.000000X1.000000X0*%
%ADD21RoundRect,0.050000X-0.952500X-1.000000X0.952500X-1.000000X0.952500X1.000000X-0.952500X1.000000X0*%
%ADD22O,2.005000X2.100000*%
%ADD23RoundRect,0.050000X0.750000X0.750000X-0.750000X0.750000X-0.750000X-0.750000X0.750000X-0.750000X0*%
%ADD24C,1.600000*%
%ADD25RoundRect,0.265625X-0.584375X-0.584375X0.584375X-0.584375X0.584375X0.584375X-0.584375X0.584375X0*%
%ADD26RoundRect,0.700000X0.700000X0.700000X-0.700000X0.700000X-0.700000X-0.700000X0.700000X-0.700000X0*%
%ADD27C,2.800000*%
%ADD28C,1.540000*%
%ADD29RoundRect,0.265625X0.584375X-0.584375X0.584375X0.584375X-0.584375X0.584375X-0.584375X-0.584375X0*%
%ADD30RoundRect,0.263889X-0.686111X-0.686111X0.686111X-0.686111X0.686111X0.686111X-0.686111X0.686111X0*%
%ADD31RoundRect,0.262500X0.787500X-0.787500X0.787500X0.787500X-0.787500X0.787500X-0.787500X-0.787500X0*%
G04 APERTURE END LIST*
D10*
X119231580Y-79160666D02*
X119279200Y-79208285D01*
X119279200Y-79208285D02*
X119326819Y-79351142D01*
X119326819Y-79351142D02*
X119326819Y-79446380D01*
X119326819Y-79446380D02*
X119279200Y-79589237D01*
X119279200Y-79589237D02*
X119183961Y-79684475D01*
X119183961Y-79684475D02*
X119088723Y-79732094D01*
X119088723Y-79732094D02*
X118898247Y-79779713D01*
X118898247Y-79779713D02*
X118755390Y-79779713D01*
X118755390Y-79779713D02*
X118564914Y-79732094D01*
X118564914Y-79732094D02*
X118469676Y-79684475D01*
X118469676Y-79684475D02*
X118374438Y-79589237D01*
X118374438Y-79589237D02*
X118326819Y-79446380D01*
X118326819Y-79446380D02*
X118326819Y-79351142D01*
X118326819Y-79351142D02*
X118374438Y-79208285D01*
X118374438Y-79208285D02*
X118422057Y-79160666D01*
X118660152Y-78303523D02*
X119326819Y-78303523D01*
X118279200Y-78541618D02*
X118993485Y-78779713D01*
X118993485Y-78779713D02*
X118993485Y-78160666D01*
X133977142Y-96974819D02*
X133643809Y-96498628D01*
X133405714Y-96974819D02*
X133405714Y-95974819D01*
X133405714Y-95974819D02*
X133786666Y-95974819D01*
X133786666Y-95974819D02*
X133881904Y-96022438D01*
X133881904Y-96022438D02*
X133929523Y-96070057D01*
X133929523Y-96070057D02*
X133977142Y-96165295D01*
X133977142Y-96165295D02*
X133977142Y-96308152D01*
X133977142Y-96308152D02*
X133929523Y-96403390D01*
X133929523Y-96403390D02*
X133881904Y-96451009D01*
X133881904Y-96451009D02*
X133786666Y-96498628D01*
X133786666Y-96498628D02*
X133405714Y-96498628D01*
X134929523Y-96974819D02*
X134358095Y-96974819D01*
X134643809Y-96974819D02*
X134643809Y-95974819D01*
X134643809Y-95974819D02*
X134548571Y-96117676D01*
X134548571Y-96117676D02*
X134453333Y-96212914D01*
X134453333Y-96212914D02*
X134358095Y-96260533D01*
X135881904Y-96974819D02*
X135310476Y-96974819D01*
X135596190Y-96974819D02*
X135596190Y-95974819D01*
X135596190Y-95974819D02*
X135500952Y-96117676D01*
X135500952Y-96117676D02*
X135405714Y-96212914D01*
X135405714Y-96212914D02*
X135310476Y-96260533D01*
X102957333Y-92307580D02*
X102909714Y-92355200D01*
X102909714Y-92355200D02*
X102766857Y-92402819D01*
X102766857Y-92402819D02*
X102671619Y-92402819D01*
X102671619Y-92402819D02*
X102528762Y-92355200D01*
X102528762Y-92355200D02*
X102433524Y-92259961D01*
X102433524Y-92259961D02*
X102385905Y-92164723D01*
X102385905Y-92164723D02*
X102338286Y-91974247D01*
X102338286Y-91974247D02*
X102338286Y-91831390D01*
X102338286Y-91831390D02*
X102385905Y-91640914D01*
X102385905Y-91640914D02*
X102433524Y-91545676D01*
X102433524Y-91545676D02*
X102528762Y-91450438D01*
X102528762Y-91450438D02*
X102671619Y-91402819D01*
X102671619Y-91402819D02*
X102766857Y-91402819D01*
X102766857Y-91402819D02*
X102909714Y-91450438D01*
X102909714Y-91450438D02*
X102957333Y-91498057D01*
X103909714Y-92402819D02*
X103338286Y-92402819D01*
X103624000Y-92402819D02*
X103624000Y-91402819D01*
X103624000Y-91402819D02*
X103528762Y-91545676D01*
X103528762Y-91545676D02*
X103433524Y-91640914D01*
X103433524Y-91640914D02*
X103338286Y-91688533D01*
X105864819Y-88876094D02*
X104864819Y-88876094D01*
X104864819Y-88876094D02*
X104864819Y-88637999D01*
X104864819Y-88637999D02*
X104912438Y-88495142D01*
X104912438Y-88495142D02*
X105007676Y-88399904D01*
X105007676Y-88399904D02*
X105102914Y-88352285D01*
X105102914Y-88352285D02*
X105293390Y-88304666D01*
X105293390Y-88304666D02*
X105436247Y-88304666D01*
X105436247Y-88304666D02*
X105626723Y-88352285D01*
X105626723Y-88352285D02*
X105721961Y-88399904D01*
X105721961Y-88399904D02*
X105817200Y-88495142D01*
X105817200Y-88495142D02*
X105864819Y-88637999D01*
X105864819Y-88637999D02*
X105864819Y-88876094D01*
X104864819Y-87971332D02*
X104864819Y-87352285D01*
X104864819Y-87352285D02*
X105245771Y-87685618D01*
X105245771Y-87685618D02*
X105245771Y-87542761D01*
X105245771Y-87542761D02*
X105293390Y-87447523D01*
X105293390Y-87447523D02*
X105341009Y-87399904D01*
X105341009Y-87399904D02*
X105436247Y-87352285D01*
X105436247Y-87352285D02*
X105674342Y-87352285D01*
X105674342Y-87352285D02*
X105769580Y-87399904D01*
X105769580Y-87399904D02*
X105817200Y-87447523D01*
X105817200Y-87447523D02*
X105864819Y-87542761D01*
X105864819Y-87542761D02*
X105864819Y-87828475D01*
X105864819Y-87828475D02*
X105817200Y-87923713D01*
X105817200Y-87923713D02*
X105769580Y-87971332D01*
X149217142Y-96720819D02*
X148883809Y-96244628D01*
X148645714Y-96720819D02*
X148645714Y-95720819D01*
X148645714Y-95720819D02*
X149026666Y-95720819D01*
X149026666Y-95720819D02*
X149121904Y-95768438D01*
X149121904Y-95768438D02*
X149169523Y-95816057D01*
X149169523Y-95816057D02*
X149217142Y-95911295D01*
X149217142Y-95911295D02*
X149217142Y-96054152D01*
X149217142Y-96054152D02*
X149169523Y-96149390D01*
X149169523Y-96149390D02*
X149121904Y-96197009D01*
X149121904Y-96197009D02*
X149026666Y-96244628D01*
X149026666Y-96244628D02*
X148645714Y-96244628D01*
X150169523Y-96720819D02*
X149598095Y-96720819D01*
X149883809Y-96720819D02*
X149883809Y-95720819D01*
X149883809Y-95720819D02*
X149788571Y-95863676D01*
X149788571Y-95863676D02*
X149693333Y-95958914D01*
X149693333Y-95958914D02*
X149598095Y-96006533D01*
X150788571Y-95720819D02*
X150883809Y-95720819D01*
X150883809Y-95720819D02*
X150979047Y-95768438D01*
X150979047Y-95768438D02*
X151026666Y-95816057D01*
X151026666Y-95816057D02*
X151074285Y-95911295D01*
X151074285Y-95911295D02*
X151121904Y-96101771D01*
X151121904Y-96101771D02*
X151121904Y-96339866D01*
X151121904Y-96339866D02*
X151074285Y-96530342D01*
X151074285Y-96530342D02*
X151026666Y-96625580D01*
X151026666Y-96625580D02*
X150979047Y-96673200D01*
X150979047Y-96673200D02*
X150883809Y-96720819D01*
X150883809Y-96720819D02*
X150788571Y-96720819D01*
X150788571Y-96720819D02*
X150693333Y-96673200D01*
X150693333Y-96673200D02*
X150645714Y-96625580D01*
X150645714Y-96625580D02*
X150598095Y-96530342D01*
X150598095Y-96530342D02*
X150550476Y-96339866D01*
X150550476Y-96339866D02*
X150550476Y-96101771D01*
X150550476Y-96101771D02*
X150598095Y-95911295D01*
X150598095Y-95911295D02*
X150645714Y-95816057D01*
X150645714Y-95816057D02*
X150693333Y-95768438D01*
X150693333Y-95768438D02*
X150788571Y-95720819D01*
X166217323Y-75524617D02*
X166931608Y-75524617D01*
X166931608Y-75524617D02*
X167074465Y-75572236D01*
X167074465Y-75572236D02*
X167169704Y-75667474D01*
X167169704Y-75667474D02*
X167217323Y-75810331D01*
X167217323Y-75810331D02*
X167217323Y-75905569D01*
X167217323Y-74524617D02*
X167217323Y-75096045D01*
X167217323Y-74810331D02*
X166217323Y-74810331D01*
X166217323Y-74810331D02*
X166360180Y-74905569D01*
X166360180Y-74905569D02*
X166455418Y-75000807D01*
X166455418Y-75000807D02*
X166503037Y-75096045D01*
X131772819Y-87288666D02*
X131296628Y-87621999D01*
X131772819Y-87860094D02*
X130772819Y-87860094D01*
X130772819Y-87860094D02*
X130772819Y-87479142D01*
X130772819Y-87479142D02*
X130820438Y-87383904D01*
X130820438Y-87383904D02*
X130868057Y-87336285D01*
X130868057Y-87336285D02*
X130963295Y-87288666D01*
X130963295Y-87288666D02*
X131106152Y-87288666D01*
X131106152Y-87288666D02*
X131201390Y-87336285D01*
X131201390Y-87336285D02*
X131249009Y-87383904D01*
X131249009Y-87383904D02*
X131296628Y-87479142D01*
X131296628Y-87479142D02*
X131296628Y-87860094D01*
X131106152Y-86431523D02*
X131772819Y-86431523D01*
X130725200Y-86669618D02*
X131439485Y-86907713D01*
X131439485Y-86907713D02*
X131439485Y-86288666D01*
X124152819Y-82208666D02*
X123676628Y-82541999D01*
X124152819Y-82780094D02*
X123152819Y-82780094D01*
X123152819Y-82780094D02*
X123152819Y-82399142D01*
X123152819Y-82399142D02*
X123200438Y-82303904D01*
X123200438Y-82303904D02*
X123248057Y-82256285D01*
X123248057Y-82256285D02*
X123343295Y-82208666D01*
X123343295Y-82208666D02*
X123486152Y-82208666D01*
X123486152Y-82208666D02*
X123581390Y-82256285D01*
X123581390Y-82256285D02*
X123629009Y-82303904D01*
X123629009Y-82303904D02*
X123676628Y-82399142D01*
X123676628Y-82399142D02*
X123676628Y-82780094D01*
X123152819Y-81303904D02*
X123152819Y-81780094D01*
X123152819Y-81780094D02*
X123629009Y-81827713D01*
X123629009Y-81827713D02*
X123581390Y-81780094D01*
X123581390Y-81780094D02*
X123533771Y-81684856D01*
X123533771Y-81684856D02*
X123533771Y-81446761D01*
X123533771Y-81446761D02*
X123581390Y-81351523D01*
X123581390Y-81351523D02*
X123629009Y-81303904D01*
X123629009Y-81303904D02*
X123724247Y-81256285D01*
X123724247Y-81256285D02*
X123962342Y-81256285D01*
X123962342Y-81256285D02*
X124057580Y-81303904D01*
X124057580Y-81303904D02*
X124105200Y-81351523D01*
X124105200Y-81351523D02*
X124152819Y-81446761D01*
X124152819Y-81446761D02*
X124152819Y-81684856D01*
X124152819Y-81684856D02*
X124105200Y-81780094D01*
X124105200Y-81780094D02*
X124057580Y-81827713D01*
X116691580Y-79160666D02*
X116739200Y-79208285D01*
X116739200Y-79208285D02*
X116786819Y-79351142D01*
X116786819Y-79351142D02*
X116786819Y-79446380D01*
X116786819Y-79446380D02*
X116739200Y-79589237D01*
X116739200Y-79589237D02*
X116643961Y-79684475D01*
X116643961Y-79684475D02*
X116548723Y-79732094D01*
X116548723Y-79732094D02*
X116358247Y-79779713D01*
X116358247Y-79779713D02*
X116215390Y-79779713D01*
X116215390Y-79779713D02*
X116024914Y-79732094D01*
X116024914Y-79732094D02*
X115929676Y-79684475D01*
X115929676Y-79684475D02*
X115834438Y-79589237D01*
X115834438Y-79589237D02*
X115786819Y-79446380D01*
X115786819Y-79446380D02*
X115786819Y-79351142D01*
X115786819Y-79351142D02*
X115834438Y-79208285D01*
X115834438Y-79208285D02*
X115882057Y-79160666D01*
X115786819Y-78255904D02*
X115786819Y-78732094D01*
X115786819Y-78732094D02*
X116263009Y-78779713D01*
X116263009Y-78779713D02*
X116215390Y-78732094D01*
X116215390Y-78732094D02*
X116167771Y-78636856D01*
X116167771Y-78636856D02*
X116167771Y-78398761D01*
X116167771Y-78398761D02*
X116215390Y-78303523D01*
X116215390Y-78303523D02*
X116263009Y-78255904D01*
X116263009Y-78255904D02*
X116358247Y-78208285D01*
X116358247Y-78208285D02*
X116596342Y-78208285D01*
X116596342Y-78208285D02*
X116691580Y-78255904D01*
X116691580Y-78255904D02*
X116739200Y-78303523D01*
X116739200Y-78303523D02*
X116786819Y-78398761D01*
X116786819Y-78398761D02*
X116786819Y-78636856D01*
X116786819Y-78636856D02*
X116739200Y-78732094D01*
X116739200Y-78732094D02*
X116691580Y-78779713D01*
X166965333Y-86518149D02*
X166917714Y-86565769D01*
X166917714Y-86565769D02*
X166774857Y-86613388D01*
X166774857Y-86613388D02*
X166679619Y-86613388D01*
X166679619Y-86613388D02*
X166536762Y-86565769D01*
X166536762Y-86565769D02*
X166441524Y-86470530D01*
X166441524Y-86470530D02*
X166393905Y-86375292D01*
X166393905Y-86375292D02*
X166346286Y-86184816D01*
X166346286Y-86184816D02*
X166346286Y-86041959D01*
X166346286Y-86041959D02*
X166393905Y-85851483D01*
X166393905Y-85851483D02*
X166441524Y-85756245D01*
X166441524Y-85756245D02*
X166536762Y-85661007D01*
X166536762Y-85661007D02*
X166679619Y-85613388D01*
X166679619Y-85613388D02*
X166774857Y-85613388D01*
X166774857Y-85613388D02*
X166917714Y-85661007D01*
X166917714Y-85661007D02*
X166965333Y-85708626D01*
X167536762Y-86041959D02*
X167441524Y-85994340D01*
X167441524Y-85994340D02*
X167393905Y-85946721D01*
X167393905Y-85946721D02*
X167346286Y-85851483D01*
X167346286Y-85851483D02*
X167346286Y-85803864D01*
X167346286Y-85803864D02*
X167393905Y-85708626D01*
X167393905Y-85708626D02*
X167441524Y-85661007D01*
X167441524Y-85661007D02*
X167536762Y-85613388D01*
X167536762Y-85613388D02*
X167727238Y-85613388D01*
X167727238Y-85613388D02*
X167822476Y-85661007D01*
X167822476Y-85661007D02*
X167870095Y-85708626D01*
X167870095Y-85708626D02*
X167917714Y-85803864D01*
X167917714Y-85803864D02*
X167917714Y-85851483D01*
X167917714Y-85851483D02*
X167870095Y-85946721D01*
X167870095Y-85946721D02*
X167822476Y-85994340D01*
X167822476Y-85994340D02*
X167727238Y-86041959D01*
X167727238Y-86041959D02*
X167536762Y-86041959D01*
X167536762Y-86041959D02*
X167441524Y-86089578D01*
X167441524Y-86089578D02*
X167393905Y-86137197D01*
X167393905Y-86137197D02*
X167346286Y-86232435D01*
X167346286Y-86232435D02*
X167346286Y-86422911D01*
X167346286Y-86422911D02*
X167393905Y-86518149D01*
X167393905Y-86518149D02*
X167441524Y-86565769D01*
X167441524Y-86565769D02*
X167536762Y-86613388D01*
X167536762Y-86613388D02*
X167727238Y-86613388D01*
X167727238Y-86613388D02*
X167822476Y-86565769D01*
X167822476Y-86565769D02*
X167870095Y-86518149D01*
X167870095Y-86518149D02*
X167917714Y-86422911D01*
X167917714Y-86422911D02*
X167917714Y-86232435D01*
X167917714Y-86232435D02*
X167870095Y-86137197D01*
X167870095Y-86137197D02*
X167822476Y-86089578D01*
X167822476Y-86089578D02*
X167727238Y-86041959D01*
D11*
X149303084Y-78371379D02*
X149303084Y-78942807D01*
X148303084Y-78657093D02*
X149303084Y-78657093D01*
X148303084Y-79847569D02*
X148779275Y-79514236D01*
X148303084Y-79276141D02*
X149303084Y-79276141D01*
X149303084Y-79276141D02*
X149303084Y-79657093D01*
X149303084Y-79657093D02*
X149255465Y-79752331D01*
X149255465Y-79752331D02*
X149207846Y-79799950D01*
X149207846Y-79799950D02*
X149112608Y-79847569D01*
X149112608Y-79847569D02*
X148969751Y-79847569D01*
X148969751Y-79847569D02*
X148874513Y-79799950D01*
X148874513Y-79799950D02*
X148826894Y-79752331D01*
X148826894Y-79752331D02*
X148779275Y-79657093D01*
X148779275Y-79657093D02*
X148779275Y-79276141D01*
X148303084Y-80799950D02*
X148303084Y-80228522D01*
X148303084Y-80514236D02*
X149303084Y-80514236D01*
X149303084Y-80514236D02*
X149160227Y-80418998D01*
X149160227Y-80418998D02*
X149064989Y-80323760D01*
X149064989Y-80323760D02*
X149017370Y-80228522D01*
D10*
X124872761Y-58462057D02*
X124777523Y-58414438D01*
X124777523Y-58414438D02*
X124682285Y-58319200D01*
X124682285Y-58319200D02*
X124539428Y-58176342D01*
X124539428Y-58176342D02*
X124444190Y-58128723D01*
X124444190Y-58128723D02*
X124348952Y-58128723D01*
X124396571Y-58366819D02*
X124301333Y-58319200D01*
X124301333Y-58319200D02*
X124206095Y-58223961D01*
X124206095Y-58223961D02*
X124158476Y-58033485D01*
X124158476Y-58033485D02*
X124158476Y-57700152D01*
X124158476Y-57700152D02*
X124206095Y-57509676D01*
X124206095Y-57509676D02*
X124301333Y-57414438D01*
X124301333Y-57414438D02*
X124396571Y-57366819D01*
X124396571Y-57366819D02*
X124587047Y-57366819D01*
X124587047Y-57366819D02*
X124682285Y-57414438D01*
X124682285Y-57414438D02*
X124777523Y-57509676D01*
X124777523Y-57509676D02*
X124825142Y-57700152D01*
X124825142Y-57700152D02*
X124825142Y-58033485D01*
X124825142Y-58033485D02*
X124777523Y-58223961D01*
X124777523Y-58223961D02*
X124682285Y-58319200D01*
X124682285Y-58319200D02*
X124587047Y-58366819D01*
X124587047Y-58366819D02*
X124396571Y-58366819D01*
X125777523Y-58366819D02*
X125206095Y-58366819D01*
X125491809Y-58366819D02*
X125491809Y-57366819D01*
X125491809Y-57366819D02*
X125396571Y-57509676D01*
X125396571Y-57509676D02*
X125301333Y-57604914D01*
X125301333Y-57604914D02*
X125206095Y-57652533D01*
X113041837Y-64462819D02*
X112708504Y-63986628D01*
X112470409Y-64462819D02*
X112470409Y-63462819D01*
X112470409Y-63462819D02*
X112851361Y-63462819D01*
X112851361Y-63462819D02*
X112946599Y-63510438D01*
X112946599Y-63510438D02*
X112994218Y-63558057D01*
X112994218Y-63558057D02*
X113041837Y-63653295D01*
X113041837Y-63653295D02*
X113041837Y-63796152D01*
X113041837Y-63796152D02*
X112994218Y-63891390D01*
X112994218Y-63891390D02*
X112946599Y-63939009D01*
X112946599Y-63939009D02*
X112851361Y-63986628D01*
X112851361Y-63986628D02*
X112470409Y-63986628D01*
X113518028Y-64462819D02*
X113708504Y-64462819D01*
X113708504Y-64462819D02*
X113803742Y-64415200D01*
X113803742Y-64415200D02*
X113851361Y-64367580D01*
X113851361Y-64367580D02*
X113946599Y-64224723D01*
X113946599Y-64224723D02*
X113994218Y-64034247D01*
X113994218Y-64034247D02*
X113994218Y-63653295D01*
X113994218Y-63653295D02*
X113946599Y-63558057D01*
X113946599Y-63558057D02*
X113898980Y-63510438D01*
X113898980Y-63510438D02*
X113803742Y-63462819D01*
X113803742Y-63462819D02*
X113613266Y-63462819D01*
X113613266Y-63462819D02*
X113518028Y-63510438D01*
X113518028Y-63510438D02*
X113470409Y-63558057D01*
X113470409Y-63558057D02*
X113422790Y-63653295D01*
X113422790Y-63653295D02*
X113422790Y-63891390D01*
X113422790Y-63891390D02*
X113470409Y-63986628D01*
X113470409Y-63986628D02*
X113518028Y-64034247D01*
X113518028Y-64034247D02*
X113613266Y-64081866D01*
X113613266Y-64081866D02*
X113803742Y-64081866D01*
X113803742Y-64081866D02*
X113898980Y-64034247D01*
X113898980Y-64034247D02*
X113946599Y-63986628D01*
X113946599Y-63986628D02*
X113994218Y-63891390D01*
X125581580Y-82970666D02*
X125629200Y-83018285D01*
X125629200Y-83018285D02*
X125676819Y-83161142D01*
X125676819Y-83161142D02*
X125676819Y-83256380D01*
X125676819Y-83256380D02*
X125629200Y-83399237D01*
X125629200Y-83399237D02*
X125533961Y-83494475D01*
X125533961Y-83494475D02*
X125438723Y-83542094D01*
X125438723Y-83542094D02*
X125248247Y-83589713D01*
X125248247Y-83589713D02*
X125105390Y-83589713D01*
X125105390Y-83589713D02*
X124914914Y-83542094D01*
X124914914Y-83542094D02*
X124819676Y-83494475D01*
X124819676Y-83494475D02*
X124724438Y-83399237D01*
X124724438Y-83399237D02*
X124676819Y-83256380D01*
X124676819Y-83256380D02*
X124676819Y-83161142D01*
X124676819Y-83161142D02*
X124724438Y-83018285D01*
X124724438Y-83018285D02*
X124772057Y-82970666D01*
X124676819Y-82637332D02*
X124676819Y-82018285D01*
X124676819Y-82018285D02*
X125057771Y-82351618D01*
X125057771Y-82351618D02*
X125057771Y-82208761D01*
X125057771Y-82208761D02*
X125105390Y-82113523D01*
X125105390Y-82113523D02*
X125153009Y-82065904D01*
X125153009Y-82065904D02*
X125248247Y-82018285D01*
X125248247Y-82018285D02*
X125486342Y-82018285D01*
X125486342Y-82018285D02*
X125581580Y-82065904D01*
X125581580Y-82065904D02*
X125629200Y-82113523D01*
X125629200Y-82113523D02*
X125676819Y-82208761D01*
X125676819Y-82208761D02*
X125676819Y-82494475D01*
X125676819Y-82494475D02*
X125629200Y-82589713D01*
X125629200Y-82589713D02*
X125581580Y-82637332D01*
X108563580Y-88304666D02*
X108611200Y-88352285D01*
X108611200Y-88352285D02*
X108658819Y-88495142D01*
X108658819Y-88495142D02*
X108658819Y-88590380D01*
X108658819Y-88590380D02*
X108611200Y-88733237D01*
X108611200Y-88733237D02*
X108515961Y-88828475D01*
X108515961Y-88828475D02*
X108420723Y-88876094D01*
X108420723Y-88876094D02*
X108230247Y-88923713D01*
X108230247Y-88923713D02*
X108087390Y-88923713D01*
X108087390Y-88923713D02*
X107896914Y-88876094D01*
X107896914Y-88876094D02*
X107801676Y-88828475D01*
X107801676Y-88828475D02*
X107706438Y-88733237D01*
X107706438Y-88733237D02*
X107658819Y-88590380D01*
X107658819Y-88590380D02*
X107658819Y-88495142D01*
X107658819Y-88495142D02*
X107706438Y-88352285D01*
X107706438Y-88352285D02*
X107754057Y-88304666D01*
X107754057Y-87923713D02*
X107706438Y-87876094D01*
X107706438Y-87876094D02*
X107658819Y-87780856D01*
X107658819Y-87780856D02*
X107658819Y-87542761D01*
X107658819Y-87542761D02*
X107706438Y-87447523D01*
X107706438Y-87447523D02*
X107754057Y-87399904D01*
X107754057Y-87399904D02*
X107849295Y-87352285D01*
X107849295Y-87352285D02*
X107944533Y-87352285D01*
X107944533Y-87352285D02*
X108087390Y-87399904D01*
X108087390Y-87399904D02*
X108658819Y-87971332D01*
X108658819Y-87971332D02*
X108658819Y-87352285D01*
X102953265Y-99512341D02*
X102858027Y-99464722D01*
X102858027Y-99464722D02*
X102762789Y-99369484D01*
X102762789Y-99369484D02*
X102619932Y-99226626D01*
X102619932Y-99226626D02*
X102524694Y-99179007D01*
X102524694Y-99179007D02*
X102429456Y-99179007D01*
X102477075Y-99417103D02*
X102381837Y-99369484D01*
X102381837Y-99369484D02*
X102286599Y-99274245D01*
X102286599Y-99274245D02*
X102238980Y-99083769D01*
X102238980Y-99083769D02*
X102238980Y-98750436D01*
X102238980Y-98750436D02*
X102286599Y-98559960D01*
X102286599Y-98559960D02*
X102381837Y-98464722D01*
X102381837Y-98464722D02*
X102477075Y-98417103D01*
X102477075Y-98417103D02*
X102667551Y-98417103D01*
X102667551Y-98417103D02*
X102762789Y-98464722D01*
X102762789Y-98464722D02*
X102858027Y-98559960D01*
X102858027Y-98559960D02*
X102905646Y-98750436D01*
X102905646Y-98750436D02*
X102905646Y-99083769D01*
X102905646Y-99083769D02*
X102858027Y-99274245D01*
X102858027Y-99274245D02*
X102762789Y-99369484D01*
X102762789Y-99369484D02*
X102667551Y-99417103D01*
X102667551Y-99417103D02*
X102477075Y-99417103D01*
X103238980Y-98417103D02*
X103858027Y-98417103D01*
X103858027Y-98417103D02*
X103524694Y-98798055D01*
X103524694Y-98798055D02*
X103667551Y-98798055D01*
X103667551Y-98798055D02*
X103762789Y-98845674D01*
X103762789Y-98845674D02*
X103810408Y-98893293D01*
X103810408Y-98893293D02*
X103858027Y-98988531D01*
X103858027Y-98988531D02*
X103858027Y-99226626D01*
X103858027Y-99226626D02*
X103810408Y-99321864D01*
X103810408Y-99321864D02*
X103762789Y-99369484D01*
X103762789Y-99369484D02*
X103667551Y-99417103D01*
X103667551Y-99417103D02*
X103381837Y-99417103D01*
X103381837Y-99417103D02*
X103286599Y-99369484D01*
X103286599Y-99369484D02*
X103238980Y-99321864D01*
X112406837Y-91640819D02*
X112073504Y-91164628D01*
X111835409Y-91640819D02*
X111835409Y-90640819D01*
X111835409Y-90640819D02*
X112216361Y-90640819D01*
X112216361Y-90640819D02*
X112311599Y-90688438D01*
X112311599Y-90688438D02*
X112359218Y-90736057D01*
X112359218Y-90736057D02*
X112406837Y-90831295D01*
X112406837Y-90831295D02*
X112406837Y-90974152D01*
X112406837Y-90974152D02*
X112359218Y-91069390D01*
X112359218Y-91069390D02*
X112311599Y-91117009D01*
X112311599Y-91117009D02*
X112216361Y-91164628D01*
X112216361Y-91164628D02*
X111835409Y-91164628D01*
X112740171Y-90640819D02*
X113359218Y-90640819D01*
X113359218Y-90640819D02*
X113025885Y-91021771D01*
X113025885Y-91021771D02*
X113168742Y-91021771D01*
X113168742Y-91021771D02*
X113263980Y-91069390D01*
X113263980Y-91069390D02*
X113311599Y-91117009D01*
X113311599Y-91117009D02*
X113359218Y-91212247D01*
X113359218Y-91212247D02*
X113359218Y-91450342D01*
X113359218Y-91450342D02*
X113311599Y-91545580D01*
X113311599Y-91545580D02*
X113263980Y-91593200D01*
X113263980Y-91593200D02*
X113168742Y-91640819D01*
X113168742Y-91640819D02*
X112883028Y-91640819D01*
X112883028Y-91640819D02*
X112787790Y-91593200D01*
X112787790Y-91593200D02*
X112740171Y-91545580D01*
X101709186Y-68011864D02*
X101661567Y-68059484D01*
X101661567Y-68059484D02*
X101518710Y-68107103D01*
X101518710Y-68107103D02*
X101423472Y-68107103D01*
X101423472Y-68107103D02*
X101280615Y-68059484D01*
X101280615Y-68059484D02*
X101185377Y-67964245D01*
X101185377Y-67964245D02*
X101137758Y-67869007D01*
X101137758Y-67869007D02*
X101090139Y-67678531D01*
X101090139Y-67678531D02*
X101090139Y-67535674D01*
X101090139Y-67535674D02*
X101137758Y-67345198D01*
X101137758Y-67345198D02*
X101185377Y-67249960D01*
X101185377Y-67249960D02*
X101280615Y-67154722D01*
X101280615Y-67154722D02*
X101423472Y-67107103D01*
X101423472Y-67107103D02*
X101518710Y-67107103D01*
X101518710Y-67107103D02*
X101661567Y-67154722D01*
X101661567Y-67154722D02*
X101709186Y-67202341D01*
X102566329Y-67107103D02*
X102375853Y-67107103D01*
X102375853Y-67107103D02*
X102280615Y-67154722D01*
X102280615Y-67154722D02*
X102232996Y-67202341D01*
X102232996Y-67202341D02*
X102137758Y-67345198D01*
X102137758Y-67345198D02*
X102090139Y-67535674D01*
X102090139Y-67535674D02*
X102090139Y-67916626D01*
X102090139Y-67916626D02*
X102137758Y-68011864D01*
X102137758Y-68011864D02*
X102185377Y-68059484D01*
X102185377Y-68059484D02*
X102280615Y-68107103D01*
X102280615Y-68107103D02*
X102471091Y-68107103D01*
X102471091Y-68107103D02*
X102566329Y-68059484D01*
X102566329Y-68059484D02*
X102613948Y-68011864D01*
X102613948Y-68011864D02*
X102661567Y-67916626D01*
X102661567Y-67916626D02*
X102661567Y-67678531D01*
X102661567Y-67678531D02*
X102613948Y-67583293D01*
X102613948Y-67583293D02*
X102566329Y-67535674D01*
X102566329Y-67535674D02*
X102471091Y-67488055D01*
X102471091Y-67488055D02*
X102280615Y-67488055D01*
X102280615Y-67488055D02*
X102185377Y-67535674D01*
X102185377Y-67535674D02*
X102137758Y-67583293D01*
X102137758Y-67583293D02*
X102090139Y-67678531D01*
X110690819Y-79160666D02*
X110214628Y-79493999D01*
X110690819Y-79732094D02*
X109690819Y-79732094D01*
X109690819Y-79732094D02*
X109690819Y-79351142D01*
X109690819Y-79351142D02*
X109738438Y-79255904D01*
X109738438Y-79255904D02*
X109786057Y-79208285D01*
X109786057Y-79208285D02*
X109881295Y-79160666D01*
X109881295Y-79160666D02*
X110024152Y-79160666D01*
X110024152Y-79160666D02*
X110119390Y-79208285D01*
X110119390Y-79208285D02*
X110167009Y-79255904D01*
X110167009Y-79255904D02*
X110214628Y-79351142D01*
X110214628Y-79351142D02*
X110214628Y-79732094D01*
X110119390Y-78589237D02*
X110071771Y-78684475D01*
X110071771Y-78684475D02*
X110024152Y-78732094D01*
X110024152Y-78732094D02*
X109928914Y-78779713D01*
X109928914Y-78779713D02*
X109881295Y-78779713D01*
X109881295Y-78779713D02*
X109786057Y-78732094D01*
X109786057Y-78732094D02*
X109738438Y-78684475D01*
X109738438Y-78684475D02*
X109690819Y-78589237D01*
X109690819Y-78589237D02*
X109690819Y-78398761D01*
X109690819Y-78398761D02*
X109738438Y-78303523D01*
X109738438Y-78303523D02*
X109786057Y-78255904D01*
X109786057Y-78255904D02*
X109881295Y-78208285D01*
X109881295Y-78208285D02*
X109928914Y-78208285D01*
X109928914Y-78208285D02*
X110024152Y-78255904D01*
X110024152Y-78255904D02*
X110071771Y-78303523D01*
X110071771Y-78303523D02*
X110119390Y-78398761D01*
X110119390Y-78398761D02*
X110119390Y-78589237D01*
X110119390Y-78589237D02*
X110167009Y-78684475D01*
X110167009Y-78684475D02*
X110214628Y-78732094D01*
X110214628Y-78732094D02*
X110309866Y-78779713D01*
X110309866Y-78779713D02*
X110500342Y-78779713D01*
X110500342Y-78779713D02*
X110595580Y-78732094D01*
X110595580Y-78732094D02*
X110643200Y-78684475D01*
X110643200Y-78684475D02*
X110690819Y-78589237D01*
X110690819Y-78589237D02*
X110690819Y-78398761D01*
X110690819Y-78398761D02*
X110643200Y-78303523D01*
X110643200Y-78303523D02*
X110595580Y-78255904D01*
X110595580Y-78255904D02*
X110500342Y-78208285D01*
X110500342Y-78208285D02*
X110309866Y-78208285D01*
X110309866Y-78208285D02*
X110214628Y-78255904D01*
X110214628Y-78255904D02*
X110167009Y-78303523D01*
X110167009Y-78303523D02*
X110119390Y-78398761D01*
X120596819Y-69508666D02*
X120120628Y-69841999D01*
X120596819Y-70080094D02*
X119596819Y-70080094D01*
X119596819Y-70080094D02*
X119596819Y-69699142D01*
X119596819Y-69699142D02*
X119644438Y-69603904D01*
X119644438Y-69603904D02*
X119692057Y-69556285D01*
X119692057Y-69556285D02*
X119787295Y-69508666D01*
X119787295Y-69508666D02*
X119930152Y-69508666D01*
X119930152Y-69508666D02*
X120025390Y-69556285D01*
X120025390Y-69556285D02*
X120073009Y-69603904D01*
X120073009Y-69603904D02*
X120120628Y-69699142D01*
X120120628Y-69699142D02*
X120120628Y-70080094D01*
X119596819Y-68651523D02*
X119596819Y-68841999D01*
X119596819Y-68841999D02*
X119644438Y-68937237D01*
X119644438Y-68937237D02*
X119692057Y-68984856D01*
X119692057Y-68984856D02*
X119834914Y-69080094D01*
X119834914Y-69080094D02*
X120025390Y-69127713D01*
X120025390Y-69127713D02*
X120406342Y-69127713D01*
X120406342Y-69127713D02*
X120501580Y-69080094D01*
X120501580Y-69080094D02*
X120549200Y-69032475D01*
X120549200Y-69032475D02*
X120596819Y-68937237D01*
X120596819Y-68937237D02*
X120596819Y-68746761D01*
X120596819Y-68746761D02*
X120549200Y-68651523D01*
X120549200Y-68651523D02*
X120501580Y-68603904D01*
X120501580Y-68603904D02*
X120406342Y-68556285D01*
X120406342Y-68556285D02*
X120168247Y-68556285D01*
X120168247Y-68556285D02*
X120073009Y-68603904D01*
X120073009Y-68603904D02*
X120025390Y-68651523D01*
X120025390Y-68651523D02*
X119977771Y-68746761D01*
X119977771Y-68746761D02*
X119977771Y-68937237D01*
X119977771Y-68937237D02*
X120025390Y-69032475D01*
X120025390Y-69032475D02*
X120073009Y-69080094D01*
X120073009Y-69080094D02*
X120168247Y-69127713D01*
X129368323Y-69100141D02*
X128892132Y-69433474D01*
X129368323Y-69671569D02*
X128368323Y-69671569D01*
X128368323Y-69671569D02*
X128368323Y-69290617D01*
X128368323Y-69290617D02*
X128415942Y-69195379D01*
X128415942Y-69195379D02*
X128463561Y-69147760D01*
X128463561Y-69147760D02*
X128558799Y-69100141D01*
X128558799Y-69100141D02*
X128701656Y-69100141D01*
X128701656Y-69100141D02*
X128796894Y-69147760D01*
X128796894Y-69147760D02*
X128844513Y-69195379D01*
X128844513Y-69195379D02*
X128892132Y-69290617D01*
X128892132Y-69290617D02*
X128892132Y-69671569D01*
X129368323Y-68147760D02*
X129368323Y-68719188D01*
X129368323Y-68433474D02*
X128368323Y-68433474D01*
X128368323Y-68433474D02*
X128511180Y-68528712D01*
X128511180Y-68528712D02*
X128606418Y-68623950D01*
X128606418Y-68623950D02*
X128654037Y-68719188D01*
X128368323Y-67814426D02*
X128368323Y-67195379D01*
X128368323Y-67195379D02*
X128749275Y-67528712D01*
X128749275Y-67528712D02*
X128749275Y-67385855D01*
X128749275Y-67385855D02*
X128796894Y-67290617D01*
X128796894Y-67290617D02*
X128844513Y-67242998D01*
X128844513Y-67242998D02*
X128939751Y-67195379D01*
X128939751Y-67195379D02*
X129177846Y-67195379D01*
X129177846Y-67195379D02*
X129273084Y-67242998D01*
X129273084Y-67242998D02*
X129320704Y-67290617D01*
X129320704Y-67290617D02*
X129368323Y-67385855D01*
X129368323Y-67385855D02*
X129368323Y-67671569D01*
X129368323Y-67671569D02*
X129320704Y-67766807D01*
X129320704Y-67766807D02*
X129273084Y-67814426D01*
X112406837Y-97952103D02*
X112073504Y-97475912D01*
X111835409Y-97952103D02*
X111835409Y-96952103D01*
X111835409Y-96952103D02*
X112216361Y-96952103D01*
X112216361Y-96952103D02*
X112311599Y-96999722D01*
X112311599Y-96999722D02*
X112359218Y-97047341D01*
X112359218Y-97047341D02*
X112406837Y-97142579D01*
X112406837Y-97142579D02*
X112406837Y-97285436D01*
X112406837Y-97285436D02*
X112359218Y-97380674D01*
X112359218Y-97380674D02*
X112311599Y-97428293D01*
X112311599Y-97428293D02*
X112216361Y-97475912D01*
X112216361Y-97475912D02*
X111835409Y-97475912D01*
X112787790Y-97047341D02*
X112835409Y-96999722D01*
X112835409Y-96999722D02*
X112930647Y-96952103D01*
X112930647Y-96952103D02*
X113168742Y-96952103D01*
X113168742Y-96952103D02*
X113263980Y-96999722D01*
X113263980Y-96999722D02*
X113311599Y-97047341D01*
X113311599Y-97047341D02*
X113359218Y-97142579D01*
X113359218Y-97142579D02*
X113359218Y-97237817D01*
X113359218Y-97237817D02*
X113311599Y-97380674D01*
X113311599Y-97380674D02*
X112740171Y-97952103D01*
X112740171Y-97952103D02*
X113359218Y-97952103D01*
X173148666Y-58097009D02*
X172815333Y-58097009D01*
X172815333Y-58620819D02*
X172815333Y-57620819D01*
X172815333Y-57620819D02*
X173291523Y-57620819D01*
X174196285Y-58620819D02*
X173624857Y-58620819D01*
X173910571Y-58620819D02*
X173910571Y-57620819D01*
X173910571Y-57620819D02*
X173815333Y-57763676D01*
X173815333Y-57763676D02*
X173720095Y-57858914D01*
X173720095Y-57858914D02*
X173624857Y-57906533D01*
X103578819Y-81922857D02*
X103102628Y-82256190D01*
X103578819Y-82494285D02*
X102578819Y-82494285D01*
X102578819Y-82494285D02*
X102578819Y-82113333D01*
X102578819Y-82113333D02*
X102626438Y-82018095D01*
X102626438Y-82018095D02*
X102674057Y-81970476D01*
X102674057Y-81970476D02*
X102769295Y-81922857D01*
X102769295Y-81922857D02*
X102912152Y-81922857D01*
X102912152Y-81922857D02*
X103007390Y-81970476D01*
X103007390Y-81970476D02*
X103055009Y-82018095D01*
X103055009Y-82018095D02*
X103102628Y-82113333D01*
X103102628Y-82113333D02*
X103102628Y-82494285D01*
X103578819Y-80970476D02*
X103578819Y-81541904D01*
X103578819Y-81256190D02*
X102578819Y-81256190D01*
X102578819Y-81256190D02*
X102721676Y-81351428D01*
X102721676Y-81351428D02*
X102816914Y-81446666D01*
X102816914Y-81446666D02*
X102864533Y-81541904D01*
X102674057Y-80589523D02*
X102626438Y-80541904D01*
X102626438Y-80541904D02*
X102578819Y-80446666D01*
X102578819Y-80446666D02*
X102578819Y-80208571D01*
X102578819Y-80208571D02*
X102626438Y-80113333D01*
X102626438Y-80113333D02*
X102674057Y-80065714D01*
X102674057Y-80065714D02*
X102769295Y-80018095D01*
X102769295Y-80018095D02*
X102864533Y-80018095D01*
X102864533Y-80018095D02*
X103007390Y-80065714D01*
X103007390Y-80065714D02*
X103578819Y-80637142D01*
X103578819Y-80637142D02*
X103578819Y-80018095D01*
X120788980Y-97498819D02*
X121122313Y-98498819D01*
X121122313Y-98498819D02*
X121455646Y-97498819D01*
X122360408Y-98498819D02*
X122027075Y-98022628D01*
X121788980Y-98498819D02*
X121788980Y-97498819D01*
X121788980Y-97498819D02*
X122169932Y-97498819D01*
X122169932Y-97498819D02*
X122265170Y-97546438D01*
X122265170Y-97546438D02*
X122312789Y-97594057D01*
X122312789Y-97594057D02*
X122360408Y-97689295D01*
X122360408Y-97689295D02*
X122360408Y-97832152D01*
X122360408Y-97832152D02*
X122312789Y-97927390D01*
X122312789Y-97927390D02*
X122265170Y-97975009D01*
X122265170Y-97975009D02*
X122169932Y-98022628D01*
X122169932Y-98022628D02*
X121788980Y-98022628D01*
X123312789Y-98498819D02*
X122741361Y-98498819D01*
X123027075Y-98498819D02*
X123027075Y-97498819D01*
X123027075Y-97498819D02*
X122931837Y-97641676D01*
X122931837Y-97641676D02*
X122836599Y-97736914D01*
X122836599Y-97736914D02*
X122741361Y-97784533D01*
X144430761Y-58716057D02*
X144335523Y-58668438D01*
X144335523Y-58668438D02*
X144240285Y-58573200D01*
X144240285Y-58573200D02*
X144097428Y-58430342D01*
X144097428Y-58430342D02*
X144002190Y-58382723D01*
X144002190Y-58382723D02*
X143906952Y-58382723D01*
X143954571Y-58620819D02*
X143859333Y-58573200D01*
X143859333Y-58573200D02*
X143764095Y-58477961D01*
X143764095Y-58477961D02*
X143716476Y-58287485D01*
X143716476Y-58287485D02*
X143716476Y-57954152D01*
X143716476Y-57954152D02*
X143764095Y-57763676D01*
X143764095Y-57763676D02*
X143859333Y-57668438D01*
X143859333Y-57668438D02*
X143954571Y-57620819D01*
X143954571Y-57620819D02*
X144145047Y-57620819D01*
X144145047Y-57620819D02*
X144240285Y-57668438D01*
X144240285Y-57668438D02*
X144335523Y-57763676D01*
X144335523Y-57763676D02*
X144383142Y-57954152D01*
X144383142Y-57954152D02*
X144383142Y-58287485D01*
X144383142Y-58287485D02*
X144335523Y-58477961D01*
X144335523Y-58477961D02*
X144240285Y-58573200D01*
X144240285Y-58573200D02*
X144145047Y-58620819D01*
X144145047Y-58620819D02*
X143954571Y-58620819D01*
X144764095Y-57716057D02*
X144811714Y-57668438D01*
X144811714Y-57668438D02*
X144906952Y-57620819D01*
X144906952Y-57620819D02*
X145145047Y-57620819D01*
X145145047Y-57620819D02*
X145240285Y-57668438D01*
X145240285Y-57668438D02*
X145287904Y-57716057D01*
X145287904Y-57716057D02*
X145335523Y-57811295D01*
X145335523Y-57811295D02*
X145335523Y-57906533D01*
X145335523Y-57906533D02*
X145287904Y-58049390D01*
X145287904Y-58049390D02*
X144716476Y-58620819D01*
X144716476Y-58620819D02*
X145335523Y-58620819D01*
X114554095Y-85560819D02*
X114554095Y-86370342D01*
X114554095Y-86370342D02*
X114601714Y-86465580D01*
X114601714Y-86465580D02*
X114649333Y-86513200D01*
X114649333Y-86513200D02*
X114744571Y-86560819D01*
X114744571Y-86560819D02*
X114935047Y-86560819D01*
X114935047Y-86560819D02*
X115030285Y-86513200D01*
X115030285Y-86513200D02*
X115077904Y-86465580D01*
X115077904Y-86465580D02*
X115125523Y-86370342D01*
X115125523Y-86370342D02*
X115125523Y-85560819D01*
X116125523Y-86560819D02*
X115554095Y-86560819D01*
X115839809Y-86560819D02*
X115839809Y-85560819D01*
X115839809Y-85560819D02*
X115744571Y-85703676D01*
X115744571Y-85703676D02*
X115649333Y-85798914D01*
X115649333Y-85798914D02*
X115554095Y-85846533D01*
X113738819Y-79160666D02*
X113262628Y-79493999D01*
X113738819Y-79732094D02*
X112738819Y-79732094D01*
X112738819Y-79732094D02*
X112738819Y-79351142D01*
X112738819Y-79351142D02*
X112786438Y-79255904D01*
X112786438Y-79255904D02*
X112834057Y-79208285D01*
X112834057Y-79208285D02*
X112929295Y-79160666D01*
X112929295Y-79160666D02*
X113072152Y-79160666D01*
X113072152Y-79160666D02*
X113167390Y-79208285D01*
X113167390Y-79208285D02*
X113215009Y-79255904D01*
X113215009Y-79255904D02*
X113262628Y-79351142D01*
X113262628Y-79351142D02*
X113262628Y-79732094D01*
X112738819Y-78827332D02*
X112738819Y-78160666D01*
X112738819Y-78160666D02*
X113738819Y-78589237D01*
X164107905Y-96974819D02*
X164107905Y-95974819D01*
X164107905Y-95974819D02*
X164346000Y-95974819D01*
X164346000Y-95974819D02*
X164488857Y-96022438D01*
X164488857Y-96022438D02*
X164584095Y-96117676D01*
X164584095Y-96117676D02*
X164631714Y-96212914D01*
X164631714Y-96212914D02*
X164679333Y-96403390D01*
X164679333Y-96403390D02*
X164679333Y-96546247D01*
X164679333Y-96546247D02*
X164631714Y-96736723D01*
X164631714Y-96736723D02*
X164584095Y-96831961D01*
X164584095Y-96831961D02*
X164488857Y-96927200D01*
X164488857Y-96927200D02*
X164346000Y-96974819D01*
X164346000Y-96974819D02*
X164107905Y-96974819D01*
X165536476Y-96308152D02*
X165536476Y-96974819D01*
X165298381Y-95927200D02*
X165060286Y-96641485D01*
X165060286Y-96641485D02*
X165679333Y-96641485D01*
X159301599Y-94952103D02*
X159301599Y-93952103D01*
X159873027Y-94952103D02*
X159444456Y-94380674D01*
X159873027Y-93952103D02*
X159301599Y-94523531D01*
X106215646Y-58112819D02*
X105882313Y-57636628D01*
X105644218Y-58112819D02*
X105644218Y-57112819D01*
X105644218Y-57112819D02*
X106025170Y-57112819D01*
X106025170Y-57112819D02*
X106120408Y-57160438D01*
X106120408Y-57160438D02*
X106168027Y-57208057D01*
X106168027Y-57208057D02*
X106215646Y-57303295D01*
X106215646Y-57303295D02*
X106215646Y-57446152D01*
X106215646Y-57446152D02*
X106168027Y-57541390D01*
X106168027Y-57541390D02*
X106120408Y-57589009D01*
X106120408Y-57589009D02*
X106025170Y-57636628D01*
X106025170Y-57636628D02*
X105644218Y-57636628D01*
X107168027Y-58112819D02*
X106596599Y-58112819D01*
X106882313Y-58112819D02*
X106882313Y-57112819D01*
X106882313Y-57112819D02*
X106787075Y-57255676D01*
X106787075Y-57255676D02*
X106691837Y-57350914D01*
X106691837Y-57350914D02*
X106596599Y-57398533D01*
X108025170Y-57446152D02*
X108025170Y-58112819D01*
X107787075Y-57065200D02*
X107548980Y-57779485D01*
X107548980Y-57779485D02*
X108168027Y-57779485D01*
X130643333Y-72749580D02*
X130595714Y-72797200D01*
X130595714Y-72797200D02*
X130452857Y-72844819D01*
X130452857Y-72844819D02*
X130357619Y-72844819D01*
X130357619Y-72844819D02*
X130214762Y-72797200D01*
X130214762Y-72797200D02*
X130119524Y-72701961D01*
X130119524Y-72701961D02*
X130071905Y-72606723D01*
X130071905Y-72606723D02*
X130024286Y-72416247D01*
X130024286Y-72416247D02*
X130024286Y-72273390D01*
X130024286Y-72273390D02*
X130071905Y-72082914D01*
X130071905Y-72082914D02*
X130119524Y-71987676D01*
X130119524Y-71987676D02*
X130214762Y-71892438D01*
X130214762Y-71892438D02*
X130357619Y-71844819D01*
X130357619Y-71844819D02*
X130452857Y-71844819D01*
X130452857Y-71844819D02*
X130595714Y-71892438D01*
X130595714Y-71892438D02*
X130643333Y-71940057D01*
X130976667Y-71844819D02*
X131643333Y-71844819D01*
X131643333Y-71844819D02*
X131214762Y-72844819D01*
D12*
%TO.C,C4*%
X117803504Y-70552284D02*
X120043504Y-70552284D01*
X117803504Y-77792284D02*
X117803504Y-70552284D01*
X120043504Y-70552284D02*
X120043504Y-77792284D01*
X120043504Y-77792284D02*
X117803504Y-77792284D01*
%TO.C,R11*%
X128853504Y-96397284D02*
X129543504Y-96397284D01*
X139473504Y-96397284D02*
X138783504Y-96397284D01*
X129543504Y-94677284D02*
X138783504Y-94677284D01*
X138783504Y-98117284D01*
X129543504Y-98117284D01*
X129543504Y-94677284D01*
%TO.C,C1*%
X99468504Y-90832284D02*
X106708504Y-90832284D01*
X99468504Y-93072284D02*
X99468504Y-90832284D01*
X106708504Y-90832284D02*
X106708504Y-93072284D01*
X106708504Y-93072284D02*
X99468504Y-93072284D01*
%TO.C,D3*%
X100853504Y-86906284D02*
X100853504Y-87062284D01*
X100853504Y-89222284D02*
X100853504Y-89378284D01*
X100853504Y-86906768D02*
G75*
G02*
X104084941Y-87062284I1560000J-1235516D01*
G01*
X101372543Y-87062284D02*
G75*
G02*
X103454465Y-87062284I1040961J-1080000D01*
G01*
X103454465Y-89222284D02*
G75*
G02*
X101372543Y-89222284I-1040961J1080000D01*
G01*
X104084941Y-89222284D02*
G75*
G02*
X100853504Y-89377800I-1671437J1080000D01*
G01*
%TO.C,R10*%
X144728504Y-96397284D02*
X145418504Y-96397284D01*
X155348504Y-96397284D02*
X154658504Y-96397284D01*
X145418504Y-94677284D02*
X154658504Y-94677284D01*
X154658504Y-98117284D01*
X145418504Y-98117284D01*
X145418504Y-94677284D01*
%TO.C,J1*%
X167762504Y-64821284D02*
X175802504Y-64821284D01*
X167762504Y-85561284D02*
X167762504Y-64821284D01*
X171382504Y-65629284D02*
X171382504Y-64821284D01*
X171382504Y-70629284D02*
X171382504Y-69253284D01*
X171382504Y-75629284D02*
X171382504Y-74253284D01*
X171382504Y-80561284D02*
X171382504Y-79253284D01*
X171382504Y-85561284D02*
X171382504Y-84321284D01*
X172382504Y-65629284D02*
X172382504Y-64821284D01*
X172382504Y-70629284D02*
X172382504Y-69253284D01*
X172382504Y-75629284D02*
X172382504Y-74253284D01*
X172382504Y-80561284D02*
X172382504Y-79253284D01*
X172382504Y-85561284D02*
X172382504Y-84321284D01*
X173682504Y-66898284D02*
X173682504Y-64821284D01*
X173682504Y-71898284D02*
X173682504Y-67984284D01*
X173682504Y-76898284D02*
X173682504Y-72984284D01*
X173682504Y-80561284D02*
X173682504Y-77984284D01*
X173682504Y-85561284D02*
X173682504Y-84321284D01*
X175802504Y-64821284D02*
X175802504Y-82141284D01*
X175802504Y-82741284D02*
X175802504Y-85561284D01*
X175802504Y-85561284D02*
X167762504Y-85561284D01*
X176412504Y-82881284D02*
X175802504Y-82441284D01*
X176412504Y-82001284D01*
X176412504Y-82881284D01*
G36*
X176412504Y-82881284D02*
G01*
X175802504Y-82441284D01*
X176412504Y-82001284D01*
X176412504Y-82881284D01*
G37*
%TO.C,R4*%
X127713504Y-86142284D02*
X128043504Y-86142284D01*
X127713504Y-92682284D02*
X127713504Y-86142284D01*
X128043504Y-92682284D02*
X127713504Y-92682284D01*
X130123504Y-92682284D02*
X130453504Y-92682284D01*
X130453504Y-86142284D02*
X130123504Y-86142284D01*
X130453504Y-92682284D02*
X130453504Y-86142284D01*
%TO.C,R5*%
X120728504Y-82967284D02*
X121058504Y-82967284D01*
X120728504Y-89507284D02*
X120728504Y-82967284D01*
X121058504Y-89507284D02*
X120728504Y-89507284D01*
X123138504Y-89507284D02*
X123468504Y-89507284D01*
X123468504Y-82967284D02*
X123138504Y-82967284D01*
X123468504Y-89507284D02*
X123468504Y-82967284D01*
%TO.C,C5*%
X115263504Y-70592284D02*
X117503504Y-70592284D01*
X115263504Y-77832284D02*
X115263504Y-70592284D01*
X117503504Y-70592284D02*
X117503504Y-77832284D01*
X117503504Y-77832284D02*
X115263504Y-77832284D01*
%TO.C,C8*%
X166281181Y-87807284D02*
X167281181Y-87807284D01*
X166781181Y-87307284D02*
X166781181Y-88307284D01*
X171760827Y-85602284D02*
X171760827Y-95762284D01*
X171800827Y-85602284D02*
X171800827Y-95762284D01*
X171840827Y-85603284D02*
X171840827Y-95761284D01*
X171880827Y-85603284D02*
X171880827Y-95761284D01*
X171920827Y-85605284D02*
X171920827Y-95759284D01*
X171960827Y-85606284D02*
X171960827Y-95758284D01*
X172000827Y-85608284D02*
X172000827Y-95756284D01*
X172040827Y-85610284D02*
X172040827Y-95754284D01*
X172080827Y-85612284D02*
X172080827Y-95752284D01*
X172120827Y-85615284D02*
X172120827Y-95749284D01*
X172160827Y-85618284D02*
X172160827Y-95746284D01*
X172200827Y-85621284D02*
X172200827Y-95743284D01*
X172240827Y-85625284D02*
X172240827Y-95739284D01*
X172280827Y-85628284D02*
X172280827Y-95736284D01*
X172320827Y-85633284D02*
X172320827Y-95731284D01*
X172360827Y-85637284D02*
X172360827Y-95727284D01*
X172400827Y-85642284D02*
X172400827Y-95722284D01*
X172440827Y-85647284D02*
X172440827Y-95717284D01*
X172480827Y-85653284D02*
X172480827Y-95711284D01*
X172520827Y-85659284D02*
X172520827Y-95705284D01*
X172560827Y-85665284D02*
X172560827Y-95699284D01*
X172600827Y-85671284D02*
X172600827Y-95693284D01*
X172640827Y-85678284D02*
X172640827Y-95686284D01*
X172680827Y-85685284D02*
X172680827Y-95679284D01*
X172720827Y-85693284D02*
X172720827Y-95671284D01*
X172760827Y-85701284D02*
X172760827Y-95663284D01*
X172800827Y-85709284D02*
X172800827Y-95655284D01*
X172840827Y-85717284D02*
X172840827Y-95647284D01*
X172880827Y-85726284D02*
X172880827Y-95638284D01*
X172920827Y-85735284D02*
X172920827Y-95629284D01*
X172960827Y-85745284D02*
X172960827Y-95619284D01*
X173000827Y-85754284D02*
X173000827Y-95610284D01*
X173040827Y-85765284D02*
X173040827Y-89442284D01*
X173040827Y-91922284D02*
X173040827Y-95599284D01*
X173080827Y-85775284D02*
X173080827Y-89442284D01*
X173080827Y-91922284D02*
X173080827Y-95589284D01*
X173120827Y-85786284D02*
X173120827Y-89442284D01*
X173120827Y-91922284D02*
X173120827Y-95578284D01*
X173160827Y-85797284D02*
X173160827Y-89442284D01*
X173160827Y-91922284D02*
X173160827Y-95567284D01*
X173200827Y-85809284D02*
X173200827Y-89442284D01*
X173200827Y-91922284D02*
X173200827Y-95555284D01*
X173240827Y-85821284D02*
X173240827Y-89442284D01*
X173240827Y-91922284D02*
X173240827Y-95543284D01*
X173280827Y-85833284D02*
X173280827Y-89442284D01*
X173280827Y-91922284D02*
X173280827Y-95531284D01*
X173320827Y-85845284D02*
X173320827Y-89442284D01*
X173320827Y-91922284D02*
X173320827Y-95519284D01*
X173360827Y-85858284D02*
X173360827Y-89442284D01*
X173360827Y-91922284D02*
X173360827Y-95506284D01*
X173400827Y-85872284D02*
X173400827Y-89442284D01*
X173400827Y-91922284D02*
X173400827Y-95492284D01*
X173440827Y-85885284D02*
X173440827Y-89442284D01*
X173440827Y-91922284D02*
X173440827Y-95479284D01*
X173480827Y-85900284D02*
X173480827Y-89442284D01*
X173480827Y-91922284D02*
X173480827Y-95464284D01*
X173520827Y-85914284D02*
X173520827Y-89442284D01*
X173520827Y-91922284D02*
X173520827Y-95450284D01*
X173560827Y-85929284D02*
X173560827Y-89442284D01*
X173560827Y-91922284D02*
X173560827Y-95435284D01*
X173600827Y-85944284D02*
X173600827Y-89442284D01*
X173600827Y-91922284D02*
X173600827Y-95420284D01*
X173640827Y-85960284D02*
X173640827Y-89442284D01*
X173640827Y-91922284D02*
X173640827Y-95404284D01*
X173680827Y-85976284D02*
X173680827Y-89442284D01*
X173680827Y-91922284D02*
X173680827Y-95388284D01*
X173720827Y-85992284D02*
X173720827Y-89442284D01*
X173720827Y-91922284D02*
X173720827Y-95372284D01*
X173760827Y-86009284D02*
X173760827Y-89442284D01*
X173760827Y-91922284D02*
X173760827Y-95355284D01*
X173800827Y-86026284D02*
X173800827Y-89442284D01*
X173800827Y-91922284D02*
X173800827Y-95338284D01*
X173840827Y-86044284D02*
X173840827Y-89442284D01*
X173840827Y-91922284D02*
X173840827Y-95320284D01*
X173880827Y-86062284D02*
X173880827Y-89442284D01*
X173880827Y-91922284D02*
X173880827Y-95302284D01*
X173920827Y-86080284D02*
X173920827Y-89442284D01*
X173920827Y-91922284D02*
X173920827Y-95284284D01*
X173960827Y-86099284D02*
X173960827Y-89442284D01*
X173960827Y-91922284D02*
X173960827Y-95265284D01*
X174000827Y-86118284D02*
X174000827Y-89442284D01*
X174000827Y-91922284D02*
X174000827Y-95246284D01*
X174040827Y-86138284D02*
X174040827Y-89442284D01*
X174040827Y-91922284D02*
X174040827Y-95226284D01*
X174080827Y-86158284D02*
X174080827Y-89442284D01*
X174080827Y-91922284D02*
X174080827Y-95206284D01*
X174120827Y-86178284D02*
X174120827Y-89442284D01*
X174120827Y-91922284D02*
X174120827Y-95186284D01*
X174160827Y-86199284D02*
X174160827Y-89442284D01*
X174160827Y-91922284D02*
X174160827Y-95165284D01*
X174200827Y-86221284D02*
X174200827Y-89442284D01*
X174200827Y-91922284D02*
X174200827Y-95143284D01*
X174240827Y-86243284D02*
X174240827Y-89442284D01*
X174240827Y-91922284D02*
X174240827Y-95121284D01*
X174280827Y-86265284D02*
X174280827Y-89442284D01*
X174280827Y-91922284D02*
X174280827Y-95099284D01*
X174320827Y-86288284D02*
X174320827Y-89442284D01*
X174320827Y-91922284D02*
X174320827Y-95076284D01*
X174360827Y-86311284D02*
X174360827Y-89442284D01*
X174360827Y-91922284D02*
X174360827Y-95053284D01*
X174400827Y-86335284D02*
X174400827Y-89442284D01*
X174400827Y-91922284D02*
X174400827Y-95029284D01*
X174440827Y-86359284D02*
X174440827Y-89442284D01*
X174440827Y-91922284D02*
X174440827Y-95005284D01*
X174480827Y-86384284D02*
X174480827Y-89442284D01*
X174480827Y-91922284D02*
X174480827Y-94980284D01*
X174520827Y-86410284D02*
X174520827Y-89442284D01*
X174520827Y-91922284D02*
X174520827Y-94954284D01*
X174560827Y-86435284D02*
X174560827Y-89442284D01*
X174560827Y-91922284D02*
X174560827Y-94929284D01*
X174600827Y-86462284D02*
X174600827Y-89442284D01*
X174600827Y-91922284D02*
X174600827Y-94902284D01*
X174640827Y-86489284D02*
X174640827Y-89442284D01*
X174640827Y-91922284D02*
X174640827Y-94875284D01*
X174680827Y-86516284D02*
X174680827Y-89442284D01*
X174680827Y-91922284D02*
X174680827Y-94848284D01*
X174720827Y-86544284D02*
X174720827Y-89442284D01*
X174720827Y-91922284D02*
X174720827Y-94820284D01*
X174760827Y-86573284D02*
X174760827Y-89442284D01*
X174760827Y-91922284D02*
X174760827Y-94791284D01*
X174800827Y-86602284D02*
X174800827Y-89442284D01*
X174800827Y-91922284D02*
X174800827Y-94762284D01*
X174840827Y-86632284D02*
X174840827Y-89442284D01*
X174840827Y-91922284D02*
X174840827Y-94732284D01*
X174880827Y-86662284D02*
X174880827Y-89442284D01*
X174880827Y-91922284D02*
X174880827Y-94702284D01*
X174920827Y-86694284D02*
X174920827Y-89442284D01*
X174920827Y-91922284D02*
X174920827Y-94670284D01*
X174960827Y-86725284D02*
X174960827Y-89442284D01*
X174960827Y-91922284D02*
X174960827Y-94639284D01*
X175000827Y-86758284D02*
X175000827Y-89442284D01*
X175000827Y-91922284D02*
X175000827Y-94606284D01*
X175040827Y-86791284D02*
X175040827Y-89442284D01*
X175040827Y-91922284D02*
X175040827Y-94573284D01*
X175080827Y-86824284D02*
X175080827Y-89442284D01*
X175080827Y-91922284D02*
X175080827Y-94540284D01*
X175120827Y-86859284D02*
X175120827Y-89442284D01*
X175120827Y-91922284D02*
X175120827Y-94505284D01*
X175160827Y-86894284D02*
X175160827Y-89442284D01*
X175160827Y-91922284D02*
X175160827Y-94470284D01*
X175200827Y-86930284D02*
X175200827Y-89442284D01*
X175200827Y-91922284D02*
X175200827Y-94434284D01*
X175240827Y-86966284D02*
X175240827Y-89442284D01*
X175240827Y-91922284D02*
X175240827Y-94398284D01*
X175280827Y-87004284D02*
X175280827Y-89442284D01*
X175280827Y-91922284D02*
X175280827Y-94360284D01*
X175320827Y-87042284D02*
X175320827Y-89442284D01*
X175320827Y-91922284D02*
X175320827Y-94322284D01*
X175360827Y-87081284D02*
X175360827Y-89442284D01*
X175360827Y-91922284D02*
X175360827Y-94283284D01*
X175400827Y-87121284D02*
X175400827Y-89442284D01*
X175400827Y-91922284D02*
X175400827Y-94243284D01*
X175440827Y-87162284D02*
X175440827Y-89442284D01*
X175440827Y-91922284D02*
X175440827Y-94202284D01*
X175480827Y-87204284D02*
X175480827Y-89442284D01*
X175480827Y-91922284D02*
X175480827Y-94160284D01*
X175520827Y-87247284D02*
X175520827Y-94117284D01*
X175560827Y-87291284D02*
X175560827Y-94073284D01*
X175600827Y-87335284D02*
X175600827Y-94029284D01*
X175640827Y-87381284D02*
X175640827Y-93983284D01*
X175680827Y-87428284D02*
X175680827Y-93936284D01*
X175720827Y-87477284D02*
X175720827Y-93887284D01*
X175760827Y-87526284D02*
X175760827Y-93838284D01*
X175800827Y-87577284D02*
X175800827Y-93787284D01*
X175840827Y-87629284D02*
X175840827Y-93735284D01*
X175880827Y-87682284D02*
X175880827Y-93682284D01*
X175920827Y-87737284D02*
X175920827Y-93627284D01*
X175960827Y-87794284D02*
X175960827Y-93570284D01*
X176000827Y-87852284D02*
X176000827Y-93512284D01*
X176040827Y-87912284D02*
X176040827Y-93452284D01*
X176080827Y-87974284D02*
X176080827Y-93390284D01*
X176120827Y-88038284D02*
X176120827Y-93326284D01*
X176160827Y-88104284D02*
X176160827Y-93260284D01*
X176200827Y-88172284D02*
X176200827Y-93192284D01*
X176240827Y-88243284D02*
X176240827Y-93121284D01*
X176280827Y-88317284D02*
X176280827Y-93047284D01*
X176320827Y-88394284D02*
X176320827Y-92970284D01*
X176360827Y-88474284D02*
X176360827Y-92890284D01*
X176400827Y-88558284D02*
X176400827Y-92806284D01*
X176440827Y-88645284D02*
X176440827Y-92719284D01*
X176480827Y-88738284D02*
X176480827Y-92626284D01*
X176520827Y-88836284D02*
X176520827Y-92528284D01*
X176560827Y-88940284D02*
X176560827Y-92424284D01*
X176600827Y-89052284D02*
X176600827Y-92312284D01*
X176640827Y-89173284D02*
X176640827Y-92191284D01*
X176680827Y-89305284D02*
X176680827Y-92059284D01*
X176720827Y-89452284D02*
X176720827Y-91912284D01*
X176760827Y-89620284D02*
X176760827Y-91744284D01*
X176800827Y-89820284D02*
X176800827Y-91544284D01*
X176840827Y-90083284D02*
X176840827Y-91281284D01*
X176880827Y-90682284D02*
G75*
G02*
X166640827Y-90682284I-5120000J0D01*
G01*
X166640827Y-90682284D02*
G75*
G02*
X176880827Y-90682284I5120000J0D01*
G01*
%TO.C,TR1*%
X136300504Y-65133284D02*
X165300504Y-65133284D01*
X136300504Y-94133284D02*
X136300504Y-65133284D01*
X165300504Y-65133284D02*
X165300504Y-94133284D01*
X165300504Y-94133284D02*
X136300504Y-94133284D01*
%TO.C,Q1*%
X113048504Y-55835284D02*
X123528504Y-55835284D01*
X113048504Y-58465284D02*
X114536504Y-58465284D01*
X113048504Y-60755284D02*
X113048504Y-55835284D01*
X116438504Y-55835284D02*
X116438504Y-57732284D01*
X116960504Y-58465284D02*
X117075504Y-58464284D01*
X119500504Y-58464284D02*
X119615504Y-58464284D01*
X120138504Y-55835284D02*
X120138504Y-57732284D01*
X122040504Y-58464284D02*
X123528504Y-58465284D01*
X123528504Y-55835284D02*
X123528504Y-60755284D01*
X123528504Y-60755284D02*
X113048504Y-60755284D01*
%TO.C,R9*%
X106628504Y-64012284D02*
X108588504Y-64012284D01*
X119788504Y-64012284D02*
X117828504Y-64012284D01*
X117828504Y-65732284D02*
X108588504Y-65732284D01*
X108588504Y-62292284D01*
X117828504Y-62292284D01*
X117828504Y-65732284D01*
%TO.C,C3*%
X124153504Y-83887284D02*
X126393504Y-83887284D01*
X124153504Y-91127284D02*
X124153504Y-83887284D01*
X126393504Y-83887284D02*
X126393504Y-91127284D01*
X126393504Y-91127284D02*
X124153504Y-91127284D01*
%TO.C,C2*%
X107058504Y-90412284D02*
X107058504Y-85872284D01*
X107114504Y-90412284D02*
X107058504Y-90412284D01*
X109142504Y-85872284D02*
X109198504Y-85872284D01*
X109198504Y-85872284D02*
X109198504Y-90412284D01*
%TO.C,Q3*%
X104848504Y-93552284D02*
X101248504Y-93552284D01*
X100724320Y-94279489D02*
G75*
G02*
X101248504Y-93552284I2324184J-1122795D01*
G01*
X103048504Y-98002284D02*
G75*
G02*
X100692104Y-96501091I0J2600000D01*
G01*
X104848504Y-93552284D02*
G75*
G02*
X105372688Y-94279489I-1800000J-1850000D01*
G01*
X105404904Y-96501091D02*
G75*
G02*
X103048504Y-98002284I-2356400J1098807D01*
G01*
%TO.C,R3*%
X109303504Y-91217284D02*
X115843504Y-91217284D01*
X109303504Y-91547284D02*
X109303504Y-91217284D01*
X109303504Y-93627284D02*
X109303504Y-93957284D01*
X109303504Y-93957284D02*
X115843504Y-93957284D01*
X115843504Y-91217284D02*
X115843504Y-91547284D01*
X115843504Y-93957284D02*
X115843504Y-93627284D01*
%TO.C,C6*%
X97466155Y-70587284D02*
X98266155Y-70587284D01*
X97866155Y-70187284D02*
X97866155Y-70987284D01*
X101875853Y-68822284D02*
X101875853Y-76982284D01*
X101915853Y-68822284D02*
X101915853Y-76982284D01*
X101955853Y-68823284D02*
X101955853Y-76981284D01*
X101995853Y-68824284D02*
X101995853Y-76980284D01*
X102035853Y-68825284D02*
X102035853Y-76979284D01*
X102075853Y-68827284D02*
X102075853Y-76977284D01*
X102115853Y-68829284D02*
X102115853Y-76975284D01*
X102155853Y-68832284D02*
X102155853Y-76972284D01*
X102195853Y-68834284D02*
X102195853Y-76970284D01*
X102235853Y-68838284D02*
X102235853Y-76966284D01*
X102275853Y-68841284D02*
X102275853Y-76963284D01*
X102315853Y-68846284D02*
X102315853Y-76958284D01*
X102355853Y-68850284D02*
X102355853Y-76954284D01*
X102395853Y-68855284D02*
X102395853Y-76949284D01*
X102435853Y-68860284D02*
X102435853Y-76944284D01*
X102475853Y-68866284D02*
X102475853Y-76938284D01*
X102515853Y-68872284D02*
X102515853Y-76932284D01*
X102555853Y-68879284D02*
X102555853Y-76925284D01*
X102595853Y-68885284D02*
X102595853Y-71862284D01*
X102595853Y-73942284D02*
X102595853Y-76919284D01*
X102635853Y-68893284D02*
X102635853Y-71862284D01*
X102635853Y-73942284D02*
X102635853Y-76911284D01*
X102675853Y-68900284D02*
X102675853Y-71862284D01*
X102675853Y-73942284D02*
X102675853Y-76904284D01*
X102715853Y-68909284D02*
X102715853Y-71862284D01*
X102715853Y-73942284D02*
X102715853Y-76895284D01*
X102755853Y-68917284D02*
X102755853Y-71862284D01*
X102755853Y-73942284D02*
X102755853Y-76887284D01*
X102795853Y-68926284D02*
X102795853Y-71862284D01*
X102795853Y-73942284D02*
X102795853Y-76878284D01*
X102835853Y-68935284D02*
X102835853Y-71862284D01*
X102835853Y-73942284D02*
X102835853Y-76869284D01*
X102875853Y-68945284D02*
X102875853Y-71862284D01*
X102875853Y-73942284D02*
X102875853Y-76859284D01*
X102915853Y-68955284D02*
X102915853Y-71862284D01*
X102915853Y-73942284D02*
X102915853Y-76849284D01*
X102955853Y-68966284D02*
X102955853Y-71862284D01*
X102955853Y-73942284D02*
X102955853Y-76838284D01*
X102995853Y-68977284D02*
X102995853Y-71862284D01*
X102995853Y-73942284D02*
X102995853Y-76827284D01*
X103035853Y-68989284D02*
X103035853Y-71862284D01*
X103035853Y-73942284D02*
X103035853Y-76815284D01*
X103075853Y-69001284D02*
X103075853Y-71862284D01*
X103075853Y-73942284D02*
X103075853Y-76803284D01*
X103115853Y-69013284D02*
X103115853Y-71862284D01*
X103115853Y-73942284D02*
X103115853Y-76791284D01*
X103155853Y-69026284D02*
X103155853Y-71862284D01*
X103155853Y-73942284D02*
X103155853Y-76778284D01*
X103195853Y-69039284D02*
X103195853Y-71862284D01*
X103195853Y-73942284D02*
X103195853Y-76765284D01*
X103235853Y-69053284D02*
X103235853Y-71862284D01*
X103235853Y-73942284D02*
X103235853Y-76751284D01*
X103275853Y-69067284D02*
X103275853Y-71862284D01*
X103275853Y-73942284D02*
X103275853Y-76737284D01*
X103315853Y-69082284D02*
X103315853Y-71862284D01*
X103315853Y-73942284D02*
X103315853Y-76722284D01*
X103355853Y-69097284D02*
X103355853Y-71862284D01*
X103355853Y-73942284D02*
X103355853Y-76707284D01*
X103395853Y-69113284D02*
X103395853Y-71862284D01*
X103395853Y-73942284D02*
X103395853Y-76691284D01*
X103435853Y-69129284D02*
X103435853Y-71862284D01*
X103435853Y-73942284D02*
X103435853Y-76675284D01*
X103475853Y-69145284D02*
X103475853Y-71862284D01*
X103475853Y-73942284D02*
X103475853Y-76659284D01*
X103515853Y-69162284D02*
X103515853Y-71862284D01*
X103515853Y-73942284D02*
X103515853Y-76642284D01*
X103555853Y-69180284D02*
X103555853Y-71862284D01*
X103555853Y-73942284D02*
X103555853Y-76624284D01*
X103595853Y-69198284D02*
X103595853Y-71862284D01*
X103595853Y-73942284D02*
X103595853Y-76606284D01*
X103635853Y-69217284D02*
X103635853Y-71862284D01*
X103635853Y-73942284D02*
X103635853Y-76587284D01*
X103675853Y-69236284D02*
X103675853Y-71862284D01*
X103675853Y-73942284D02*
X103675853Y-76568284D01*
X103715853Y-69256284D02*
X103715853Y-71862284D01*
X103715853Y-73942284D02*
X103715853Y-76548284D01*
X103755853Y-69276284D02*
X103755853Y-71862284D01*
X103755853Y-73942284D02*
X103755853Y-76528284D01*
X103795853Y-69297284D02*
X103795853Y-71862284D01*
X103795853Y-73942284D02*
X103795853Y-76507284D01*
X103835853Y-69318284D02*
X103835853Y-71862284D01*
X103835853Y-73942284D02*
X103835853Y-76486284D01*
X103875853Y-69340284D02*
X103875853Y-71862284D01*
X103875853Y-73942284D02*
X103875853Y-76464284D01*
X103915853Y-69363284D02*
X103915853Y-71862284D01*
X103915853Y-73942284D02*
X103915853Y-76441284D01*
X103955853Y-69386284D02*
X103955853Y-71862284D01*
X103955853Y-73942284D02*
X103955853Y-76418284D01*
X103995853Y-69409284D02*
X103995853Y-71862284D01*
X103995853Y-73942284D02*
X103995853Y-76395284D01*
X104035853Y-69434284D02*
X104035853Y-71862284D01*
X104035853Y-73942284D02*
X104035853Y-76370284D01*
X104075853Y-69459284D02*
X104075853Y-71862284D01*
X104075853Y-73942284D02*
X104075853Y-76345284D01*
X104115853Y-69484284D02*
X104115853Y-71862284D01*
X104115853Y-73942284D02*
X104115853Y-76320284D01*
X104155853Y-69510284D02*
X104155853Y-71862284D01*
X104155853Y-73942284D02*
X104155853Y-76294284D01*
X104195853Y-69537284D02*
X104195853Y-71862284D01*
X104195853Y-73942284D02*
X104195853Y-76267284D01*
X104235853Y-69565284D02*
X104235853Y-71862284D01*
X104235853Y-73942284D02*
X104235853Y-76239284D01*
X104275853Y-69593284D02*
X104275853Y-71862284D01*
X104275853Y-73942284D02*
X104275853Y-76211284D01*
X104315853Y-69622284D02*
X104315853Y-71862284D01*
X104315853Y-73942284D02*
X104315853Y-76182284D01*
X104355853Y-69652284D02*
X104355853Y-71862284D01*
X104355853Y-73942284D02*
X104355853Y-76152284D01*
X104395853Y-69683284D02*
X104395853Y-71862284D01*
X104395853Y-73942284D02*
X104395853Y-76121284D01*
X104435853Y-69714284D02*
X104435853Y-71862284D01*
X104435853Y-73942284D02*
X104435853Y-76090284D01*
X104475853Y-69746284D02*
X104475853Y-71862284D01*
X104475853Y-73942284D02*
X104475853Y-76058284D01*
X104515853Y-69779284D02*
X104515853Y-71862284D01*
X104515853Y-73942284D02*
X104515853Y-76025284D01*
X104555853Y-69813284D02*
X104555853Y-71862284D01*
X104555853Y-73942284D02*
X104555853Y-75991284D01*
X104595853Y-69847284D02*
X104595853Y-71862284D01*
X104595853Y-73942284D02*
X104595853Y-75957284D01*
X104635853Y-69883284D02*
X104635853Y-71862284D01*
X104635853Y-73942284D02*
X104635853Y-75921284D01*
X104675853Y-69920284D02*
X104675853Y-75884284D01*
X104715853Y-69957284D02*
X104715853Y-75847284D01*
X104755853Y-69996284D02*
X104755853Y-75808284D01*
X104795853Y-70035284D02*
X104795853Y-75769284D01*
X104835853Y-70076284D02*
X104835853Y-75728284D01*
X104875853Y-70118284D02*
X104875853Y-75686284D01*
X104915853Y-70161284D02*
X104915853Y-75643284D01*
X104955853Y-70206284D02*
X104955853Y-75598284D01*
X104995853Y-70251284D02*
X104995853Y-75553284D01*
X105035853Y-70298284D02*
X105035853Y-75506284D01*
X105075853Y-70347284D02*
X105075853Y-75457284D01*
X105115853Y-70397284D02*
X105115853Y-75407284D01*
X105155853Y-70449284D02*
X105155853Y-75355284D01*
X105195853Y-70502284D02*
X105195853Y-75302284D01*
X105235853Y-70558284D02*
X105235853Y-75246284D01*
X105275853Y-70615284D02*
X105275853Y-75189284D01*
X105315853Y-70675284D02*
X105315853Y-75129284D01*
X105355853Y-70737284D02*
X105355853Y-75067284D01*
X105395853Y-70801284D02*
X105395853Y-75003284D01*
X105435853Y-70868284D02*
X105435853Y-74936284D01*
X105475853Y-70938284D02*
X105475853Y-74866284D01*
X105515853Y-71012284D02*
X105515853Y-74792284D01*
X105555853Y-71089284D02*
X105555853Y-74715284D01*
X105595853Y-71171284D02*
X105595853Y-74633284D01*
X105635853Y-71258284D02*
X105635853Y-74546284D01*
X105675853Y-71350284D02*
X105675853Y-74454284D01*
X105715853Y-71449284D02*
X105715853Y-74355284D01*
X105755853Y-71556284D02*
X105755853Y-74248284D01*
X105795853Y-71674284D02*
X105795853Y-74130284D01*
X105835853Y-71805284D02*
X105835853Y-73999284D01*
X105875853Y-71955284D02*
X105875853Y-73849284D01*
X105915853Y-72134284D02*
X105915853Y-73670284D01*
X105955853Y-72369284D02*
X105955853Y-73435284D01*
X105995853Y-72902284D02*
G75*
G02*
X97755853Y-72902284I-4120000J0D01*
G01*
X97755853Y-72902284D02*
G75*
G02*
X105995853Y-72902284I4120000J0D01*
G01*
%TO.C,R8*%
X108663504Y-69632284D02*
X108993504Y-69632284D01*
X108663504Y-76172284D02*
X108663504Y-69632284D01*
X108993504Y-76172284D02*
X108663504Y-76172284D01*
X111073504Y-76172284D02*
X111403504Y-76172284D01*
X111403504Y-69632284D02*
X111073504Y-69632284D01*
X111403504Y-76172284D02*
X111403504Y-69632284D01*
%TO.C,R6*%
X122733504Y-65687284D02*
X122733504Y-66377284D01*
X122733504Y-76307284D02*
X122733504Y-75617284D01*
X121013504Y-75617284D02*
X124453504Y-75617284D01*
X124453504Y-66377284D01*
X121013504Y-66377284D01*
X121013504Y-75617284D01*
%TO.C,R13*%
X125173504Y-65187284D02*
X125173504Y-71727284D01*
X125173504Y-71727284D02*
X125503504Y-71727284D01*
X125503504Y-65187284D02*
X125173504Y-65187284D01*
X127583504Y-65187284D02*
X127913504Y-65187284D01*
X127913504Y-65187284D02*
X127913504Y-71727284D01*
X127913504Y-71727284D02*
X127583504Y-71727284D01*
%TO.C,R2*%
X109303504Y-93757284D02*
X109303504Y-94087284D01*
X109303504Y-96497284D02*
X109303504Y-96167284D01*
X115843504Y-93757284D02*
X109303504Y-93757284D01*
X115843504Y-94087284D02*
X115843504Y-93757284D01*
X115843504Y-96167284D02*
X115843504Y-96497284D01*
X115843504Y-96497284D02*
X109303504Y-96497284D01*
%TO.C,F1*%
X150028504Y-59872284D02*
X150028504Y-58272284D01*
X150028504Y-63072284D02*
X150028504Y-64672284D01*
X150028504Y-64672284D02*
X156328504Y-64672284D01*
X156328504Y-58272284D02*
X150028504Y-58272284D01*
X156328504Y-58272284D02*
X156328504Y-59872284D01*
X156328504Y-58972284D02*
X164068504Y-58972284D01*
X156328504Y-63972284D02*
X164068504Y-63972284D01*
X156328504Y-64672284D02*
X156328504Y-63072284D01*
X164068504Y-58272284D02*
X164068504Y-59872284D01*
X164068504Y-58272284D02*
X170368504Y-58272284D01*
X164068504Y-64672284D02*
X164068504Y-63072284D01*
X164068504Y-64672284D02*
X170368504Y-64672284D01*
X170368504Y-58272284D02*
X170368504Y-59872284D01*
X170368504Y-64672284D02*
X170368504Y-63072284D01*
%TO.C,R12*%
X103583504Y-78522284D02*
X103913504Y-78522284D01*
X103583504Y-85062284D02*
X103583504Y-78522284D01*
X103913504Y-85062284D02*
X103583504Y-85062284D01*
X105993504Y-85062284D02*
X106323504Y-85062284D01*
X106323504Y-78522284D02*
X105993504Y-78522284D01*
X106323504Y-85062284D02*
X106323504Y-78522284D01*
%TO.C,VR1*%
X117223504Y-91967284D02*
X126973504Y-91967284D01*
X117223504Y-97017284D02*
X117223504Y-91967284D01*
X126973504Y-91967284D02*
X126973504Y-97017284D01*
X126973504Y-97017284D02*
X117223504Y-97017284D01*
%TO.C,Q2*%
X132733504Y-55835284D02*
X143213504Y-55835284D01*
X132733504Y-58465284D02*
X134221504Y-58465284D01*
X132733504Y-60755284D02*
X132733504Y-55835284D01*
X136123504Y-55835284D02*
X136123504Y-57732284D01*
X136645504Y-58465284D02*
X136760504Y-58464284D01*
X139185504Y-58464284D02*
X139300504Y-58464284D01*
X139823504Y-55835284D02*
X139823504Y-57732284D01*
X141725504Y-58464284D02*
X143213504Y-58465284D01*
X143213504Y-55835284D02*
X143213504Y-60755284D01*
X143213504Y-60755284D02*
X132733504Y-60755284D01*
%TO.C,U1*%
X109973504Y-83582284D02*
X109973504Y-85232284D01*
X109973504Y-87232284D02*
X109973504Y-88882284D01*
X109973504Y-88882284D02*
X120253504Y-88882284D01*
X120253504Y-83582284D02*
X109973504Y-83582284D01*
X120253504Y-88882284D02*
X120253504Y-83582284D01*
X109973504Y-85232284D02*
G75*
G02*
X109973504Y-87232284I0J-1000000D01*
G01*
%TO.C,R7*%
X111838504Y-69632284D02*
X111838504Y-76172284D01*
X111838504Y-76172284D02*
X112168504Y-76172284D01*
X112168504Y-69632284D02*
X111838504Y-69632284D01*
X114248504Y-69632284D02*
X114578504Y-69632284D01*
X114578504Y-69632284D02*
X114578504Y-76172284D01*
X114578504Y-76172284D02*
X114248504Y-76172284D01*
%TO.C,D4*%
X160703504Y-96397284D02*
X161923504Y-96397284D01*
X162703504Y-94927284D02*
X162703504Y-97867284D01*
X162823504Y-94927284D02*
X162823504Y-97867284D01*
X162943504Y-94927284D02*
X162943504Y-97867284D01*
X168583504Y-96397284D02*
X167363504Y-96397284D01*
X161923504Y-94927284D02*
X167363504Y-94927284D01*
X167363504Y-97867284D01*
X161923504Y-97867284D01*
X161923504Y-94927284D01*
%TO.C,R14*%
X103588504Y-58832284D02*
X103588504Y-59162284D01*
X103588504Y-61572284D02*
X103588504Y-61242284D01*
X110128504Y-58832284D02*
X103588504Y-58832284D01*
X110128504Y-59162284D02*
X110128504Y-58832284D01*
X110128504Y-61242284D02*
X110128504Y-61572284D01*
X110128504Y-61572284D02*
X103588504Y-61572284D01*
%TO.C,C7*%
X124638504Y-78444961D02*
X134798504Y-78444961D01*
X124638504Y-78484961D02*
X134798504Y-78484961D01*
X124639504Y-78364961D02*
X134797504Y-78364961D01*
X124639504Y-78404961D02*
X134797504Y-78404961D01*
X124641504Y-78324961D02*
X134795504Y-78324961D01*
X124642504Y-78284961D02*
X134794504Y-78284961D01*
X124644504Y-78244961D02*
X134792504Y-78244961D01*
X124646504Y-78204961D02*
X134790504Y-78204961D01*
X124648504Y-78164961D02*
X134788504Y-78164961D01*
X124651504Y-78124961D02*
X134785504Y-78124961D01*
X124654504Y-78084961D02*
X134782504Y-78084961D01*
X124657504Y-78044961D02*
X134779504Y-78044961D01*
X124661504Y-78004961D02*
X134775504Y-78004961D01*
X124664504Y-77964961D02*
X134772504Y-77964961D01*
X124669504Y-77924961D02*
X134767504Y-77924961D01*
X124673504Y-77884961D02*
X134763504Y-77884961D01*
X124678504Y-77844961D02*
X134758504Y-77844961D01*
X124683504Y-77804961D02*
X134753504Y-77804961D01*
X124689504Y-77764961D02*
X134747504Y-77764961D01*
X124695504Y-77724961D02*
X134741504Y-77724961D01*
X124701504Y-77684961D02*
X134735504Y-77684961D01*
X124707504Y-77644961D02*
X134729504Y-77644961D01*
X124714504Y-77604961D02*
X134722504Y-77604961D01*
X124721504Y-77564961D02*
X134715504Y-77564961D01*
X124729504Y-77524961D02*
X134707504Y-77524961D01*
X124737504Y-77484961D02*
X134699504Y-77484961D01*
X124745504Y-77444961D02*
X134691504Y-77444961D01*
X124753504Y-77404961D02*
X134683504Y-77404961D01*
X124762504Y-77364961D02*
X134674504Y-77364961D01*
X124771504Y-77324961D02*
X134665504Y-77324961D01*
X124781504Y-77284961D02*
X134655504Y-77284961D01*
X124790504Y-77244961D02*
X134646504Y-77244961D01*
X124801504Y-77204961D02*
X128478504Y-77204961D01*
X124811504Y-77164961D02*
X128478504Y-77164961D01*
X124822504Y-77124961D02*
X128478504Y-77124961D01*
X124833504Y-77084961D02*
X128478504Y-77084961D01*
X124845504Y-77044961D02*
X128478504Y-77044961D01*
X124857504Y-77004961D02*
X128478504Y-77004961D01*
X124869504Y-76964961D02*
X128478504Y-76964961D01*
X124881504Y-76924961D02*
X128478504Y-76924961D01*
X124894504Y-76884961D02*
X128478504Y-76884961D01*
X124908504Y-76844961D02*
X128478504Y-76844961D01*
X124921504Y-76804961D02*
X128478504Y-76804961D01*
X124936504Y-76764961D02*
X128478504Y-76764961D01*
X124950504Y-76724961D02*
X128478504Y-76724961D01*
X124965504Y-76684961D02*
X128478504Y-76684961D01*
X124980504Y-76644961D02*
X128478504Y-76644961D01*
X124996504Y-76604961D02*
X128478504Y-76604961D01*
X125012504Y-76564961D02*
X128478504Y-76564961D01*
X125028504Y-76524961D02*
X128478504Y-76524961D01*
X125045504Y-76484961D02*
X128478504Y-76484961D01*
X125062504Y-76444961D02*
X128478504Y-76444961D01*
X125080504Y-76404961D02*
X128478504Y-76404961D01*
X125098504Y-76364961D02*
X128478504Y-76364961D01*
X125116504Y-76324961D02*
X128478504Y-76324961D01*
X125135504Y-76284961D02*
X128478504Y-76284961D01*
X125154504Y-76244961D02*
X128478504Y-76244961D01*
X125174504Y-76204961D02*
X128478504Y-76204961D01*
X125194504Y-76164961D02*
X128478504Y-76164961D01*
X125214504Y-76124961D02*
X128478504Y-76124961D01*
X125235504Y-76084961D02*
X128478504Y-76084961D01*
X125257504Y-76044961D02*
X128478504Y-76044961D01*
X125279504Y-76004961D02*
X128478504Y-76004961D01*
X125301504Y-75964961D02*
X128478504Y-75964961D01*
X125324504Y-75924961D02*
X128478504Y-75924961D01*
X125347504Y-75884961D02*
X128478504Y-75884961D01*
X125371504Y-75844961D02*
X128478504Y-75844961D01*
X125395504Y-75804961D02*
X128478504Y-75804961D01*
X125420504Y-75764961D02*
X128478504Y-75764961D01*
X125446504Y-75724961D02*
X128478504Y-75724961D01*
X125471504Y-75684961D02*
X128478504Y-75684961D01*
X125498504Y-75644961D02*
X128478504Y-75644961D01*
X125525504Y-75604961D02*
X128478504Y-75604961D01*
X125552504Y-75564961D02*
X128478504Y-75564961D01*
X125580504Y-75524961D02*
X128478504Y-75524961D01*
X125609504Y-75484961D02*
X128478504Y-75484961D01*
X125638504Y-75444961D02*
X128478504Y-75444961D01*
X125668504Y-75404961D02*
X128478504Y-75404961D01*
X125698504Y-75364961D02*
X128478504Y-75364961D01*
X125730504Y-75324961D02*
X128478504Y-75324961D01*
X125761504Y-75284961D02*
X128478504Y-75284961D01*
X125794504Y-75244961D02*
X128478504Y-75244961D01*
X125827504Y-75204961D02*
X128478504Y-75204961D01*
X125860504Y-75164961D02*
X128478504Y-75164961D01*
X125895504Y-75124961D02*
X128478504Y-75124961D01*
X125930504Y-75084961D02*
X128478504Y-75084961D01*
X125966504Y-75044961D02*
X128478504Y-75044961D01*
X126002504Y-75004961D02*
X128478504Y-75004961D01*
X126040504Y-74964961D02*
X128478504Y-74964961D01*
X126078504Y-74924961D02*
X128478504Y-74924961D01*
X126117504Y-74884961D02*
X128478504Y-74884961D01*
X126157504Y-74844961D02*
X128478504Y-74844961D01*
X126198504Y-74804961D02*
X128478504Y-74804961D01*
X126240504Y-74764961D02*
X128478504Y-74764961D01*
X126283504Y-74724961D02*
X133153504Y-74724961D01*
X126327504Y-74684961D02*
X133109504Y-74684961D01*
X126343504Y-83464607D02*
X127343504Y-83464607D01*
X126371504Y-74644961D02*
X133065504Y-74644961D01*
X126417504Y-74604961D02*
X133019504Y-74604961D01*
X126464504Y-74564961D02*
X132972504Y-74564961D01*
X126513504Y-74524961D02*
X132923504Y-74524961D01*
X126562504Y-74484961D02*
X132874504Y-74484961D01*
X126613504Y-74444961D02*
X132823504Y-74444961D01*
X126665504Y-74404961D02*
X132771504Y-74404961D01*
X126718504Y-74364961D02*
X132718504Y-74364961D01*
X126773504Y-74324961D02*
X132663504Y-74324961D01*
X126830504Y-74284961D02*
X132606504Y-74284961D01*
X126843504Y-83964607D02*
X126843504Y-82964607D01*
X126888504Y-74244961D02*
X132548504Y-74244961D01*
X126948504Y-74204961D02*
X132488504Y-74204961D01*
X127010504Y-74164961D02*
X132426504Y-74164961D01*
X127074504Y-74124961D02*
X132362504Y-74124961D01*
X127140504Y-74084961D02*
X132296504Y-74084961D01*
X127208504Y-74044961D02*
X132228504Y-74044961D01*
X127279504Y-74004961D02*
X132157504Y-74004961D01*
X127353504Y-73964961D02*
X132083504Y-73964961D01*
X127430504Y-73924961D02*
X132006504Y-73924961D01*
X127510504Y-73884961D02*
X131926504Y-73884961D01*
X127594504Y-73844961D02*
X131842504Y-73844961D01*
X127681504Y-73804961D02*
X131755504Y-73804961D01*
X127774504Y-73764961D02*
X131662504Y-73764961D01*
X127872504Y-73724961D02*
X131564504Y-73724961D01*
X127976504Y-73684961D02*
X131460504Y-73684961D01*
X128088504Y-73644961D02*
X131348504Y-73644961D01*
X128209504Y-73604961D02*
X131227504Y-73604961D01*
X128341504Y-73564961D02*
X131095504Y-73564961D01*
X128488504Y-73524961D02*
X130948504Y-73524961D01*
X128656504Y-73484961D02*
X130780504Y-73484961D01*
X128856504Y-73444961D02*
X130580504Y-73444961D01*
X129119504Y-73404961D02*
X130317504Y-73404961D01*
X130958504Y-74764961D02*
X133196504Y-74764961D01*
X130958504Y-74804961D02*
X133238504Y-74804961D01*
X130958504Y-74844961D02*
X133279504Y-74844961D01*
X130958504Y-74884961D02*
X133319504Y-74884961D01*
X130958504Y-74924961D02*
X133358504Y-74924961D01*
X130958504Y-74964961D02*
X133396504Y-74964961D01*
X130958504Y-75004961D02*
X133434504Y-75004961D01*
X130958504Y-75044961D02*
X133470504Y-75044961D01*
X130958504Y-75084961D02*
X133506504Y-75084961D01*
X130958504Y-75124961D02*
X133541504Y-75124961D01*
X130958504Y-75164961D02*
X133576504Y-75164961D01*
X130958504Y-75204961D02*
X133609504Y-75204961D01*
X130958504Y-75244961D02*
X133642504Y-75244961D01*
X130958504Y-75284961D02*
X133675504Y-75284961D01*
X130958504Y-75324961D02*
X133706504Y-75324961D01*
X130958504Y-75364961D02*
X133738504Y-75364961D01*
X130958504Y-75404961D02*
X133768504Y-75404961D01*
X130958504Y-75444961D02*
X133798504Y-75444961D01*
X130958504Y-75484961D02*
X133827504Y-75484961D01*
X130958504Y-75524961D02*
X133856504Y-75524961D01*
X130958504Y-75564961D02*
X133884504Y-75564961D01*
X130958504Y-75604961D02*
X133911504Y-75604961D01*
X130958504Y-75644961D02*
X133938504Y-75644961D01*
X130958504Y-75684961D02*
X133965504Y-75684961D01*
X130958504Y-75724961D02*
X133990504Y-75724961D01*
X130958504Y-75764961D02*
X134016504Y-75764961D01*
X130958504Y-75804961D02*
X134041504Y-75804961D01*
X130958504Y-75844961D02*
X134065504Y-75844961D01*
X130958504Y-75884961D02*
X134089504Y-75884961D01*
X130958504Y-75924961D02*
X134112504Y-75924961D01*
X130958504Y-75964961D02*
X134135504Y-75964961D01*
X130958504Y-76004961D02*
X134157504Y-76004961D01*
X130958504Y-76044961D02*
X134179504Y-76044961D01*
X130958504Y-76084961D02*
X134201504Y-76084961D01*
X130958504Y-76124961D02*
X134222504Y-76124961D01*
X130958504Y-76164961D02*
X134242504Y-76164961D01*
X130958504Y-76204961D02*
X134262504Y-76204961D01*
X130958504Y-76244961D02*
X134282504Y-76244961D01*
X130958504Y-76284961D02*
X134301504Y-76284961D01*
X130958504Y-76324961D02*
X134320504Y-76324961D01*
X130958504Y-76364961D02*
X134338504Y-76364961D01*
X130958504Y-76404961D02*
X134356504Y-76404961D01*
X130958504Y-76444961D02*
X134374504Y-76444961D01*
X130958504Y-76484961D02*
X134391504Y-76484961D01*
X130958504Y-76524961D02*
X134408504Y-76524961D01*
X130958504Y-76564961D02*
X134424504Y-76564961D01*
X130958504Y-76604961D02*
X134440504Y-76604961D01*
X130958504Y-76644961D02*
X134456504Y-76644961D01*
X130958504Y-76684961D02*
X134471504Y-76684961D01*
X130958504Y-76724961D02*
X134486504Y-76724961D01*
X130958504Y-76764961D02*
X134500504Y-76764961D01*
X130958504Y-76804961D02*
X134515504Y-76804961D01*
X130958504Y-76844961D02*
X134528504Y-76844961D01*
X130958504Y-76884961D02*
X134542504Y-76884961D01*
X130958504Y-76924961D02*
X134555504Y-76924961D01*
X130958504Y-76964961D02*
X134567504Y-76964961D01*
X130958504Y-77004961D02*
X134579504Y-77004961D01*
X130958504Y-77044961D02*
X134591504Y-77044961D01*
X130958504Y-77084961D02*
X134603504Y-77084961D01*
X130958504Y-77124961D02*
X134614504Y-77124961D01*
X130958504Y-77164961D02*
X134625504Y-77164961D01*
X130958504Y-77204961D02*
X134635504Y-77204961D01*
X134838504Y-78484961D02*
G75*
G02*
X124598504Y-78484961I-5120000J0D01*
G01*
X124598504Y-78484961D02*
G75*
G02*
X134838504Y-78484961I5120000J0D01*
G01*
%TD*%
%LPC*%
D13*
%TO.C,C4*%
X118923504Y-76672284D03*
X118923504Y-71672284D03*
%TD*%
%TO.C,R11*%
X127813504Y-96397284D03*
X140513504Y-96397284D03*
%TD*%
%TO.C,C1*%
X105588504Y-91952284D03*
X100588504Y-91952284D03*
%TD*%
D14*
%TO.C,D3*%
X101143504Y-88142284D03*
D15*
X103683504Y-88142284D03*
%TD*%
D13*
%TO.C,R10*%
X143688504Y-96397284D03*
X156388504Y-96397284D03*
%TD*%
D16*
%TO.C,J1*%
X171882504Y-82441284D03*
D17*
X171882504Y-77441284D03*
X171882504Y-72441284D03*
X171882504Y-67441284D03*
%TD*%
D13*
%TO.C,R4*%
X129083504Y-93222284D03*
X129083504Y-85602284D03*
%TD*%
%TO.C,R5*%
X122098504Y-90047284D03*
X122098504Y-82427284D03*
%TD*%
%TO.C,C5*%
X116383504Y-76712284D03*
X116383504Y-71712284D03*
%TD*%
D18*
%TO.C,C8*%
X169260827Y-90682284D03*
D19*
X174260827Y-90682284D03*
%TD*%
D20*
%TO.C,TR1*%
X138100504Y-66933284D03*
D19*
X138100504Y-72013284D03*
X138100504Y-77093284D03*
X138100504Y-82173284D03*
X138100504Y-87253284D03*
X138100504Y-92333284D03*
X163500504Y-92333284D03*
X163500504Y-87253284D03*
X163500504Y-82173284D03*
X163500504Y-77093284D03*
X163500504Y-72013284D03*
X163500504Y-66933284D03*
%TD*%
D21*
%TO.C,Q1*%
X115748504Y-58992284D03*
D22*
X118288504Y-58992284D03*
X120828504Y-58992284D03*
%TD*%
D13*
%TO.C,R9*%
X120828504Y-64012284D03*
X105588504Y-64012284D03*
%TD*%
%TO.C,C3*%
X125273504Y-90007284D03*
X125273504Y-85007284D03*
%TD*%
%TO.C,C2*%
X108128504Y-90642284D03*
X108128504Y-85642284D03*
%TD*%
D23*
%TO.C,Q3*%
X105588504Y-95402284D03*
D24*
X103048504Y-95402284D03*
X100508504Y-95402284D03*
%TD*%
D13*
%TO.C,R3*%
X108763504Y-92587284D03*
X116383504Y-92587284D03*
%TD*%
D25*
%TO.C,C6*%
X100125853Y-72902284D03*
D13*
X103625853Y-72902284D03*
%TD*%
%TO.C,R8*%
X110033504Y-76712284D03*
X110033504Y-69092284D03*
%TD*%
%TO.C,R6*%
X122733504Y-77347284D03*
X122733504Y-64647284D03*
%TD*%
%TO.C,R13*%
X126543504Y-64647284D03*
X126543504Y-72267284D03*
%TD*%
%TO.C,R2*%
X116383504Y-95127284D03*
X108763504Y-95127284D03*
%TD*%
D26*
%TO.C,F1*%
X170598504Y-61472284D03*
X163838504Y-61472284D03*
D27*
X156558504Y-61472284D03*
X149798504Y-61472284D03*
%TD*%
D13*
%TO.C,R12*%
X104953504Y-85602284D03*
X104953504Y-77982284D03*
%TD*%
D28*
%TO.C,VR1*%
X124638504Y-94487284D03*
X122098504Y-94487284D03*
X119558504Y-94487284D03*
%TD*%
D21*
%TO.C,Q2*%
X135433504Y-58992284D03*
D22*
X137973504Y-58992284D03*
X140513504Y-58992284D03*
%TD*%
D29*
%TO.C,U1*%
X111303504Y-90042284D03*
D13*
X113843504Y-90042284D03*
X116383504Y-90042284D03*
X118923504Y-90042284D03*
X118923504Y-82422284D03*
X116383504Y-82422284D03*
X113843504Y-82422284D03*
X111303504Y-82422284D03*
%TD*%
%TO.C,R7*%
X113208504Y-69092284D03*
X113208504Y-76712284D03*
%TD*%
D30*
%TO.C,D4*%
X159563504Y-96397284D03*
D15*
X169723504Y-96397284D03*
%TD*%
D13*
%TO.C,R14*%
X110668504Y-60202284D03*
X103048504Y-60202284D03*
%TD*%
D31*
%TO.C,C7*%
X129718504Y-80984961D03*
D19*
X129718504Y-75984961D03*
%TD*%
G36*
X177921543Y-54296969D02*
G01*
X177967298Y-54349773D01*
X177978504Y-54401284D01*
X177978504Y-101353284D01*
X177958819Y-101420323D01*
X177906015Y-101466078D01*
X177854504Y-101477284D01*
X96314504Y-101477284D01*
X96247465Y-101457599D01*
X96201710Y-101404795D01*
X96190504Y-101353284D01*
X96190504Y-54401284D01*
X96210189Y-54334245D01*
X96262993Y-54288490D01*
X96314504Y-54277284D01*
X177854504Y-54277284D01*
X177921543Y-54296969D01*
G37*
%LPD*%
M02*
