%TF.GenerationSoftware,KiCad,Pcbnew,9.0.6+1*%
%TF.CreationDate,Date%
%TF.ProjectId,StepUp_module_12to450V,53746570-5570-45f6-9d6f-64756c655f31,+ (Unreleased)*%
%TF.SameCoordinates,Original*%
%TF.FileFunction,Copper,L1,Top*%
%TF.FilePolarity,Positive*%
%FSLAX46Y46*%
G04 Gerber Fmt 4.6, Leading zero omitted, Abs format (unit mm)*
G04 Created by KiCad*
%MOMM*%
%LPD*%
G01*
G04 APERTURE LIST*
G04 Aperture macros list*
%AMRoundRect*
0 Rectangle with rounded corners*
0 $1 Rounding radius*
0 $2 $3 $4 $5 $6 $7 $8 $9 X,Y pos of 4 corners*
0 Add a 4 corners polygon primitive as box body*
4,1,4,$2,$3,$4,$5,$6,$7,$8,$9,$2,$3,0*
0 Add four circle primitives for the rounded corners*
1,1,$1+$1,$2,$3*
1,1,$1+$1,$4,$5*
1,1,$1+$1,$6,$7*
1,1,$1+$1,$8,$9*
0 Add four rect primitives between the rounded corners*
20,1,$1+$1,$2,$3,$4,$5,0*
20,1,$1+$1,$4,$5,$6,$7,0*
20,1,$1+$1,$6,$7,$8,$9,0*
20,1,$1+$1,$8,$9,$2,$3,0*%
G04 Aperture macros list end*
%TA.AperFunction,ComponentPad*%
%ADD10C,1.600000*%
%TD*%
%TA.AperFunction,ComponentPad*%
%ADD11R,1.800000X1.800000*%
%TD*%
%TA.AperFunction,ComponentPad*%
%ADD12C,1.800000*%
%TD*%
%TA.AperFunction,ComponentPad*%
%ADD13RoundRect,0.250001X-1.149999X1.149999X-1.149999X-1.149999X1.149999X-1.149999X1.149999X1.149999X0*%
%TD*%
%TA.AperFunction,ComponentPad*%
%ADD14C,2.800000*%
%TD*%
%TA.AperFunction,ComponentPad*%
%ADD15RoundRect,0.250000X0.750000X0.750000X-0.750000X0.750000X-0.750000X-0.750000X0.750000X-0.750000X0*%
%TD*%
%TA.AperFunction,ComponentPad*%
%ADD16C,2.000000*%
%TD*%
%TA.AperFunction,ComponentPad*%
%ADD17R,2.000000X2.000000*%
%TD*%
%TA.AperFunction,ComponentPad*%
%ADD18R,1.905000X2.000000*%
%TD*%
%TA.AperFunction,ComponentPad*%
%ADD19O,1.905000X2.000000*%
%TD*%
%TA.AperFunction,ComponentPad*%
%ADD20R,1.500000X1.500000*%
%TD*%
%TA.AperFunction,ComponentPad*%
%ADD21C,1.500000*%
%TD*%
%TA.AperFunction,ComponentPad*%
%ADD22RoundRect,0.250000X0.550000X0.550000X-0.550000X0.550000X-0.550000X-0.550000X0.550000X-0.550000X0*%
%TD*%
%TA.AperFunction,ComponentPad*%
%ADD23RoundRect,0.675000X-0.675000X-0.675000X0.675000X-0.675000X0.675000X0.675000X-0.675000X0.675000X0*%
%TD*%
%TA.AperFunction,ComponentPad*%
%ADD24C,2.700000*%
%TD*%
%TA.AperFunction,ComponentPad*%
%ADD25C,1.440000*%
%TD*%
%TA.AperFunction,ComponentPad*%
%ADD26RoundRect,0.250000X-0.550000X0.550000X-0.550000X-0.550000X0.550000X-0.550000X0.550000X0.550000X0*%
%TD*%
%TA.AperFunction,ComponentPad*%
%ADD27RoundRect,0.250000X0.650000X0.650000X-0.650000X0.650000X-0.650000X-0.650000X0.650000X-0.650000X0*%
%TD*%
%TA.AperFunction,ComponentPad*%
%ADD28RoundRect,0.250000X-0.750000X0.750000X-0.750000X-0.750000X0.750000X-0.750000X0.750000X0.750000X0*%
%TD*%
%TA.AperFunction,ViaPad*%
%ADD29C,1.500000*%
%TD*%
%TA.AperFunction,Conductor*%
%ADD30C,1.000000*%
%TD*%
G04 APERTURE END LIST*
D10*
%TO.P,C4,1*%
%TO.N,/Project Architecture/Section A - Title A/Isns*%
X155321000Y-107355000D03*
%TO.P,C4,2*%
%TO.N,GND*%
X155321000Y-112355000D03*
%TD*%
%TO.P,R11,1*%
%TO.N,/Project Architecture/Section A - Title A/B*%
X146431000Y-87630000D03*
%TO.P,R11,2*%
%TO.N,Net-(R10-Pad1)*%
X133731000Y-87630000D03*
%TD*%
%TO.P,C1,1*%
%TO.N,/Project Architecture/Section A - Title A/Emm*%
X168656000Y-92075000D03*
%TO.P,C1,2*%
%TO.N,/Project Architecture/Section A - Title A/Vref*%
X173656000Y-92075000D03*
%TD*%
D11*
%TO.P,D1,1,K*%
%TO.N,GND*%
X173101000Y-95885000D03*
D12*
%TO.P,D1,2,A*%
%TO.N,/Project Architecture/Section A - Title A/Emm*%
X170561000Y-95885000D03*
%TD*%
D10*
%TO.P,R10,1*%
%TO.N,Net-(R10-Pad1)*%
X130556000Y-87630000D03*
%TO.P,R10,2*%
%TO.N,/Project Architecture/Section A - Title A/Vout+*%
X117856000Y-87630000D03*
%TD*%
D13*
%TO.P,J1,1,Pin_1*%
%TO.N,/Project Architecture/Section A - Title A/Vout+*%
X102362000Y-101586000D03*
D14*
%TO.P,J1,2,Pin_2*%
%TO.N,GND*%
X102362000Y-106586000D03*
%TO.P,J1,3,Pin_3*%
%TO.N,/Project Architecture/Section A - Title A/Vin+*%
X102362000Y-111586000D03*
%TO.P,J1,4,Pin_4*%
%TO.N,/Project Architecture/Section A - Title A/Vin-*%
X102362000Y-116586000D03*
%TD*%
D10*
%TO.P,R4,1*%
%TO.N,Net-(R4-Pad1)*%
X145161000Y-90805000D03*
%TO.P,R4,2*%
%TO.N,GND*%
X145161000Y-98425000D03*
%TD*%
%TO.P,R5,1*%
%TO.N,/Project Architecture/Section A - Title A/RT_CT*%
X152146000Y-93980000D03*
%TO.P,R5,2*%
%TO.N,/Project Architecture/Section A - Title A/Vref*%
X152146000Y-101600000D03*
%TD*%
%TO.P,C5,1*%
%TO.N,/Project Architecture/Section A - Title A/Vref*%
X157861000Y-107315000D03*
%TO.P,C5,2*%
%TO.N,GND*%
X157861000Y-112315000D03*
%TD*%
D15*
%TO.P,C8,1*%
%TO.N,/Project Architecture/Section A - Title A/Vout+*%
X104983677Y-93345000D03*
D16*
%TO.P,C8,2*%
%TO.N,GND*%
X99983677Y-93345000D03*
%TD*%
D17*
%TO.P,TR2,1*%
%TO.N,/Project Architecture/Section A - Title A/SW*%
X136144000Y-117094000D03*
D16*
%TO.P,TR2,2*%
X136144000Y-112014000D03*
%TO.P,TR2,3*%
%TO.N,N/C*%
X136144000Y-106934000D03*
%TO.P,TR2,4*%
X136144000Y-101854000D03*
%TO.P,TR2,5*%
%TO.N,/Project Architecture/Section A - Title A/Vin+*%
X136144000Y-96774000D03*
%TO.P,TR2,6*%
%TO.N,N/C*%
X136144000Y-91694000D03*
%TO.P,TR2,7*%
%TO.N,/Project Architecture/Section A - Title A/Out_trafo*%
X110744000Y-91694000D03*
%TO.P,TR2,8*%
%TO.N,N/C*%
X110744000Y-96774000D03*
%TO.P,TR2,9*%
X110744000Y-101854000D03*
%TO.P,TR2,10*%
X110744000Y-106934000D03*
%TO.P,TR2,11*%
X110744000Y-112014000D03*
%TO.P,TR2,12*%
X110744000Y-117094000D03*
%TD*%
D18*
%TO.P,Q4,1,G*%
%TO.N,/Project Architecture/Section A - Title A/G*%
X158496000Y-125035000D03*
D19*
%TO.P,Q4,2,D*%
%TO.N,/Project Architecture/Section A - Title A/SW*%
X155956000Y-125035000D03*
%TO.P,Q4,3,S*%
%TO.N,/Project Architecture/Section A - Title A/Src*%
X153416000Y-125035000D03*
%TD*%
D10*
%TO.P,R9,1*%
%TO.N,/Project Architecture/Section A - Title A/Src*%
X153416000Y-120015000D03*
%TO.P,R9,2*%
%TO.N,GND*%
X168656000Y-120015000D03*
%TD*%
%TO.P,C3,1*%
%TO.N,/Project Architecture/Section A - Title A/RT_CT*%
X148971000Y-94020000D03*
%TO.P,C3,2*%
%TO.N,GND*%
X148971000Y-99020000D03*
%TD*%
%TO.P,C2,1*%
%TO.N,/Project Architecture/Section A - Title A/Comp*%
X166116000Y-93385000D03*
%TO.P,C2,2*%
%TO.N,/Project Architecture/Section A - Title A/Vfb*%
X166116000Y-98385000D03*
%TD*%
D20*
%TO.P,Q3,1,E*%
%TO.N,/Project Architecture/Section A - Title A/Emm*%
X168656000Y-88625000D03*
D21*
%TO.P,Q3,2,B*%
%TO.N,/Project Architecture/Section A - Title A/B*%
X171196000Y-88625000D03*
%TO.P,Q3,3,C*%
%TO.N,/Project Architecture/Section A - Title A/Vin+*%
X173736000Y-88625000D03*
%TD*%
D10*
%TO.P,R3,1*%
%TO.N,/Project Architecture/Section A - Title A/Comp*%
X165481000Y-91440000D03*
%TO.P,R3,2*%
%TO.N,/Project Architecture/Section A - Title A/Vfb*%
X157861000Y-91440000D03*
%TD*%
D22*
%TO.P,C6,1*%
%TO.N,/Project Architecture/Section A - Title A/Vin+*%
X174118651Y-111125000D03*
D10*
%TO.P,C6,2*%
%TO.N,GND*%
X170618651Y-111125000D03*
%TD*%
%TO.P,R8,1*%
%TO.N,Net-(U1-OUTPUT)*%
X164211000Y-107315000D03*
%TO.P,R8,2*%
%TO.N,/Project Architecture/Section A - Title A/G*%
X164211000Y-114935000D03*
%TD*%
%TO.P,R6,1*%
%TO.N,/Project Architecture/Section A - Title A/Isns*%
X151511000Y-106680000D03*
%TO.P,R6,2*%
%TO.N,/Project Architecture/Section A - Title A/Src*%
X151511000Y-119380000D03*
%TD*%
%TO.P,R13,1*%
%TO.N,Net-(Q2-G)*%
X147701000Y-119380000D03*
%TO.P,R13,2*%
%TO.N,GND*%
X147701000Y-111760000D03*
%TD*%
%TO.P,R2,1*%
%TO.N,/Project Architecture/Section A - Title A/Vfb*%
X157861000Y-88900000D03*
%TO.P,R2,2*%
%TO.N,/Project Architecture/Section A - Title A/Emm*%
X165481000Y-88900000D03*
%TD*%
D23*
%TO.P,F1,1*%
%TO.N,/Project Architecture/Section A - Title A/Vin-*%
X103646000Y-122555000D03*
X110406000Y-122555000D03*
D24*
%TO.P,F1,2*%
%TO.N,Net-(Q2-D)*%
X117686000Y-122555000D03*
X124446000Y-122555000D03*
%TD*%
D10*
%TO.P,R12,1*%
%TO.N,/Project Architecture/Section A - Title A/Emm*%
X169291000Y-98425000D03*
%TO.P,R12,2*%
%TO.N,GND*%
X169291000Y-106045000D03*
%TD*%
D25*
%TO.P,RV1,1,1*%
%TO.N,Net-(R4-Pad1)*%
X149606000Y-89540000D03*
%TO.P,RV1,2,2*%
X152146000Y-89540000D03*
%TO.P,RV1,3,3*%
%TO.N,/Project Architecture/Section A - Title A/B*%
X154686000Y-89540000D03*
%TD*%
D18*
%TO.P,Q2,1,G*%
%TO.N,Net-(Q2-G)*%
X138811000Y-125035000D03*
D19*
%TO.P,Q2,2,D*%
%TO.N,Net-(Q2-D)*%
X136271000Y-125035000D03*
%TO.P,Q2,3,S*%
%TO.N,GND*%
X133731000Y-125035000D03*
%TD*%
D26*
%TO.P,U1,1,COMP*%
%TO.N,/Project Architecture/Section A - Title A/Comp*%
X162941000Y-93985000D03*
D10*
%TO.P,U1,2,VFB*%
%TO.N,/Project Architecture/Section A - Title A/Vfb*%
X160401000Y-93985000D03*
%TO.P,U1,3,ISENSE*%
%TO.N,/Project Architecture/Section A - Title A/Isns*%
X157861000Y-93985000D03*
%TO.P,U1,4,RT_CT*%
%TO.N,/Project Architecture/Section A - Title A/RT_CT*%
X155321000Y-93985000D03*
%TO.P,U1,5,GND*%
%TO.N,GND*%
X155321000Y-101605000D03*
%TO.P,U1,6,OUTPUT*%
%TO.N,Net-(U1-OUTPUT)*%
X157861000Y-101605000D03*
%TO.P,U1,7,VCC*%
%TO.N,/Project Architecture/Section A - Title A/Vin+*%
X160401000Y-101605000D03*
%TO.P,U1,8,VREF*%
%TO.N,/Project Architecture/Section A - Title A/Vref*%
X162941000Y-101605000D03*
%TD*%
%TO.P,R7,1*%
%TO.N,/Project Architecture/Section A - Title A/G*%
X161036000Y-114935000D03*
%TO.P,R7,2*%
%TO.N,GND*%
X161036000Y-107315000D03*
%TD*%
D27*
%TO.P,D2,1,K*%
%TO.N,/Project Architecture/Section A - Title A/Vout+*%
X114681000Y-87630000D03*
D12*
%TO.P,D2,2,A*%
%TO.N,/Project Architecture/Section A - Title A/Out_trafo*%
X104521000Y-87630000D03*
%TD*%
D10*
%TO.P,R14,1*%
%TO.N,Net-(Q2-G)*%
X163576000Y-123825000D03*
%TO.P,R14,2*%
%TO.N,/Project Architecture/Section A - Title A/Vin+*%
X171196000Y-123825000D03*
%TD*%
D28*
%TO.P,C7,1*%
%TO.N,/Project Architecture/Section A - Title A/Vin+*%
X144526000Y-103042323D03*
D16*
%TO.P,C7,2*%
%TO.N,GND*%
X144526000Y-108042323D03*
%TD*%
D29*
%TO.N,GND*%
X171831000Y-99060000D03*
X171831000Y-106045000D03*
%TD*%
D30*
%TO.N,GND*%
X171831000Y-99060000D02*
X171831000Y-106045000D01*
%TD*%
M02*
