%TF.GenerationSoftware,KiCad,Pcbnew,9.0.6+1*%
%TF.CreationDate,Date%
%TF.ProjectId,StepUp_module_12to450V,53746570-5570-45f6-9d6f-64756c655f31,+ (Unreleased)*%
%TF.SameCoordinates,Original*%
%TF.FileFunction,Soldermask,Bot*%
%TF.FilePolarity,Negative*%
%FSLAX46Y46*%
G04 Gerber Fmt 4.6, Leading zero omitted, Abs format (unit mm)*
G04 Created by KiCad*
%MOMM*%
%LPD*%
G01*
G04 APERTURE LIST*
G04 Aperture macros list*
%AMRoundRect*
0 Rectangle with rounded corners*
0 $1 Rounding radius*
0 $2 $3 $4 $5 $6 $7 $8 $9 X,Y pos of 4 corners*
0 Add a 4 corners polygon primitive as box body*
4,1,4,$2,$3,$4,$5,$6,$7,$8,$9,$2,$3,0*
0 Add four circle primitives for the rounded corners*
1,1,$1+$1,$2,$3*
1,1,$1+$1,$4,$5*
1,1,$1+$1,$6,$7*
1,1,$1+$1,$8,$9*
0 Add four rect primitives between the rounded corners*
20,1,$1+$1,$2,$3,$4,$5,0*
20,1,$1+$1,$4,$5,$6,$7,0*
20,1,$1+$1,$6,$7,$8,$9,0*
20,1,$1+$1,$8,$9,$2,$3,0*%
G04 Aperture macros list end*
%ADD10C,1.700000*%
%ADD11RoundRect,0.050000X-0.900000X-0.900000X0.900000X-0.900000X0.900000X0.900000X-0.900000X0.900000X0*%
%ADD12C,1.900000*%
%ADD13C,2.200000*%
%ADD14RoundRect,0.259616X1.090384X-1.090384X1.090384X1.090384X-1.090384X1.090384X-1.090384X-1.090384X0*%
%ADD15C,2.700000*%
%ADD16RoundRect,0.050000X-1.000000X1.000000X-1.000000X-1.000000X1.000000X-1.000000X1.000000X1.000000X0*%
%ADD17C,2.100000*%
%ADD18RoundRect,0.050000X-0.952500X-1.000000X0.952500X-1.000000X0.952500X1.000000X-0.952500X1.000000X0*%
%ADD19O,2.005000X2.100000*%
%ADD20RoundRect,0.050000X0.750000X0.750000X-0.750000X0.750000X-0.750000X-0.750000X0.750000X-0.750000X0*%
%ADD21C,1.600000*%
%ADD22RoundRect,0.265625X0.584375X-0.584375X0.584375X0.584375X-0.584375X0.584375X-0.584375X-0.584375X0*%
%ADD23RoundRect,0.700000X0.700000X0.700000X-0.700000X0.700000X-0.700000X-0.700000X0.700000X-0.700000X0*%
%ADD24C,2.800000*%
%ADD25C,1.540000*%
%ADD26RoundRect,0.263889X0.686111X-0.686111X0.686111X0.686111X-0.686111X0.686111X-0.686111X-0.686111X0*%
%ADD27RoundRect,0.263889X-0.686111X-0.686111X0.686111X-0.686111X0.686111X0.686111X-0.686111X0.686111X0*%
G04 APERTURE END LIST*
D10*
%TO.C,C4*%
X137145000Y-75195000D03*
X137145000Y-70195000D03*
%TD*%
%TO.C,R11*%
X146389896Y-95017316D03*
X159089896Y-95017316D03*
%TD*%
%TO.C,C1*%
X123810000Y-90475000D03*
X118810000Y-90475000D03*
%TD*%
D11*
%TO.C,D3*%
X119365000Y-86665000D03*
D12*
X121905000Y-86665000D03*
%TD*%
D13*
%TO.C,H2*%
X194116496Y-54859916D03*
%TD*%
D10*
%TO.C,R10*%
X161909296Y-95017316D03*
X174609296Y-95017316D03*
%TD*%
D14*
%TO.C,J1*%
X190104000Y-80964000D03*
D15*
X190104000Y-75964000D03*
X190104000Y-70964000D03*
X190104000Y-65964000D03*
%TD*%
D10*
%TO.C,R4*%
X147305000Y-91745000D03*
X147305000Y-84125000D03*
%TD*%
%TO.C,R5*%
X140320000Y-88570000D03*
X140320000Y-80950000D03*
%TD*%
%TO.C,C5*%
X134605000Y-75235000D03*
X134605000Y-70235000D03*
%TD*%
%TO.C,C8*%
X187482323Y-89205000D03*
X192482323Y-89205000D03*
%TD*%
D16*
%TO.C,TR1*%
X156322000Y-65456000D03*
D17*
X156322000Y-70536000D03*
X156322000Y-75616000D03*
X156322000Y-80696000D03*
X156322000Y-85776000D03*
X156322000Y-90856000D03*
X181722000Y-90856000D03*
X181722000Y-85776000D03*
X181722000Y-80696000D03*
X181722000Y-75616000D03*
X181722000Y-70536000D03*
X181722000Y-65456000D03*
%TD*%
D18*
%TO.C,Q1*%
X133970000Y-57515000D03*
D19*
X136510000Y-57515000D03*
X139050000Y-57515000D03*
%TD*%
D10*
%TO.C,R9*%
X139050000Y-62535000D03*
X123810000Y-62535000D03*
%TD*%
%TO.C,C3*%
X143495000Y-88530000D03*
X143495000Y-83530000D03*
%TD*%
D13*
%TO.C,H4*%
X194065696Y-97887516D03*
%TD*%
D10*
%TO.C,C2*%
X126350000Y-89165000D03*
X126350000Y-84165000D03*
%TD*%
D20*
%TO.C,Q3*%
X123810000Y-93925000D03*
D21*
X121270000Y-93925000D03*
X118730000Y-93925000D03*
%TD*%
D10*
%TO.C,R3*%
X126985000Y-91110000D03*
X134605000Y-91110000D03*
%TD*%
D22*
%TO.C,U1*%
X129219496Y-88687716D03*
D10*
X131759496Y-88687716D03*
X134299496Y-88687716D03*
X136839496Y-88687716D03*
X136839496Y-81067716D03*
X134299496Y-81067716D03*
X131759496Y-81067716D03*
X129219496Y-81067716D03*
%TD*%
%TO.C,C6*%
X117900000Y-71450000D03*
X121400000Y-71450000D03*
%TD*%
D13*
%TO.C,H3*%
X116138496Y-97760516D03*
%TD*%
D10*
%TO.C,C9*%
X176804496Y-90419916D03*
X171804496Y-90419916D03*
%TD*%
%TO.C,R8*%
X128255000Y-75235000D03*
X128255000Y-67615000D03*
%TD*%
%TO.C,R6*%
X140955000Y-75870000D03*
X140955000Y-63170000D03*
%TD*%
%TO.C,R13*%
X144765000Y-63170000D03*
X144765000Y-70790000D03*
%TD*%
%TO.C,R2*%
X134605000Y-93650000D03*
X126985000Y-93650000D03*
%TD*%
D23*
%TO.C,F1*%
X188820000Y-59995000D03*
X182060000Y-59995000D03*
D24*
X174780000Y-59995000D03*
X168020000Y-59995000D03*
%TD*%
D10*
%TO.C,R12*%
X123175000Y-84125000D03*
X123175000Y-76505000D03*
%TD*%
D25*
%TO.C,VR1*%
X142860000Y-93010000D03*
X140320000Y-93010000D03*
X137780000Y-93010000D03*
%TD*%
D18*
%TO.C,Q2*%
X153655000Y-57515000D03*
D19*
X156195000Y-57515000D03*
X158735000Y-57515000D03*
%TD*%
D10*
%TO.C,R7*%
X131430000Y-67615000D03*
X131430000Y-75235000D03*
%TD*%
D26*
%TO.C,D2*%
X125536496Y-75357716D03*
D12*
X125536496Y-67737716D03*
%TD*%
D13*
%TO.C,H1*%
X116036896Y-54961516D03*
%TD*%
D27*
%TO.C,D4*%
X177785000Y-94920000D03*
D12*
X187945000Y-94920000D03*
%TD*%
D10*
%TO.C,R14*%
X128890000Y-58725000D03*
X121270000Y-58725000D03*
%TD*%
%TO.C,C7*%
X148269496Y-79507677D03*
X148269496Y-74507677D03*
%TD*%
M02*
