M48
; DRILL file {KiCad 9.0.6+1} date 2025-12-14T15:55:55+0000
; FORMAT={-:-/ absolute / metric / decimal}
; #@! TF.CreationDate,2025-12-14T15:55:55+00:00
; #@! TF.GenerationSoftware,Kicad,Pcbnew,9.0.6+1
; #@! TF.FileFunction,Plated,1,2,PTH
FMAT,2
METRIC
; #@! TA.AperFunction,Plated,PTH,ViaDrill
T1C0.800
; #@! TA.AperFunction,Plated,PTH,ComponentDrill
T2C0.800
; #@! TA.AperFunction,Plated,PTH,ComponentDrill
T3C0.900
; #@! TA.AperFunction,Plated,PTH,ComponentDrill
T4C1.200
; #@! TA.AperFunction,Plated,PTH,ComponentDrill
T5C1.300
; #@! TA.AperFunction,Plated,PTH,ComponentDrill
T6C1.700
%
G90
G05
T1
X102.414Y-77.982
X102.414Y-84.967
T2
X100.126Y-72.902
X100.509Y-95.402
X100.589Y-91.952
X103.049Y-60.202
X103.049Y-95.402
X103.626Y-72.902
X104.954Y-77.982
X104.954Y-85.602
X105.589Y-64.012
X105.589Y-91.952
X105.589Y-95.402
X108.129Y-85.642
X108.129Y-90.642
X108.764Y-92.587
X108.764Y-95.127
X110.034Y-69.092
X110.034Y-76.712
X110.669Y-60.202
X110.998Y-82.545
X110.998Y-90.165
X113.209Y-69.092
X113.209Y-76.712
X113.538Y-82.545
X113.538Y-90.165
X116.078Y-82.545
X116.078Y-90.165
X116.384Y-71.712
X116.384Y-76.712
X116.384Y-92.587
X116.384Y-95.127
X118.618Y-82.545
X118.618Y-90.165
X118.924Y-71.672
X118.924Y-76.672
X119.559Y-94.487
X120.829Y-64.012
X122.099Y-82.427
X122.099Y-90.047
X122.099Y-94.487
X122.734Y-64.647
X122.734Y-77.347
X124.639Y-94.487
X125.274Y-85.007
X125.274Y-90.007
X126.544Y-64.647
X126.544Y-72.267
X128.168Y-96.495
X129.084Y-85.602
X129.084Y-93.222
X130.048Y-75.985
X130.048Y-80.985
X140.868Y-96.495
X143.688Y-96.495
X153.583Y-91.897
X156.388Y-96.495
X158.583Y-91.897
X169.261Y-90.682
X174.261Y-90.682
T3
X101.144Y-88.142
X103.684Y-88.142
X107.315Y-69.215
X107.315Y-76.835
X138.101Y-66.933
X138.101Y-72.013
X138.101Y-77.093
X138.101Y-82.173
X138.101Y-87.253
X138.101Y-92.333
X159.564Y-96.397
X163.501Y-66.933
X163.501Y-72.013
X163.501Y-77.093
X163.501Y-82.173
X163.501Y-87.253
X163.501Y-92.333
X169.724Y-96.397
T4
X115.749Y-58.992
X118.289Y-58.992
X120.829Y-58.992
X135.434Y-58.992
X137.974Y-58.992
X140.514Y-58.992
T5
X171.883Y-67.441
X171.883Y-72.441
X171.883Y-77.441
X171.883Y-82.441
T6
X149.799Y-61.472
X156.559Y-61.472
X163.839Y-61.472
X170.599Y-61.472
M30
