%TF.GenerationSoftware,KiCad,Pcbnew,9.0.6+1*%
%TF.CreationDate,Date%
%TF.ProjectId,StepUp_module_12to450V,53746570-5570-45f6-9d6f-64756c655f31,+ (Unreleased)*%
%TF.SameCoordinates,Original*%
%TF.FileFunction,Copper,L2,Bot*%
%TF.FilePolarity,Positive*%
%FSLAX46Y46*%
G04 Gerber Fmt 4.6, Leading zero omitted, Abs format (unit mm)*
G04 Created by KiCad*
%MOMM*%
%LPD*%
G01*
G04 APERTURE LIST*
G04 Aperture macros list*
%AMRoundRect*
0 Rectangle with rounded corners*
0 $1 Rounding radius*
0 $2 $3 $4 $5 $6 $7 $8 $9 X,Y pos of 4 corners*
0 Add a 4 corners polygon primitive as box body*
4,1,4,$2,$3,$4,$5,$6,$7,$8,$9,$2,$3,0*
0 Add four circle primitives for the rounded corners*
1,1,$1+$1,$2,$3*
1,1,$1+$1,$4,$5*
1,1,$1+$1,$6,$7*
1,1,$1+$1,$8,$9*
0 Add four rect primitives between the rounded corners*
20,1,$1+$1,$2,$3,$4,$5,0*
20,1,$1+$1,$4,$5,$6,$7,0*
20,1,$1+$1,$6,$7,$8,$9,0*
20,1,$1+$1,$8,$9,$2,$3,0*%
G04 Aperture macros list end*
%TA.AperFunction,ComponentPad*%
%ADD10C,1.600000*%
%TD*%
%TA.AperFunction,ComponentPad*%
%ADD11R,1.800000X1.800000*%
%TD*%
%TA.AperFunction,ComponentPad*%
%ADD12C,1.800000*%
%TD*%
%TA.AperFunction,ComponentPad*%
%ADD13RoundRect,0.250001X-1.149999X1.149999X-1.149999X-1.149999X1.149999X-1.149999X1.149999X1.149999X0*%
%TD*%
%TA.AperFunction,ComponentPad*%
%ADD14C,2.800000*%
%TD*%
%TA.AperFunction,ComponentPad*%
%ADD15RoundRect,0.250000X0.750000X0.750000X-0.750000X0.750000X-0.750000X-0.750000X0.750000X-0.750000X0*%
%TD*%
%TA.AperFunction,ComponentPad*%
%ADD16C,2.000000*%
%TD*%
%TA.AperFunction,ComponentPad*%
%ADD17R,2.000000X2.000000*%
%TD*%
%TA.AperFunction,ComponentPad*%
%ADD18R,1.905000X2.000000*%
%TD*%
%TA.AperFunction,ComponentPad*%
%ADD19O,1.905000X2.000000*%
%TD*%
%TA.AperFunction,ComponentPad*%
%ADD20R,1.500000X1.500000*%
%TD*%
%TA.AperFunction,ComponentPad*%
%ADD21C,1.500000*%
%TD*%
%TA.AperFunction,ComponentPad*%
%ADD22RoundRect,0.250000X0.550000X0.550000X-0.550000X0.550000X-0.550000X-0.550000X0.550000X-0.550000X0*%
%TD*%
%TA.AperFunction,ComponentPad*%
%ADD23RoundRect,0.675000X-0.675000X-0.675000X0.675000X-0.675000X0.675000X0.675000X-0.675000X0.675000X0*%
%TD*%
%TA.AperFunction,ComponentPad*%
%ADD24C,2.700000*%
%TD*%
%TA.AperFunction,ComponentPad*%
%ADD25C,1.440000*%
%TD*%
%TA.AperFunction,ComponentPad*%
%ADD26RoundRect,0.250000X-0.550000X0.550000X-0.550000X-0.550000X0.550000X-0.550000X0.550000X0.550000X0*%
%TD*%
%TA.AperFunction,ComponentPad*%
%ADD27RoundRect,0.250000X0.650000X0.650000X-0.650000X0.650000X-0.650000X-0.650000X0.650000X-0.650000X0*%
%TD*%
%TA.AperFunction,ComponentPad*%
%ADD28RoundRect,0.250000X-0.750000X0.750000X-0.750000X-0.750000X0.750000X-0.750000X0.750000X0.750000X0*%
%TD*%
%TA.AperFunction,ViaPad*%
%ADD29C,1.500000*%
%TD*%
%TA.AperFunction,Conductor*%
%ADD30C,1.000000*%
%TD*%
G04 APERTURE END LIST*
D10*
%TO.P,C4,1*%
%TO.N,/Project Architecture/Section A - Title A/Isns*%
X155321000Y-107355000D03*
%TO.P,C4,2*%
%TO.N,GND*%
X155321000Y-112355000D03*
%TD*%
%TO.P,R11,1*%
%TO.N,/Project Architecture/Section A - Title A/B*%
X146431000Y-87630000D03*
%TO.P,R11,2*%
%TO.N,Net-(R10-Pad1)*%
X133731000Y-87630000D03*
%TD*%
%TO.P,C1,1*%
%TO.N,/Project Architecture/Section A - Title A/Emm*%
X168656000Y-92075000D03*
%TO.P,C1,2*%
%TO.N,/Project Architecture/Section A - Title A/Vref*%
X173656000Y-92075000D03*
%TD*%
D11*
%TO.P,D1,1,K*%
%TO.N,GND*%
X173101000Y-95885000D03*
D12*
%TO.P,D1,2,A*%
%TO.N,/Project Architecture/Section A - Title A/Emm*%
X170561000Y-95885000D03*
%TD*%
D10*
%TO.P,R10,1*%
%TO.N,Net-(R10-Pad1)*%
X130556000Y-87630000D03*
%TO.P,R10,2*%
%TO.N,/Project Architecture/Section A - Title A/Vout+*%
X117856000Y-87630000D03*
%TD*%
D13*
%TO.P,J1,1,Pin_1*%
%TO.N,/Project Architecture/Section A - Title A/Vout+*%
X102362000Y-101586000D03*
D14*
%TO.P,J1,2,Pin_2*%
%TO.N,GND*%
X102362000Y-106586000D03*
%TO.P,J1,3,Pin_3*%
%TO.N,/Project Architecture/Section A - Title A/Vin+*%
X102362000Y-111586000D03*
%TO.P,J1,4,Pin_4*%
%TO.N,/Project Architecture/Section A - Title A/Vin-*%
X102362000Y-116586000D03*
%TD*%
D10*
%TO.P,R4,1*%
%TO.N,Net-(R4-Pad1)*%
X145161000Y-90805000D03*
%TO.P,R4,2*%
%TO.N,GND*%
X145161000Y-98425000D03*
%TD*%
%TO.P,R5,1*%
%TO.N,/Project Architecture/Section A - Title A/RT_CT*%
X152146000Y-93980000D03*
%TO.P,R5,2*%
%TO.N,/Project Architecture/Section A - Title A/Vref*%
X152146000Y-101600000D03*
%TD*%
%TO.P,C5,1*%
%TO.N,/Project Architecture/Section A - Title A/Vref*%
X157861000Y-107315000D03*
%TO.P,C5,2*%
%TO.N,GND*%
X157861000Y-112315000D03*
%TD*%
D15*
%TO.P,C8,1*%
%TO.N,/Project Architecture/Section A - Title A/Vout+*%
X104983677Y-93345000D03*
D16*
%TO.P,C8,2*%
%TO.N,GND*%
X99983677Y-93345000D03*
%TD*%
D17*
%TO.P,TR2,1*%
%TO.N,/Project Architecture/Section A - Title A/SW*%
X136144000Y-117094000D03*
D16*
%TO.P,TR2,2*%
X136144000Y-112014000D03*
%TO.P,TR2,3*%
%TO.N,N/C*%
X136144000Y-106934000D03*
%TO.P,TR2,4*%
X136144000Y-101854000D03*
%TO.P,TR2,5*%
%TO.N,/Project Architecture/Section A - Title A/Vin+*%
X136144000Y-96774000D03*
%TO.P,TR2,6*%
%TO.N,N/C*%
X136144000Y-91694000D03*
%TO.P,TR2,7*%
%TO.N,/Project Architecture/Section A - Title A/Out_trafo*%
X110744000Y-91694000D03*
%TO.P,TR2,8*%
%TO.N,N/C*%
X110744000Y-96774000D03*
%TO.P,TR2,9*%
X110744000Y-101854000D03*
%TO.P,TR2,10*%
X110744000Y-107094000D03*
%TO.P,TR2,11*%
X110744000Y-112014000D03*
%TO.P,TR2,12*%
X110744000Y-117094000D03*
%TD*%
D18*
%TO.P,Q4,1,G*%
%TO.N,/Project Architecture/Section A - Title A/G*%
X158496000Y-125035000D03*
D19*
%TO.P,Q4,2,D*%
%TO.N,/Project Architecture/Section A - Title A/SW*%
X155956000Y-125035000D03*
%TO.P,Q4,3,S*%
%TO.N,/Project Architecture/Section A - Title A/Src*%
X153416000Y-125035000D03*
%TD*%
D10*
%TO.P,R9,1*%
%TO.N,/Project Architecture/Section A - Title A/Src*%
X153416000Y-120015000D03*
%TO.P,R9,2*%
%TO.N,GND*%
X168656000Y-120015000D03*
%TD*%
%TO.P,C3,1*%
%TO.N,/Project Architecture/Section A - Title A/RT_CT*%
X148971000Y-94020000D03*
%TO.P,C3,2*%
%TO.N,GND*%
X148971000Y-99020000D03*
%TD*%
%TO.P,C2,1*%
%TO.N,/Project Architecture/Section A - Title A/Comp*%
X166116000Y-93385000D03*
%TO.P,C2,2*%
%TO.N,/Project Architecture/Section A - Title A/Vfb*%
X166116000Y-98385000D03*
%TD*%
D20*
%TO.P,Q3,1,E*%
%TO.N,/Project Architecture/Section A - Title A/Emm*%
X168656000Y-88625000D03*
D21*
%TO.P,Q3,2,B*%
%TO.N,/Project Architecture/Section A - Title A/B*%
X171196000Y-88625000D03*
%TO.P,Q3,3,C*%
%TO.N,/Project Architecture/Section A - Title A/Vin+*%
X173736000Y-88625000D03*
%TD*%
D10*
%TO.P,R3,1*%
%TO.N,/Project Architecture/Section A - Title A/Comp*%
X165481000Y-91440000D03*
%TO.P,R3,2*%
%TO.N,/Project Architecture/Section A - Title A/Vfb*%
X157861000Y-91440000D03*
%TD*%
D22*
%TO.P,C6,1*%
%TO.N,/Project Architecture/Section A - Title A/Vin+*%
X174118651Y-111125000D03*
D10*
%TO.P,C6,2*%
%TO.N,GND*%
X170618651Y-111125000D03*
%TD*%
%TO.P,R8,1*%
%TO.N,Net-(U1-OUTPUT)*%
X164211000Y-107315000D03*
%TO.P,R8,2*%
%TO.N,/Project Architecture/Section A - Title A/G*%
X164211000Y-114935000D03*
%TD*%
%TO.P,R6,1*%
%TO.N,/Project Architecture/Section A - Title A/Isns*%
X151511000Y-106680000D03*
%TO.P,R6,2*%
%TO.N,/Project Architecture/Section A - Title A/Src*%
X151511000Y-119380000D03*
%TD*%
%TO.P,R13,1*%
%TO.N,Net-(Q2-G)*%
X147701000Y-119380000D03*
%TO.P,R13,2*%
%TO.N,GND*%
X147701000Y-111760000D03*
%TD*%
%TO.P,R2,1*%
%TO.N,/Project Architecture/Section A - Title A/Vfb*%
X157861000Y-88900000D03*
%TO.P,R2,2*%
%TO.N,/Project Architecture/Section A - Title A/Emm*%
X165481000Y-88900000D03*
%TD*%
D23*
%TO.P,F1,1*%
%TO.N,/Project Architecture/Section A - Title A/Vin-*%
X103646000Y-122555000D03*
X110406000Y-122555000D03*
D24*
%TO.P,F1,2*%
%TO.N,Net-(Q2-D)*%
X117686000Y-122555000D03*
X124446000Y-122555000D03*
%TD*%
D10*
%TO.P,R12,1*%
%TO.N,/Project Architecture/Section A - Title A/Emm*%
X169291000Y-98425000D03*
%TO.P,R12,2*%
%TO.N,GND*%
X169291000Y-106045000D03*
%TD*%
D25*
%TO.P,RV1,1,1*%
%TO.N,Net-(R4-Pad1)*%
X149606000Y-89540000D03*
%TO.P,RV1,2,2*%
X152146000Y-89540000D03*
%TO.P,RV1,3,3*%
%TO.N,/Project Architecture/Section A - Title A/B*%
X154686000Y-89540000D03*
%TD*%
D18*
%TO.P,Q2,1,G*%
%TO.N,Net-(Q2-G)*%
X138811000Y-125035000D03*
D19*
%TO.P,Q2,2,D*%
%TO.N,Net-(Q2-D)*%
X136271000Y-125035000D03*
%TO.P,Q2,3,S*%
%TO.N,GND*%
X133731000Y-125035000D03*
%TD*%
D26*
%TO.P,U1,1,COMP*%
%TO.N,/Project Architecture/Section A - Title A/Comp*%
X162941000Y-93985000D03*
D10*
%TO.P,U1,2,VFB*%
%TO.N,/Project Architecture/Section A - Title A/Vfb*%
X160401000Y-93985000D03*
%TO.P,U1,3,ISENSE*%
%TO.N,/Project Architecture/Section A - Title A/Isns*%
X157861000Y-93985000D03*
%TO.P,U1,4,RT_CT*%
%TO.N,/Project Architecture/Section A - Title A/RT_CT*%
X155321000Y-93985000D03*
%TO.P,U1,5,GND*%
%TO.N,GND*%
X155321000Y-101605000D03*
%TO.P,U1,6,OUTPUT*%
%TO.N,Net-(U1-OUTPUT)*%
X157861000Y-101605000D03*
%TO.P,U1,7,VCC*%
%TO.N,/Project Architecture/Section A - Title A/Vin+*%
X160401000Y-101605000D03*
%TO.P,U1,8,VREF*%
%TO.N,/Project Architecture/Section A - Title A/Vref*%
X162941000Y-101605000D03*
%TD*%
%TO.P,R7,1*%
%TO.N,/Project Architecture/Section A - Title A/G*%
X161036000Y-114935000D03*
%TO.P,R7,2*%
%TO.N,GND*%
X161036000Y-107315000D03*
%TD*%
D27*
%TO.P,D2,1,K*%
%TO.N,/Project Architecture/Section A - Title A/Vout+*%
X114681000Y-87630000D03*
D12*
%TO.P,D2,2,A*%
%TO.N,/Project Architecture/Section A - Title A/Out_trafo*%
X104521000Y-87630000D03*
%TD*%
D10*
%TO.P,R14,1*%
%TO.N,Net-(Q2-G)*%
X163576000Y-123825000D03*
%TO.P,R14,2*%
%TO.N,/Project Architecture/Section A - Title A/Vin+*%
X171196000Y-123825000D03*
%TD*%
D28*
%TO.P,C7,1*%
%TO.N,/Project Architecture/Section A - Title A/Vin+*%
X144526000Y-103042323D03*
D16*
%TO.P,C7,2*%
%TO.N,GND*%
X144526000Y-108042323D03*
%TD*%
D29*
%TO.N,GND*%
X171831000Y-99060000D03*
X171831000Y-106045000D03*
%TD*%
D30*
%TO.N,Net-(R10-Pad1)*%
X130556000Y-87630000D02*
X133731000Y-87630000D01*
%TO.N,/Project Architecture/Section A - Title A/Emm*%
X168656000Y-92075000D02*
X168656000Y-95885000D01*
X168656000Y-97790000D02*
X169291000Y-98425000D01*
X165481000Y-88900000D02*
X168381000Y-88900000D01*
X168656000Y-95885000D02*
X168656000Y-97790000D01*
X168656000Y-92075000D02*
X168656000Y-88625000D01*
X170561000Y-95885000D02*
X168656000Y-95885000D01*
X168381000Y-88900000D02*
X168656000Y-88625000D01*
%TO.N,/Project Architecture/Section A - Title A/Vref*%
X162941000Y-101605000D02*
X162941000Y-100965000D01*
X175006000Y-99060000D02*
X172461000Y-101605000D01*
X175006000Y-93345000D02*
X175006000Y-99060000D01*
X162941000Y-100965000D02*
X161671000Y-99695000D01*
X173656000Y-92075000D02*
X173736000Y-92075000D01*
X161671000Y-99695000D02*
X152781000Y-99695000D01*
X152146000Y-101600000D02*
X157861000Y-107315000D01*
X152781000Y-99695000D02*
X152146000Y-100330000D01*
X172461000Y-101605000D02*
X162941000Y-101605000D01*
X173736000Y-92075000D02*
X175006000Y-93345000D01*
X152146000Y-100330000D02*
X152146000Y-101600000D01*
%TO.N,GND*%
X150796000Y-112315000D02*
X157861000Y-112315000D01*
X168656000Y-111125000D02*
X161036000Y-111125000D01*
X169291000Y-106045000D02*
X171831000Y-106045000D01*
X148971000Y-107950000D02*
X148971000Y-111760000D01*
X126111000Y-107950000D02*
X126203323Y-108042323D01*
X98171000Y-95157677D02*
X98171000Y-124460000D01*
X132401000Y-126365000D02*
X133731000Y-125035000D01*
X171831000Y-99060000D02*
X173101000Y-97790000D01*
X148971000Y-99020000D02*
X148971000Y-107950000D01*
X99983677Y-93345000D02*
X98171000Y-95157677D01*
X155326000Y-101605000D02*
X161036000Y-107315000D01*
X98171000Y-124460000D02*
X100076000Y-126365000D01*
X155321000Y-101605000D02*
X155326000Y-101605000D01*
X168656000Y-120015000D02*
X168656000Y-111125000D01*
X148878677Y-108042323D02*
X148971000Y-107950000D01*
X161036000Y-111760000D02*
X160481000Y-112315000D01*
X113411000Y-126365000D02*
X113411000Y-120650000D01*
X169291000Y-111125000D02*
X168656000Y-111125000D01*
X173101000Y-97790000D02*
X173101000Y-95885000D01*
X160481000Y-112315000D02*
X157861000Y-112315000D01*
X170618651Y-111125000D02*
X169291000Y-111125000D01*
X148376000Y-98425000D02*
X148971000Y-99020000D01*
X161036000Y-111125000D02*
X161036000Y-111760000D01*
X169291000Y-106045000D02*
X169291000Y-111125000D01*
X161036000Y-107315000D02*
X161036000Y-111125000D01*
X148971000Y-111760000D02*
X147701000Y-111760000D01*
X150241000Y-111760000D02*
X150796000Y-112315000D01*
X144526000Y-108042323D02*
X148878677Y-108042323D01*
X145161000Y-98425000D02*
X148376000Y-98425000D01*
X100076000Y-126365000D02*
X113411000Y-126365000D01*
X113411000Y-120650000D02*
X126111000Y-107950000D01*
X148971000Y-111760000D02*
X150241000Y-111760000D01*
X126203323Y-108042323D02*
X144526000Y-108042323D01*
X113411000Y-126365000D02*
X132401000Y-126365000D01*
%TO.N,Net-(R4-Pad1)*%
X152146000Y-89540000D02*
X147696000Y-89540000D01*
X147696000Y-89540000D02*
X146431000Y-90805000D01*
X146431000Y-90805000D02*
X145161000Y-90805000D01*
%TO.N,Net-(Q2-G)*%
X138811000Y-125035000D02*
X141411000Y-127635000D01*
X147701000Y-127635000D02*
X147701000Y-119380000D01*
X161036000Y-127635000D02*
X147701000Y-127635000D01*
X163576000Y-123825000D02*
X163576000Y-125095000D01*
X163576000Y-125095000D02*
X161036000Y-127635000D01*
X141411000Y-127635000D02*
X147701000Y-127635000D01*
%TO.N,/Project Architecture/Section A - Title A/Comp*%
X164846000Y-92075000D02*
X165481000Y-91440000D01*
X162941000Y-93980000D02*
X164846000Y-92075000D01*
X166116000Y-93385000D02*
X164846000Y-92115000D01*
X164846000Y-92115000D02*
X164846000Y-92075000D01*
X162941000Y-93985000D02*
X162941000Y-93980000D01*
%TO.N,/Project Architecture/Section A - Title A/Vfb*%
X166116000Y-98385000D02*
X161631000Y-98385000D01*
X160401000Y-93985000D02*
X160401000Y-91440000D01*
X161631000Y-98385000D02*
X160401000Y-97155000D01*
X160401000Y-91440000D02*
X159131000Y-90170000D01*
X160401000Y-97155000D02*
X160401000Y-93985000D01*
X157861000Y-91440000D02*
X159131000Y-90170000D01*
X159131000Y-90170000D02*
X157861000Y-88900000D01*
%TO.N,/Project Architecture/Section A - Title A/RT_CT*%
X148971000Y-94020000D02*
X155286000Y-94020000D01*
X155286000Y-94020000D02*
X155321000Y-93985000D01*
%TO.N,/Project Architecture/Section A - Title A/Isns*%
X150876000Y-98425000D02*
X150876000Y-99695000D01*
X150876000Y-99695000D02*
X150241000Y-100330000D01*
X157861000Y-93985000D02*
X157861000Y-95885000D01*
X155956000Y-97790000D02*
X151511000Y-97790000D01*
X150241000Y-100330000D02*
X150241000Y-105410000D01*
X151511000Y-97790000D02*
X150876000Y-98425000D01*
X150241000Y-105410000D02*
X151511000Y-106680000D01*
X157861000Y-95885000D02*
X155956000Y-97790000D01*
X151511000Y-106680000D02*
X154646000Y-106680000D01*
X154646000Y-106680000D02*
X155321000Y-107355000D01*
%TO.N,/Project Architecture/Section A - Title A/Vin+*%
X176911000Y-103505000D02*
X176911000Y-90170000D01*
X176911000Y-103505000D02*
X176911000Y-111125000D01*
X176911000Y-111125000D02*
X176911000Y-122555000D01*
X175641000Y-123825000D02*
X171196000Y-123825000D01*
X145161000Y-84455000D02*
X141351000Y-88265000D01*
X141351000Y-88265000D02*
X141351000Y-99695000D01*
X162301000Y-103505000D02*
X176911000Y-103505000D01*
X171196000Y-84455000D02*
X145161000Y-84455000D01*
X141351000Y-99695000D02*
X144526000Y-102870000D01*
X160401000Y-101605000D02*
X162301000Y-103505000D01*
X176911000Y-122555000D02*
X175641000Y-123825000D01*
X176911000Y-90170000D02*
X171196000Y-84455000D01*
X144526000Y-102870000D02*
X144526000Y-103042323D01*
X174118651Y-111125000D02*
X176911000Y-111125000D01*
%TO.N,/Project Architecture/Section A - Title A/Vout+*%
X104983677Y-99060000D02*
X104983677Y-93345000D01*
X115951000Y-99060000D02*
X104983677Y-99060000D01*
X104888000Y-99060000D02*
X102362000Y-101586000D01*
X120396000Y-94615000D02*
X115951000Y-99060000D01*
X120396000Y-90170000D02*
X120396000Y-94615000D01*
X114681000Y-87630000D02*
X117856000Y-87630000D01*
X104983677Y-99060000D02*
X104888000Y-99060000D01*
X117856000Y-87630000D02*
X120396000Y-90170000D01*
%TO.N,Net-(U1-OUTPUT)*%
X157861000Y-101605000D02*
X163571000Y-107315000D01*
X163571000Y-107315000D02*
X164211000Y-107315000D01*
%TO.N,/Project Architecture/Section A - Title A/Out_trafo*%
X110744000Y-91694000D02*
X106680000Y-87630000D01*
X106680000Y-87630000D02*
X104521000Y-87630000D01*
%TO.N,Net-(Q2-D)*%
X128016000Y-122555000D02*
X117686000Y-122555000D01*
X136271000Y-122555000D02*
X135636000Y-121920000D01*
X135636000Y-121920000D02*
X128651000Y-121920000D01*
X128651000Y-121920000D02*
X128016000Y-122555000D01*
X136271000Y-125035000D02*
X136271000Y-122555000D01*
%TO.N,/Project Architecture/Section A - Title A/Vin-*%
X103646000Y-122555000D02*
X110406000Y-122555000D01*
X102362000Y-121271000D02*
X102362000Y-116586000D01*
X103646000Y-122555000D02*
X102362000Y-121271000D01*
%TO.N,/Project Architecture/Section A - Title A/B*%
X154686000Y-86995000D02*
X154686000Y-89540000D01*
X147066000Y-86995000D02*
X154686000Y-86995000D01*
X146431000Y-87630000D02*
X147066000Y-86995000D01*
X169566000Y-86995000D02*
X171196000Y-88625000D01*
X154686000Y-86995000D02*
X169566000Y-86995000D01*
%TO.N,/Project Architecture/Section A - Title A/Src*%
X153416000Y-125035000D02*
X153416000Y-120015000D01*
X151511000Y-119380000D02*
X152781000Y-119380000D01*
X152781000Y-119380000D02*
X153416000Y-120015000D01*
%TO.N,/Project Architecture/Section A - Title A/G*%
X161036000Y-121920000D02*
X161036000Y-114935000D01*
X158496000Y-124460000D02*
X161036000Y-121920000D01*
X164211000Y-114935000D02*
X161036000Y-114935000D01*
X158496000Y-125035000D02*
X158496000Y-124460000D01*
%TD*%
%TA.AperFunction,Conductor*%
%TO.N,Net-(Q2-D)*%
G36*
X134635677Y-118383685D02*
G01*
X134656319Y-118400319D01*
X137123681Y-120867681D01*
X137157166Y-120929004D01*
X137160000Y-120955362D01*
X137160000Y-126186638D01*
X137140315Y-126253677D01*
X137123681Y-126274319D01*
X136942319Y-126455681D01*
X136880996Y-126489166D01*
X136854638Y-126492000D01*
X135433362Y-126492000D01*
X135366323Y-126472315D01*
X135345681Y-126455681D01*
X135164319Y-126274319D01*
X135130834Y-126212996D01*
X135128000Y-126186638D01*
X135128000Y-123952000D01*
X134366000Y-123190000D01*
X129286000Y-123190000D01*
X129285999Y-123190000D01*
X128306319Y-124169681D01*
X128244996Y-124203166D01*
X128218638Y-124206000D01*
X117145362Y-124206000D01*
X117078323Y-124186315D01*
X117057681Y-124169681D01*
X115860319Y-122972319D01*
X115826834Y-122910996D01*
X115824000Y-122884638D01*
X115824000Y-120955362D01*
X115843685Y-120888323D01*
X115860319Y-120867681D01*
X118327681Y-118400319D01*
X118389004Y-118366834D01*
X118415362Y-118364000D01*
X134568638Y-118364000D01*
X134635677Y-118383685D01*
G37*
%TD.AperFunction*%
%TD*%
%TA.AperFunction,Conductor*%
%TO.N,GND*%
G36*
X100853677Y-90189685D02*
G01*
X100874319Y-90206319D01*
X101817681Y-91149681D01*
X101851166Y-91211004D01*
X101854000Y-91237362D01*
X101854000Y-95452638D01*
X101834315Y-95519677D01*
X101817681Y-95540319D01*
X99060000Y-98297999D01*
X99060000Y-98298000D01*
X99060000Y-102870000D01*
X101092000Y-104902000D01*
X103072638Y-104902000D01*
X103139677Y-104921685D01*
X103160319Y-104938319D01*
X103849681Y-105627681D01*
X103883166Y-105689004D01*
X103886000Y-105715362D01*
X103886000Y-108152638D01*
X103866315Y-108219677D01*
X103849681Y-108240319D01*
X102906319Y-109183681D01*
X102844996Y-109217166D01*
X102818638Y-109220000D01*
X100329999Y-109220000D01*
X99060000Y-110489999D01*
X99060000Y-110490000D01*
X99060000Y-123444000D01*
X100584000Y-124968000D01*
X110490000Y-124968000D01*
X111403387Y-124054612D01*
X111435964Y-124031212D01*
X111555296Y-123972030D01*
X111703722Y-123852722D01*
X111823030Y-123704296D01*
X111882211Y-123584966D01*
X111905611Y-123552388D01*
X112014000Y-123444000D01*
X112014000Y-119177362D01*
X112033685Y-119110323D01*
X112050319Y-119089681D01*
X124300487Y-106839513D01*
X134943500Y-106839513D01*
X134943500Y-107028486D01*
X134973059Y-107215118D01*
X135031454Y-107394836D01*
X135112977Y-107554832D01*
X135117240Y-107563199D01*
X135228310Y-107716073D01*
X135361927Y-107849690D01*
X135514801Y-107960760D01*
X135569401Y-107988580D01*
X135683163Y-108046545D01*
X135683165Y-108046545D01*
X135683168Y-108046547D01*
X135779497Y-108077846D01*
X135862881Y-108104940D01*
X136049514Y-108134500D01*
X136049519Y-108134500D01*
X136238486Y-108134500D01*
X136425118Y-108104940D01*
X136464515Y-108092139D01*
X136604832Y-108046547D01*
X136773199Y-107960760D01*
X136926073Y-107849690D01*
X137059690Y-107716073D01*
X137170760Y-107563199D01*
X137256547Y-107394832D01*
X137314940Y-107215118D01*
X137339007Y-107063165D01*
X137344500Y-107028486D01*
X137344500Y-106839513D01*
X137314940Y-106652881D01*
X137256545Y-106473163D01*
X137196083Y-106354500D01*
X137170760Y-106304801D01*
X137059690Y-106151927D01*
X136926073Y-106018310D01*
X136773199Y-105907240D01*
X136746233Y-105893500D01*
X136604836Y-105821454D01*
X136425118Y-105763059D01*
X136238486Y-105733500D01*
X136238481Y-105733500D01*
X136049519Y-105733500D01*
X136049514Y-105733500D01*
X135862881Y-105763059D01*
X135683163Y-105821454D01*
X135514800Y-105907240D01*
X135427579Y-105970610D01*
X135361927Y-106018310D01*
X135361925Y-106018312D01*
X135361924Y-106018312D01*
X135228312Y-106151924D01*
X135228312Y-106151925D01*
X135228310Y-106151927D01*
X135213726Y-106172000D01*
X135117240Y-106304800D01*
X135031454Y-106473163D01*
X134973059Y-106652881D01*
X134943500Y-106839513D01*
X124300487Y-106839513D01*
X125947681Y-105192319D01*
X126009004Y-105158834D01*
X126035362Y-105156000D01*
X146812000Y-105156000D01*
X147828000Y-104140000D01*
X147828000Y-101346000D01*
X146304000Y-99822000D01*
X145339362Y-99822000D01*
X145272323Y-99802315D01*
X145251681Y-99785681D01*
X144054319Y-98588319D01*
X144020834Y-98526996D01*
X144018000Y-98500638D01*
X144018000Y-96825362D01*
X144037685Y-96758323D01*
X144054319Y-96737681D01*
X144489681Y-96302319D01*
X144551004Y-96268834D01*
X144577362Y-96266000D01*
X149300638Y-96266000D01*
X149367677Y-96285685D01*
X149388319Y-96302319D01*
X149823681Y-96737681D01*
X149857166Y-96799004D01*
X149860000Y-96825362D01*
X149860000Y-99262638D01*
X149840315Y-99329677D01*
X149823681Y-99350319D01*
X149606000Y-99567999D01*
X149606000Y-100007866D01*
X149596561Y-100055318D01*
X149567421Y-100125667D01*
X149567418Y-100125677D01*
X149540500Y-100261004D01*
X149540500Y-100261007D01*
X149540500Y-105341006D01*
X149540500Y-105478994D01*
X149540500Y-105478996D01*
X149540499Y-105478996D01*
X149567418Y-105614322D01*
X149567420Y-105614328D01*
X149596561Y-105684680D01*
X149606000Y-105732133D01*
X149606000Y-107696000D01*
X150876000Y-108966000D01*
X159004000Y-108966000D01*
X160020000Y-107950000D01*
X160020000Y-106731362D01*
X160039685Y-106664323D01*
X160056319Y-106643681D01*
X160491681Y-106208319D01*
X160553004Y-106174834D01*
X160579362Y-106172000D01*
X160984638Y-106172000D01*
X161051677Y-106191685D01*
X161072319Y-106208319D01*
X161761681Y-106897681D01*
X161795166Y-106959004D01*
X161798000Y-106985362D01*
X161798000Y-107950000D01*
X162814000Y-108966000D01*
X167386000Y-108966000D01*
X167894000Y-108458000D01*
X167894000Y-105207362D01*
X167913685Y-105140323D01*
X167930319Y-105119681D01*
X168365681Y-104684319D01*
X168427004Y-104650834D01*
X168453362Y-104648000D01*
X172414638Y-104648000D01*
X172481677Y-104667685D01*
X172502319Y-104684319D01*
X172937681Y-105119681D01*
X172971166Y-105181004D01*
X172974000Y-105207362D01*
X172974000Y-106628638D01*
X172954315Y-106695677D01*
X172937681Y-106716319D01*
X172212000Y-107441999D01*
X172212000Y-114300000D01*
X174969681Y-117057681D01*
X175003166Y-117119004D01*
X175006000Y-117145362D01*
X175006000Y-121106638D01*
X174986315Y-121173677D01*
X174969681Y-121194319D01*
X174534319Y-121629681D01*
X174472996Y-121663166D01*
X174446638Y-121666000D01*
X167945362Y-121666000D01*
X167878323Y-121646315D01*
X167857681Y-121629681D01*
X166914319Y-120686319D01*
X166880834Y-120624996D01*
X166878000Y-120598638D01*
X166878000Y-117907362D01*
X166897685Y-117840323D01*
X166914319Y-117819681D01*
X168148000Y-116586000D01*
X168148000Y-113792000D01*
X167386000Y-113030000D01*
X143561362Y-113030000D01*
X143494323Y-113010315D01*
X143473681Y-112993681D01*
X139954000Y-109474000D01*
X134620000Y-109474000D01*
X134619999Y-109474000D01*
X132842000Y-111251999D01*
X132842000Y-115518638D01*
X132822315Y-115585677D01*
X132805681Y-115606319D01*
X131354319Y-117057681D01*
X131292996Y-117091166D01*
X131266638Y-117094000D01*
X118617999Y-117094000D01*
X115316000Y-120395999D01*
X115316000Y-120396000D01*
X115316000Y-123698000D01*
X116332000Y-124714000D01*
X128778000Y-124714000D01*
X129757681Y-123734319D01*
X129819004Y-123700834D01*
X129845362Y-123698000D01*
X134060638Y-123698000D01*
X134127677Y-123717685D01*
X134148319Y-123734319D01*
X134837681Y-124423681D01*
X134871166Y-124485004D01*
X134874000Y-124511362D01*
X134874000Y-125932638D01*
X134854315Y-125999677D01*
X134837681Y-126020319D01*
X133386319Y-127471681D01*
X133324996Y-127505166D01*
X133298638Y-127508000D01*
X100127362Y-127508000D01*
X100060323Y-127488315D01*
X100039681Y-127471681D01*
X97064319Y-124496319D01*
X97030834Y-124434996D01*
X97028000Y-124408638D01*
X97028000Y-90983362D01*
X97047685Y-90916323D01*
X97064319Y-90895681D01*
X97753681Y-90206319D01*
X97815004Y-90172834D01*
X97841362Y-90170000D01*
X100786638Y-90170000D01*
X100853677Y-90189685D01*
G37*
%TD.AperFunction*%
%TD*%
%TA.AperFunction,Conductor*%
%TO.N,/Project Architecture/Section A - Title A/Vin+*%
G36*
X142509677Y-87395685D02*
G01*
X142530319Y-87412319D01*
X142965681Y-87847681D01*
X142999166Y-87909004D01*
X143002000Y-87935362D01*
X143002000Y-98552000D01*
X147029681Y-102579681D01*
X147063166Y-102641004D01*
X147066000Y-102667362D01*
X147066000Y-103834638D01*
X147046315Y-103901677D01*
X147029681Y-103922319D01*
X146340319Y-104611681D01*
X146278996Y-104645166D01*
X146252638Y-104648000D01*
X125476000Y-104648000D01*
X111288447Y-119088902D01*
X111227422Y-119122928D01*
X111199993Y-119126000D01*
X109525362Y-119126000D01*
X109458323Y-119106315D01*
X109437681Y-119089681D01*
X107347513Y-116999513D01*
X109543500Y-116999513D01*
X109543500Y-117188486D01*
X109573059Y-117375118D01*
X109631454Y-117554836D01*
X109717240Y-117723199D01*
X109828310Y-117876073D01*
X109961927Y-118009690D01*
X110114801Y-118120760D01*
X110188870Y-118158500D01*
X110283163Y-118206545D01*
X110283165Y-118206545D01*
X110283168Y-118206547D01*
X110379497Y-118237846D01*
X110462881Y-118264940D01*
X110649514Y-118294500D01*
X110649519Y-118294500D01*
X110838486Y-118294500D01*
X111025118Y-118264940D01*
X111055682Y-118255009D01*
X111204832Y-118206547D01*
X111373199Y-118120760D01*
X111526073Y-118009690D01*
X111659690Y-117876073D01*
X111770760Y-117723199D01*
X111856547Y-117554832D01*
X111914940Y-117375118D01*
X111944500Y-117188486D01*
X111944500Y-116999513D01*
X111914940Y-116812881D01*
X111856545Y-116633163D01*
X111770759Y-116464800D01*
X111659690Y-116311927D01*
X111526073Y-116178310D01*
X111373199Y-116067240D01*
X111204836Y-115981454D01*
X111025118Y-115923059D01*
X110838486Y-115893500D01*
X110838481Y-115893500D01*
X110649519Y-115893500D01*
X110649514Y-115893500D01*
X110462881Y-115923059D01*
X110283163Y-115981454D01*
X110114800Y-116067240D01*
X110029298Y-116129362D01*
X109961927Y-116178310D01*
X109961925Y-116178312D01*
X109961924Y-116178312D01*
X109828312Y-116311924D01*
X109828312Y-116311925D01*
X109828310Y-116311927D01*
X109780610Y-116377579D01*
X109717240Y-116464800D01*
X109631454Y-116633163D01*
X109573059Y-116812881D01*
X109543500Y-116999513D01*
X107347513Y-116999513D01*
X104648000Y-114300000D01*
X101641333Y-114300000D01*
X101574294Y-114280315D01*
X101566933Y-114275200D01*
X100633600Y-113575200D01*
X100591779Y-113519229D01*
X100584000Y-113476000D01*
X100584000Y-111919513D01*
X109543500Y-111919513D01*
X109543500Y-112108486D01*
X109573059Y-112295118D01*
X109631454Y-112474836D01*
X109717240Y-112643199D01*
X109828310Y-112796073D01*
X109961927Y-112929690D01*
X110114801Y-113040760D01*
X110194347Y-113081290D01*
X110283163Y-113126545D01*
X110283165Y-113126545D01*
X110283168Y-113126547D01*
X110379497Y-113157846D01*
X110462881Y-113184940D01*
X110649514Y-113214500D01*
X110649519Y-113214500D01*
X110838486Y-113214500D01*
X111025118Y-113184940D01*
X111204832Y-113126547D01*
X111373199Y-113040760D01*
X111526073Y-112929690D01*
X111659690Y-112796073D01*
X111770760Y-112643199D01*
X111856547Y-112474832D01*
X111914940Y-112295118D01*
X111928969Y-112206542D01*
X111944500Y-112108486D01*
X111944500Y-111919513D01*
X111914940Y-111732881D01*
X111887846Y-111649497D01*
X111856547Y-111553168D01*
X111856545Y-111553165D01*
X111856545Y-111553163D01*
X111770759Y-111384800D01*
X111659690Y-111231927D01*
X111526073Y-111098310D01*
X111373199Y-110987240D01*
X111364605Y-110982861D01*
X111204836Y-110901454D01*
X111025118Y-110843059D01*
X110838486Y-110813500D01*
X110838481Y-110813500D01*
X110649519Y-110813500D01*
X110649514Y-110813500D01*
X110462881Y-110843059D01*
X110283163Y-110901454D01*
X110114800Y-110987240D01*
X110027579Y-111050610D01*
X109961927Y-111098310D01*
X109961925Y-111098312D01*
X109961924Y-111098312D01*
X109828312Y-111231924D01*
X109828312Y-111231925D01*
X109828310Y-111231927D01*
X109788961Y-111286086D01*
X109717240Y-111384800D01*
X109631454Y-111553163D01*
X109573059Y-111732881D01*
X109543500Y-111919513D01*
X100584000Y-111919513D01*
X100584000Y-110795362D01*
X100603685Y-110728323D01*
X100620319Y-110707681D01*
X101309681Y-110018319D01*
X101371004Y-109984834D01*
X101397362Y-109982000D01*
X111252000Y-109982000D01*
X119474487Y-101759513D01*
X134943500Y-101759513D01*
X134943500Y-101948486D01*
X134973059Y-102135118D01*
X135031454Y-102314836D01*
X135117240Y-102483199D01*
X135228310Y-102636073D01*
X135361927Y-102769690D01*
X135514801Y-102880760D01*
X135594347Y-102921290D01*
X135683163Y-102966545D01*
X135683165Y-102966545D01*
X135683168Y-102966547D01*
X135779497Y-102997846D01*
X135862881Y-103024940D01*
X136049514Y-103054500D01*
X136049519Y-103054500D01*
X136238486Y-103054500D01*
X136425118Y-103024940D01*
X136604832Y-102966547D01*
X136773199Y-102880760D01*
X136926073Y-102769690D01*
X137059690Y-102636073D01*
X137170760Y-102483199D01*
X137256547Y-102314832D01*
X137314940Y-102135118D01*
X137344500Y-101948486D01*
X137344500Y-101759513D01*
X137314940Y-101572881D01*
X137256545Y-101393163D01*
X137170759Y-101224800D01*
X137059690Y-101071927D01*
X136926073Y-100938310D01*
X136773199Y-100827240D01*
X136604836Y-100741454D01*
X136425118Y-100683059D01*
X136238486Y-100653500D01*
X136238481Y-100653500D01*
X136049519Y-100653500D01*
X136049514Y-100653500D01*
X135862881Y-100683059D01*
X135683163Y-100741454D01*
X135514800Y-100827240D01*
X135427579Y-100890610D01*
X135361927Y-100938310D01*
X135361925Y-100938312D01*
X135361924Y-100938312D01*
X135228312Y-101071924D01*
X135228312Y-101071925D01*
X135228310Y-101071927D01*
X135180610Y-101137579D01*
X135117240Y-101224800D01*
X135031454Y-101393163D01*
X134973059Y-101572881D01*
X134943500Y-101759513D01*
X119474487Y-101759513D01*
X129634487Y-91599513D01*
X134943500Y-91599513D01*
X134943500Y-91788486D01*
X134973059Y-91975118D01*
X135031454Y-92154836D01*
X135091586Y-92272850D01*
X135117240Y-92323199D01*
X135228310Y-92476073D01*
X135361927Y-92609690D01*
X135514801Y-92720760D01*
X135594347Y-92761290D01*
X135683163Y-92806545D01*
X135683165Y-92806545D01*
X135683168Y-92806547D01*
X135779497Y-92837846D01*
X135862881Y-92864940D01*
X136049514Y-92894500D01*
X136049519Y-92894500D01*
X136238486Y-92894500D01*
X136425118Y-92864940D01*
X136604832Y-92806547D01*
X136773199Y-92720760D01*
X136926073Y-92609690D01*
X137059690Y-92476073D01*
X137170760Y-92323199D01*
X137256547Y-92154832D01*
X137314940Y-91975118D01*
X137344500Y-91788486D01*
X137344500Y-91599513D01*
X137314940Y-91412881D01*
X137256545Y-91233163D01*
X137170759Y-91064800D01*
X137059690Y-90911927D01*
X136926073Y-90778310D01*
X136773199Y-90667240D01*
X136604836Y-90581454D01*
X136425118Y-90523059D01*
X136238486Y-90493500D01*
X136238481Y-90493500D01*
X136049519Y-90493500D01*
X136049514Y-90493500D01*
X135862881Y-90523059D01*
X135683163Y-90581454D01*
X135514800Y-90667240D01*
X135460821Y-90706459D01*
X135361927Y-90778310D01*
X135361925Y-90778312D01*
X135361924Y-90778312D01*
X135228312Y-90911924D01*
X135228312Y-90911925D01*
X135228310Y-90911927D01*
X135180610Y-90977579D01*
X135117240Y-91064800D01*
X135031454Y-91233163D01*
X134973059Y-91412881D01*
X134943500Y-91599513D01*
X129634487Y-91599513D01*
X131281681Y-89952319D01*
X131343004Y-89918834D01*
X131369362Y-89916000D01*
X138684000Y-89916000D01*
X141187681Y-87412319D01*
X141249004Y-87378834D01*
X141275362Y-87376000D01*
X142442638Y-87376000D01*
X142509677Y-87395685D01*
G37*
%TD.AperFunction*%
%TD*%
%TA.AperFunction,Conductor*%
%TO.N,/Project Architecture/Section A - Title A/Src*%
G36*
X153177677Y-117367685D02*
G01*
X153198319Y-117384319D01*
X154649681Y-118835681D01*
X154683166Y-118897004D01*
X154686000Y-118923362D01*
X154686000Y-120090638D01*
X154666315Y-120157677D01*
X154649681Y-120178319D01*
X154432000Y-120395999D01*
X154432000Y-125932638D01*
X154412315Y-125999677D01*
X154395681Y-126020319D01*
X153960319Y-126455681D01*
X153898996Y-126489166D01*
X153872638Y-126492000D01*
X152705362Y-126492000D01*
X152638323Y-126472315D01*
X152617681Y-126455681D01*
X149896319Y-123734319D01*
X149862834Y-123672996D01*
X149860000Y-123646638D01*
X149860000Y-118415362D01*
X149879685Y-118348323D01*
X149896319Y-118327681D01*
X150839681Y-117384319D01*
X150901004Y-117350834D01*
X150927362Y-117348000D01*
X153110638Y-117348000D01*
X153177677Y-117367685D01*
G37*
%TD.AperFunction*%
%TD*%
%TA.AperFunction,Conductor*%
%TO.N,/Project Architecture/Section A - Title A/SW*%
G36*
X139461677Y-110001685D02*
G01*
X139482319Y-110018319D01*
X143002000Y-113538000D01*
X157174638Y-113538000D01*
X157241677Y-113557685D01*
X157262319Y-113574319D01*
X158967681Y-115279681D01*
X159001166Y-115341004D01*
X159004000Y-115367362D01*
X159004000Y-120852638D01*
X158984315Y-120919677D01*
X158967681Y-120940319D01*
X156972000Y-122935999D01*
X156972000Y-125678638D01*
X156952315Y-125745677D01*
X156935681Y-125766319D01*
X156500319Y-126201681D01*
X156438996Y-126235166D01*
X156412638Y-126238000D01*
X155245362Y-126238000D01*
X155178323Y-126218315D01*
X155157681Y-126201681D01*
X154722319Y-125766319D01*
X154688834Y-125704996D01*
X154686000Y-125678638D01*
X154686000Y-121209362D01*
X154705685Y-121142323D01*
X154722319Y-121121681D01*
X154991362Y-120852638D01*
X155702000Y-120142000D01*
X155702000Y-118872000D01*
X153924000Y-117094000D01*
X147573999Y-117094000D01*
X146086319Y-118581681D01*
X146024996Y-118615166D01*
X145998638Y-118618000D01*
X135687362Y-118618000D01*
X135620323Y-118598315D01*
X135599681Y-118581681D01*
X133894319Y-116876319D01*
X133860834Y-116814996D01*
X133858000Y-116788638D01*
X133858000Y-111049362D01*
X133877685Y-110982323D01*
X133894319Y-110961681D01*
X134837681Y-110018319D01*
X134899004Y-109984834D01*
X134925362Y-109982000D01*
X139394638Y-109982000D01*
X139461677Y-110001685D01*
G37*
%TD.AperFunction*%
%TD*%
%TA.AperFunction,Conductor*%
%TO.N,/Project Architecture/Section A - Title A/Vin-*%
G36*
X103139677Y-114827685D02*
G01*
X103160319Y-114844319D01*
X108204000Y-119888000D01*
X110438638Y-119888000D01*
X110505677Y-119907685D01*
X110526319Y-119924319D01*
X111723681Y-121121681D01*
X111757166Y-121183004D01*
X111760000Y-121209362D01*
X111760000Y-123138638D01*
X111740315Y-123205677D01*
X111723681Y-123226319D01*
X110780319Y-124169681D01*
X110718996Y-124203166D01*
X110692638Y-124206000D01*
X101397362Y-124206000D01*
X101330323Y-124186315D01*
X101309681Y-124169681D01*
X100366319Y-123226319D01*
X100332834Y-123164996D01*
X100330000Y-123138638D01*
X100330000Y-116129362D01*
X100349685Y-116062323D01*
X100366319Y-116041681D01*
X101563681Y-114844319D01*
X101625004Y-114810834D01*
X101651362Y-114808000D01*
X103072638Y-114808000D01*
X103139677Y-114827685D01*
G37*
%TD.AperFunction*%
%TD*%
M02*
